<svg width="1559" height="880" viewBox="0 0 1559 880" fill="none" xmlns="http://www.w3.org/2000/svg">
<g filter="url(#filter0_f_365_89)">
<rect x="119.992" y="120" width="1052.45" height="640" fill="url(#paint0_radial_365_89)"/>
</g>
<path d="M357.951 326.43C382.852 326.43 403.981 334.07 421.336 349.35L444.256 326.147L452.746 332.655L428.693 356.708C443.973 373.874 451.614 395.097 451.614 420.376C451.614 451.125 442.653 475.649 424.732 493.948C406.999 512.246 383.984 521.396 355.687 521.396C329.843 521.396 308.054 512.907 290.321 495.928L268.816 517.717L262.024 512.058L284.096 489.42C269.382 472.253 262.024 450.748 262.024 424.903C262.024 396.984 271.174 373.591 289.472 354.727C307.96 335.862 330.786 326.43 357.951 326.43ZM359.366 507.247C378.796 507.247 394.171 499.984 405.49 485.459C416.997 470.933 422.751 450.559 422.751 424.337C422.751 405.284 418.789 388.777 410.866 374.818L307.299 479.233C320.316 497.909 337.671 507.247 359.366 507.247ZM290.887 421.508C290.887 440.372 294.66 456.879 302.206 471.027L405.207 366.046C392.379 349.633 375.778 341.427 355.404 341.427C337.671 341.427 322.485 348.407 309.846 362.367C297.207 376.327 290.887 396.04 290.887 421.508Z" fill="#FF3E96"/>
<path d="M634.177 520.558C613.712 520.558 598.044 512.99 587.172 497.855C576.513 482.72 571.184 462.574 571.184 437.42C571.184 409.281 577.153 386.471 589.091 368.991C601.028 351.297 617.656 342.45 638.974 342.45C659.225 342.45 674.361 350.444 684.38 366.432C694.399 382.207 699.409 401.713 699.409 424.949C699.409 453.514 693.866 476.644 682.781 494.338C671.696 511.818 655.495 520.558 634.177 520.558ZM638.014 354.921C624.584 354.921 614.352 361.956 607.317 376.025C600.282 390.095 596.765 408.428 596.765 431.025C596.765 454.261 600.069 472.807 606.677 486.663C613.499 500.306 622.879 507.128 634.817 507.128C647.82 507.128 657.626 500.733 664.235 487.942C670.843 475.152 674.147 457.458 674.147 434.862C674.147 410.773 670.95 391.481 664.555 376.985C658.159 362.275 649.313 354.921 638.014 354.921Z" fill="#FF3E96"/>
<path d="M876.492 520.83C856.873 520.83 841.404 514.321 830.085 501.305C818.767 488.288 813.107 471.121 813.107 449.804C813.107 428.299 819.238 410.094 831.5 395.191C843.951 380.288 860.175 372.837 880.171 372.837C899.79 372.837 915.448 379.345 927.144 392.362C939.029 405.19 944.971 422.074 944.971 443.013C944.971 465.651 938.934 484.327 926.861 499.041C914.976 513.567 898.187 520.83 876.492 520.83ZM877.907 507.247C892.056 507.247 902.337 501.965 908.751 491.401C915.353 480.648 918.655 466.311 918.655 448.39C918.655 430.28 914.976 415.565 907.619 404.246C900.45 392.739 890.83 386.985 878.756 386.985C865.174 386.985 855.175 392.267 848.761 402.832C842.536 413.207 839.423 427.167 839.423 444.711C839.423 461.689 842.913 476.404 849.893 488.854C856.873 501.116 866.211 507.247 877.907 507.247Z" fill="#FF3E96"/>
<path d="M1540.79 157.55C1538.66 154.246 1537.12 152.434 1530.75 146.542C1526.67 142.779 1524.88 140.128 1524.29 137.151C1523.59 133.563 1526.11 130.01 1529.69 129.295C1532.22 128.792 1534.8 129.634 1536.75 132C1537.69 129.058 1539.76 127.29 1542.33 126.779C1545.83 126.081 1549.59 128.383 1550.29 131.971C1550.86 134.867 1550.38 137.802 1547.88 143.173C1544.18 151.111 1543.39 153.516 1542.71 157.168L1540.79 157.55ZM1541.03 153.816C1541.64 151.533 1542.9 148.444 1544.65 144.662C1546.41 140.88 1547.45 138.174 1547.82 136.617C1548.19 135.06 1548.25 133.649 1548.01 132.426C1547.55 130.102 1545.14 128.591 1542.78 129.062C1540.41 129.533 1538.82 131.97 1538.54 135.541L1536.47 135.955C1534.73 132.488 1532.38 131.132 1530.14 131.579C1527.82 132.042 1526.12 134.372 1526.57 136.696C1526.81 137.879 1527.39 139.119 1528.28 140.424C1529.17 141.729 1531.14 143.753 1534.13 146.504C1537.12 149.213 1539.43 151.678 1541.03 153.816Z" fill="white"/>
<path d="M1558.67 290H120.312C119.863 289.765 119.449 289.53 119 289.295C123.005 288.982 126.975 288.395 130.979 288.388C191.67 288.336 252.361 288.317 313.052 288.375C361.902 288.421 410.786 288.708 459.636 288.643C549.74 288.532 639.844 288.193 729.949 288.036C777.555 287.951 825.162 288.036 872.769 288.088C921.239 288.147 969.743 288.258 1018.21 288.362C1070.69 288.473 1123.13 288.728 1175.6 288.695C1224.8 288.662 1273.96 288.225 1323.15 288.167C1342.31 288.14 1361.51 288.852 1380.7 288.878C1429.21 288.949 1477.75 288.826 1526.25 288.786C1537.06 288.78 1547.83 288.786 1558.63 288.786C1558.63 289.191 1558.63 289.595 1558.63 290H1558.67Z" fill="#FF3E96"/>
<path d="M1558.67 564H120.312C119.863 563.765 119.449 563.53 119 563.295C123.005 562.982 126.975 562.395 130.979 562.388C191.67 562.336 252.361 562.317 313.052 562.375C361.902 562.421 410.786 562.708 459.636 562.643C549.74 562.532 639.844 562.193 729.949 562.036C777.555 561.951 825.162 562.036 872.769 562.088C921.239 562.147 969.743 562.258 1018.21 562.362C1070.69 562.473 1123.13 562.728 1175.6 562.695C1224.8 562.662 1273.96 562.225 1323.15 562.167C1342.31 562.14 1361.51 562.852 1380.7 562.878C1429.21 562.949 1477.75 562.826 1526.25 562.786C1537.06 562.78 1547.83 562.786 1558.63 562.786C1558.63 563.191 1558.63 563.595 1558.63 564H1558.67Z" fill="#FF3E96"/>
<path d="M762.382 376L762.382 503.883C762.265 503.923 762.148 503.96 762.032 504C761.876 503.644 761.585 503.291 761.582 502.935C761.556 497.539 761.546 492.143 761.575 486.747C761.598 482.404 761.74 478.057 761.708 473.714C761.653 465.703 761.484 457.692 761.407 449.681C761.364 445.448 761.407 441.215 761.432 436.983C761.462 432.673 761.517 428.361 761.569 424.051C761.624 419.386 761.75 414.724 761.734 410.058C761.718 405.684 761.501 401.313 761.471 396.939C761.458 395.236 761.812 393.529 761.825 391.823C761.86 387.51 761.799 383.195 761.779 378.882C761.776 377.921 761.779 376.964 761.779 376.003C761.98 376.003 762.181 376.003 762.382 376.003L762.382 376Z" fill="#FF3E96"/>
<path d="M506.222 376L506.222 503.883C506.105 503.923 505.988 503.96 505.872 504C505.716 503.644 505.425 503.291 505.421 502.935C505.395 497.539 505.386 492.143 505.415 486.747C505.438 482.404 505.58 478.057 505.548 473.714C505.493 465.703 505.324 457.692 505.246 449.681C505.204 445.448 505.246 441.215 505.272 436.983C505.301 432.673 505.357 428.361 505.408 424.051C505.463 419.386 505.59 414.724 505.574 410.058C505.557 405.684 505.34 401.313 505.311 396.939C505.298 395.236 505.651 393.529 505.664 391.823C505.7 387.51 505.638 383.195 505.619 378.882C505.616 377.921 505.619 376.964 505.619 376.003C505.82 376.003 506.021 376.003 506.222 376.003L506.222 376Z" fill="#FF3E96"/>
<g clip-path="url(#clip0_365_89)">
<path fill-rule="evenodd" clip-rule="evenodd" d="M119 802.487C124.142 799.394 128.496 794.802 131.351 789C137.589 776.311 146.834 766.446 158.016 758.167C160.727 756.159 163.503 754.219 166.278 752.279L166.279 752.278C172.569 747.881 178.861 743.483 184.416 738.293C199.266 724.407 197.318 702.955 180.767 691.179H180.758C177.664 688.974 174.208 687.277 170.757 685.583C169.538 684.984 168.32 684.386 167.118 683.766C166.009 683.193 164.854 682.709 163.7 682.225C162.385 681.674 161.069 681.122 159.821 680.439C154.291 677.407 153.11 673.406 157.543 669.043C163.685 662.989 165.674 655.305 167.676 647.573L167.789 647.135C171.977 630.921 162.799 616.949 146.455 614.44C138.26 613.176 130.405 614.649 123.193 618.698C121.75 619.507 120.351 620.362 119 621.269V802.487ZM153.422 718.087C152.42 722.25 148.913 723.846 143.213 724.35C142.69 724.083 142.061 723.797 141.367 723.481L141.367 723.48C139.49 722.626 137.134 721.553 135.084 720.054C132.561 718.21 131.54 715.292 133.137 712.061C134.659 708.991 137.192 707.641 140.463 708.154C142.92 708.534 145.368 709.238 147.703 710.122C151.286 711.481 154.481 713.696 153.422 718.096V718.087ZM210.465 745.55C222.132 751.52 225.448 768.05 216.969 777.97C215.023 780.25 215.152 781.63 217.415 783.83C218.249 784.643 219.097 785.445 219.945 786.246C222.278 788.453 224.613 790.66 226.659 793.11C228.456 795.27 229.787 797.99 230.74 800.67C232.845 806.59 228.804 812.26 222.678 811.58C218.974 811.17 215.281 809.65 211.865 808.03C209.026 806.68 207.844 806.66 207.377 809.94C206.553 815.66 203.525 819.4 198.392 821.64C193.825 823.63 190.677 822.35 188.86 817.75C187.027 813.11 183.807 811.47 179.2 812.83C173.699 814.45 170.145 812.56 168.387 807.08C165.716 798.73 167.931 791.53 174.871 786.02C178.822 782.88 178.942 782.34 175.665 778.45C171.624 773.64 169.867 768.53 172.806 762.46C175.814 756.24 181.811 754.71 187.381 758.82C190.783 761.327 193.126 760.62 194.41 756.7C196.605 750.03 203.386 745.38 210.565 745.62L210.455 745.56L210.465 745.55ZM213.493 764.31C213.444 756.5 211.438 754.22 207.129 755.58C205.392 756.13 203.565 757.84 202.731 759.5C201.427 762.11 200.565 764.963 199.71 767.793C199.556 768.303 199.402 768.813 199.246 769.32C198.908 770.43 198.571 771.91 199.037 772.81C199.822 774.36 201.023 775.92 202.443 776.87C204.161 778.02 206.255 777.54 207.526 775.86C210.584 771.8 213.444 767.59 213.493 764.31ZM178.515 804.76C179.083 804.334 179.579 803.999 180.011 803.708C180.784 803.185 181.35 802.804 181.751 802.29C183.757 799.71 185.753 797.09 187.46 794.3C187.863 793.647 187.853 792.738 187.843 791.832C187.838 791.419 187.833 791.007 187.868 790.62C187.435 790.633 186.974 790.598 186.514 790.563C185.507 790.487 184.499 790.411 183.777 790.83C179.905 793.09 177.7 796.8 176.688 801.08C176.542 801.686 177.052 802.451 177.641 803.334C177.936 803.778 178.252 804.252 178.515 804.75V804.76ZM211.321 790.257C211.399 790.189 211.476 790.121 211.553 790.054C212.407 790.719 213.269 791.375 214.13 792.031L214.133 792.033C216.482 793.823 218.83 795.611 221.029 797.57C221.548 798.03 221.635 798.976 221.723 799.921C221.762 800.353 221.802 800.784 221.883 801.17C221.507 801.176 221.116 801.215 220.725 801.255C219.859 801.341 218.988 801.429 218.249 801.16C213.364 799.4 211.577 795.37 210.862 790.66C211.013 790.528 211.168 790.392 211.321 790.257ZM181.463 770.91C181.554 771.031 181.656 771.202 181.774 771.399C182.095 771.937 182.532 772.671 183.171 773.11C184.621 774.11 186.239 774.96 187.907 775.48C188.6 775.694 189.401 775.546 190.203 775.397C190.563 775.331 190.923 775.264 191.273 775.23C191.233 774.828 191.239 774.376 191.245 773.925C191.258 772.929 191.272 771.934 190.786 771.48C189.109 769.9 187.033 768.64 184.938 767.66C182.943 766.73 181.523 767.95 181.473 770.91H181.463ZM199.702 797.53C195.195 802.44 194.142 808.08 196.843 812.06C200.616 807.81 200.556 802.89 199.702 797.53Z" fill="white"/>
</g>
<defs>
<filter id="filter0_f_365_89" x="-0.0078125" y="0" width="1292.45" height="880" filterUnits="userSpaceOnUse" color-interpolation-filters="sRGB">
<feFlood flood-opacity="0" result="BackgroundImageFix"/>
<feBlend mode="normal" in="SourceGraphic" in2="BackgroundImageFix" result="shape"/>
<feGaussianBlur stdDeviation="60" result="effect1_foregroundBlur_365_89"/>
</filter>
<radialGradient id="paint0_radial_365_89" cx="0" cy="0" r="1" gradientUnits="userSpaceOnUse" gradientTransform="translate(646.215 440) rotate(90) scale(320 526.223)">
<stop stop-color="white"/>
<stop offset="1" stop-color="white" stop-opacity="0.38"/>
</radialGradient>
<clipPath id="clip0_365_89">
<rect width="113" height="209" fill="white" transform="translate(119 614)"/>
</clipPath>
</defs>
</svg>
