<svg width="1403" height="183" viewBox="0 0 1403 183" fill="none" xmlns="http://www.w3.org/2000/svg">
<path d="M1168.33 12.0989C1167.46 12.0989 1166.76 12.6259 1166.22 13.6799C1165.69 14.7132 1165.42 16.0256 1165.42 17.6169L1170.81 17.4309C1170.85 13.8762 1170.03 12.0989 1168.33 12.0989ZM1170.87 24.9949C1172.05 24.9949 1173.29 24.6642 1174.59 24.0029L1175.09 25.4289C1174.86 25.5736 1174.54 25.7596 1174.13 25.9869C1173.74 26.1936 1172.98 26.4726 1171.87 26.8239C1170.77 27.1752 1169.76 27.3509 1168.83 27.3509C1166.37 27.3509 1164.42 26.6586 1162.97 25.2739C1161.54 23.8686 1160.83 21.9982 1160.83 19.6629C1160.83 16.8316 1161.55 14.5789 1163 12.9049C1164.47 11.2309 1166.39 10.3939 1168.77 10.3939C1170.07 10.3939 1171.18 10.6522 1172.11 11.1689C1173.06 11.6856 1173.77 12.3676 1174.22 13.2149C1174.7 14.0622 1175.04 14.9199 1175.24 15.7879C1175.45 16.6352 1175.55 17.5136 1175.55 18.4229V19.0119H1165.45C1165.57 20.7479 1166.08 22.1842 1166.97 23.3209C1167.86 24.4369 1169.16 24.9949 1170.87 24.9949ZM1185.17 12.5019C1184.12 12.5019 1183.31 13.0082 1182.75 14.0209C1182.19 15.0336 1181.92 16.2839 1181.92 17.7719C1181.92 19.7972 1182.36 21.5126 1183.25 22.9179C1184.16 24.3026 1185.45 24.9949 1187.12 24.9949C1188.05 24.9949 1189.15 24.6952 1190.41 24.0959L1190.84 25.3669C1190.66 25.5116 1190.4 25.6976 1190.07 25.9249C1189.74 26.1316 1189.06 26.4209 1188.02 26.7929C1187.01 27.1649 1186 27.3509 1184.98 27.3509C1182.71 27.3509 1180.87 26.6379 1179.47 25.2119C1178.08 23.7652 1177.39 21.8329 1177.39 19.4149C1177.39 16.5629 1178.2 14.3516 1179.81 12.7809C1181.44 11.1896 1183.47 10.3939 1185.88 10.3939C1187.16 10.3939 1188.29 10.6316 1189.26 11.1069C1190.23 11.5616 1190.95 12.0886 1191.4 12.6879C1190.86 13.4939 1190.11 14.2689 1189.14 15.0129C1189.1 14.9509 1189.02 14.8682 1188.92 14.7649C1188.84 14.6409 1188.66 14.4342 1188.39 14.1449C1188.13 13.8556 1187.84 13.6076 1187.53 13.4009C1187.24 13.1736 1186.88 12.9669 1186.44 12.7809C1186.01 12.5949 1185.58 12.5019 1185.17 12.5019ZM1204.55 12.5019L1202.23 12.5019C1202.17 13.9486 1202.13 16.0876 1202.13 18.9189C1202.13 20.3449 1202.16 22.4839 1202.2 25.3359L1204.74 25.4289C1204.8 25.9456 1204.8 26.4726 1204.74 27.0099C1202.4 26.9892 1200.83 26.9789 1200.03 26.9789C1199.68 26.9789 1198.83 26.9892 1197.48 27.0099C1196.14 27.0099 1195.37 27.0099 1195.16 27.0099C1195.12 26.4519 1195.12 25.9249 1195.16 25.4289L1197.58 25.3359C1197.66 23.9099 1197.7 21.7709 1197.7 18.9189C1197.7 16.0876 1197.68 13.9382 1197.64 12.4709L1195.28 12.5019C1194.85 12.5226 1194.6 12.7189 1194.54 13.0909L1194.11 16.5939C1193.96 16.6146 1193.61 16.6249 1193.05 16.6249C1192.49 16.6249 1192.13 16.6146 1191.97 16.5939V10.6419L1194.42 10.8279L1205.45 10.8279L1207.9 10.6419V16.5939C1207.74 16.6146 1207.37 16.6249 1206.82 16.6249C1206.26 16.6249 1205.91 16.6146 1205.76 16.5939L1205.33 13.0909C1205.29 12.8842 1205.21 12.7396 1205.11 12.6569C1205.03 12.5536 1204.84 12.5019 1204.55 12.5019ZM1216.59 12.0989C1215.72 12.0989 1215.02 12.6259 1214.48 13.6799C1213.94 14.7132 1213.67 16.0256 1213.67 17.6169L1219.07 17.4309C1219.11 13.8762 1218.28 12.0989 1216.59 12.0989ZM1219.13 24.9949C1220.31 24.9949 1221.55 24.6642 1222.85 24.0029L1223.35 25.4289C1223.12 25.5736 1222.8 25.7596 1222.38 25.9869C1221.99 26.1936 1221.24 26.4726 1220.12 26.8239C1219.03 27.1752 1218.01 27.3509 1217.08 27.3509C1214.62 27.3509 1212.67 26.6586 1211.22 25.2739C1209.8 23.8686 1209.09 21.9982 1209.09 19.6629C1209.09 16.8316 1209.81 14.5789 1211.26 12.9049C1212.72 11.2309 1214.64 10.3939 1217.02 10.3939C1218.32 10.3939 1219.44 10.6522 1220.37 11.1689C1221.32 11.6856 1222.02 12.3676 1222.48 13.2149C1222.95 14.0622 1223.29 14.9199 1223.5 15.7879C1223.71 16.6352 1223.81 17.5136 1223.81 18.4229V19.0119H1213.7C1213.83 20.7479 1214.33 22.1842 1215.22 23.3209C1216.11 24.4369 1217.41 24.9949 1219.13 24.9949ZM1233.43 12.5019C1232.37 12.5019 1231.57 13.0082 1231.01 14.0209C1230.45 15.0336 1230.17 16.2839 1230.17 17.7719C1230.17 19.7972 1230.62 21.5126 1231.5 22.9179C1232.41 24.3026 1233.71 24.9949 1235.38 24.9949C1236.31 24.9949 1237.4 24.6952 1238.67 24.0959L1239.1 25.3669C1238.91 25.5116 1238.65 25.6976 1238.32 25.9249C1237.99 26.1316 1237.31 26.4209 1236.28 26.7929C1235.27 27.1649 1234.25 27.3509 1233.24 27.3509C1230.97 27.3509 1229.13 26.6379 1227.72 25.2119C1226.34 23.7652 1225.65 21.8329 1225.65 19.4149C1225.65 16.5629 1226.45 14.3516 1228.06 12.7809C1229.7 11.1896 1231.72 10.3939 1234.14 10.3939C1235.42 10.3939 1236.55 10.6316 1237.52 11.1069C1238.49 11.5616 1239.2 12.0886 1239.66 12.6879C1239.12 13.4939 1238.37 14.2689 1237.39 15.0129C1237.35 14.9509 1237.28 14.8682 1237.18 14.7649C1237.09 14.6409 1236.92 14.4342 1236.65 14.1449C1236.38 13.8556 1236.09 13.6076 1235.78 13.4009C1235.49 13.1736 1235.13 12.9669 1234.7 12.7809C1234.26 12.5949 1233.84 12.5019 1233.43 12.5019ZM1252.81 12.5019H1250.48C1250.42 13.9486 1250.39 16.0876 1250.39 18.9189C1250.39 20.3449 1250.41 22.4839 1250.45 25.3359L1252.99 25.4289C1253.06 25.9456 1253.06 26.4726 1252.99 27.0099C1250.66 26.9892 1249.09 26.9789 1248.28 26.9789C1247.93 26.9789 1247.08 26.9892 1245.74 27.0099C1244.4 27.0099 1243.62 27.0099 1243.42 27.0099C1243.37 26.4519 1243.37 25.9249 1243.42 25.4289L1245.83 25.3359C1245.92 23.9099 1245.96 21.7709 1245.96 18.9189C1245.96 16.0876 1245.94 13.9382 1245.9 12.4709L1243.54 12.5019C1243.11 12.5226 1242.86 12.7189 1242.8 13.0909L1242.36 16.5939C1242.22 16.6146 1241.87 16.6249 1241.31 16.6249C1240.75 16.6249 1240.39 16.6146 1240.22 16.5939V10.6419L1242.67 10.8279H1253.71L1256.16 10.6419V16.5939C1255.99 16.6146 1255.63 16.6249 1255.07 16.6249C1254.51 16.6249 1254.16 16.6146 1254.02 16.5939L1253.58 13.0909C1253.54 12.8842 1253.47 12.7396 1253.37 12.6569C1253.28 12.5536 1253.1 12.5019 1252.81 12.5019ZM1262.39 27.0099H1257.22C1257.2 26.4932 1257.2 25.9662 1257.22 25.4289L1259.33 25.3359C1259.41 23.9099 1259.45 21.8122 1259.45 19.0429C1259.45 16.1496 1259.43 13.9692 1259.39 12.5019L1257.19 12.4089C1257.12 11.8922 1257.12 11.3652 1257.19 10.8279C1259.77 10.8486 1261.46 10.8589 1262.27 10.8589L1266.27 10.8279C1268.17 10.8072 1269.61 11.1482 1270.58 11.8509C1271.57 12.5329 1272.07 13.5042 1272.07 14.7649C1272.07 15.8189 1271.74 16.6456 1271.07 17.2449C1270.43 17.8442 1269.65 18.2576 1268.72 18.4849C1269.26 18.5469 1269.72 18.6296 1270.11 18.7329C1270.53 18.8362 1270.96 19.0119 1271.42 19.2599C1271.89 19.5079 1272.25 19.8799 1272.5 20.3759C1272.77 20.8719 1272.9 21.4712 1272.9 22.1739C1272.9 23.6206 1272.3 24.8089 1271.11 25.7389C1269.91 26.6482 1268.28 27.1029 1266.24 27.1029C1265.89 27.1029 1265.24 27.0822 1264.29 27.0409C1263.36 27.0202 1262.73 27.0099 1262.39 27.0099ZM1265.28 25.4289C1266.29 25.4289 1267.07 25.1912 1267.6 24.7159C1268.16 24.2199 1268.44 23.3622 1268.44 22.1429C1268.44 21.3369 1268.16 20.6859 1267.6 20.1899C1267.04 19.6939 1266.23 19.4459 1265.15 19.4459H1264.63C1264.38 19.4459 1264.11 19.4666 1263.82 19.5079C1263.82 22.4219 1263.83 24.3749 1263.85 25.3669C1264.35 25.4082 1264.82 25.4289 1265.28 25.4289ZM1264.81 12.5019H1263.88C1263.84 13.5352 1263.82 15.3332 1263.82 17.8959C1263.97 17.9166 1264.2 17.9269 1264.53 17.9269H1265.09C1265.9 17.9269 1266.53 17.6789 1266.98 17.1829C1267.46 16.6869 1267.7 16.0772 1267.7 15.3539C1267.7 14.2586 1267.48 13.5146 1267.04 13.1219C1266.63 12.7086 1265.89 12.5019 1264.81 12.5019ZM1282.04 12.0989C1281.17 12.0989 1280.47 12.6259 1279.93 13.6799C1279.39 14.7132 1279.12 16.0256 1279.12 17.6169L1284.52 17.4309C1284.56 13.8762 1283.73 12.0989 1282.04 12.0989ZM1284.58 24.9949C1285.76 24.9949 1287 24.6642 1288.3 24.0029L1288.8 25.4289C1288.57 25.5736 1288.25 25.7596 1287.84 25.9869C1287.44 26.1936 1286.69 26.4726 1285.57 26.8239C1284.48 27.1752 1283.46 27.3509 1282.53 27.3509C1280.08 27.3509 1278.12 26.6586 1276.68 25.2739C1275.25 23.8686 1274.54 21.9982 1274.54 19.6629C1274.54 16.8316 1275.26 14.5789 1276.71 12.9049C1278.17 11.2309 1280.1 10.3939 1282.47 10.3939C1283.77 10.3939 1284.89 10.6522 1285.82 11.1689C1286.77 11.6856 1287.47 12.3676 1287.93 13.2149C1288.4 14.0622 1288.75 14.9199 1288.95 15.7879C1289.16 16.6352 1289.26 17.5136 1289.26 18.4229V19.0119H1279.16C1279.28 20.7479 1279.79 22.1842 1280.67 23.3209C1281.56 24.4369 1282.87 24.9949 1284.58 24.9949ZM1293.17 18.9189C1293.17 16.1082 1293.15 13.9692 1293.11 12.5019L1290.91 12.4089C1290.87 11.8922 1290.87 11.3652 1290.91 10.8279C1293.1 10.8486 1294.6 10.8589 1295.41 10.8589C1295.76 10.8589 1296.48 10.8589 1297.58 10.8589C1298.67 10.8382 1299.32 10.8279 1299.53 10.8279C1299.55 11.3859 1299.55 11.9129 1299.53 12.4089L1297.67 12.5019C1297.63 13.6592 1297.61 15.4469 1297.61 17.8649C1297.75 17.8649 1298.11 17.8752 1298.69 17.8959C1299.27 17.8959 1299.77 17.8959 1300.18 17.8959C1301.54 17.8959 1302.46 17.8856 1302.94 17.8649C1302.94 15.5089 1302.93 13.7212 1302.91 12.5019L1300.95 12.4089C1300.91 11.8922 1300.91 11.3652 1300.95 10.8279C1302.92 10.8486 1304.3 10.8589 1305.11 10.8589C1305.46 10.8589 1306.23 10.8589 1307.43 10.8589C1308.65 10.8382 1309.37 10.8279 1309.57 10.8279C1309.59 11.3859 1309.59 11.9129 1309.57 12.4089L1307.5 12.5019C1307.41 13.9279 1307.37 16.0566 1307.37 18.8879C1307.37 21.7192 1307.39 23.8686 1307.43 25.3359L1309.6 25.4289C1309.64 25.9456 1309.64 26.4726 1309.6 27.0099C1307.56 26.9892 1306.13 26.9789 1305.33 26.9789C1304.97 26.9789 1304.21 26.9892 1303.03 27.0099C1301.87 27.0099 1301.19 27.0099 1300.99 27.0099C1300.94 26.4519 1300.94 25.9249 1300.99 25.4289L1302.85 25.3359C1302.91 24.1786 1302.94 22.2566 1302.94 19.5699C1302.77 19.5699 1302.37 19.5699 1301.73 19.5699C1301.11 19.5492 1300.58 19.5389 1300.15 19.5389C1299.74 19.5389 1299.24 19.5492 1298.66 19.5699C1298.1 19.5699 1297.75 19.5699 1297.61 19.5699C1297.61 22.7939 1297.62 24.7159 1297.64 25.3359L1299.56 25.4289C1299.6 25.9456 1299.6 26.4726 1299.56 27.0099C1297.64 26.9892 1296.27 26.9789 1295.47 26.9789C1295.12 26.9789 1294.33 26.9892 1293.11 27.0099C1291.89 27.0099 1291.18 27.0099 1290.97 27.0099C1290.95 26.4519 1290.95 25.9249 1290.97 25.4289L1293.05 25.3359C1293.13 23.9099 1293.17 21.7709 1293.17 18.9189ZM1313.34 18.9189C1313.34 16.1082 1313.31 13.9692 1313.27 12.5019L1311.07 12.4089C1311.03 11.8922 1311.03 11.3652 1311.07 10.8279C1313.26 10.8486 1314.76 10.8589 1315.57 10.8589C1315.92 10.8589 1316.64 10.8589 1317.74 10.8589C1318.83 10.8382 1319.48 10.8279 1319.69 10.8279C1319.71 11.3859 1319.71 11.9129 1319.69 12.4089L1317.83 12.5019C1317.79 13.6592 1317.77 15.4469 1317.77 17.8649C1317.91 17.8649 1318.27 17.8752 1318.85 17.8959C1319.43 17.8959 1319.93 17.8959 1320.34 17.8959C1321.71 17.8959 1322.63 17.8856 1323.1 17.8649C1323.1 15.5089 1323.09 13.7212 1323.07 12.5019L1321.12 12.4089C1321.08 11.8922 1321.08 11.3652 1321.12 10.8279C1323.08 10.8486 1324.46 10.8589 1325.27 10.8589C1325.62 10.8589 1326.4 10.8589 1327.6 10.8589C1328.81 10.8382 1329.53 10.8279 1329.73 10.8279C1329.76 11.3859 1329.76 11.9129 1329.73 12.4089L1327.66 12.5019C1327.57 13.9279 1327.53 16.0566 1327.53 18.8879C1327.53 21.7192 1327.55 23.8686 1327.6 25.3359L1329.77 25.4289C1329.81 25.9456 1329.81 26.4726 1329.77 27.0099C1327.72 26.9892 1326.29 26.9789 1325.49 26.9789C1325.14 26.9789 1324.37 26.9892 1323.19 27.0099C1322.04 27.0099 1321.35 27.0099 1321.15 27.0099C1321.11 26.4519 1321.11 25.9249 1321.15 25.4289L1323.01 25.3359C1323.07 24.1786 1323.1 22.2566 1323.1 19.5699C1322.94 19.5699 1322.53 19.5699 1321.89 19.5699C1321.27 19.5492 1320.74 19.5389 1320.31 19.5389C1319.9 19.5389 1319.4 19.5492 1318.82 19.5699C1318.26 19.5699 1317.91 19.5699 1317.77 19.5699C1317.77 22.7939 1317.78 24.7159 1317.8 25.3359L1319.72 25.4289C1319.76 25.9456 1319.76 26.4726 1319.72 27.0099C1317.8 26.9892 1316.44 26.9789 1315.63 26.9789C1315.28 26.9789 1314.49 26.9892 1313.27 27.0099C1312.05 27.0099 1311.34 27.0099 1311.13 27.0099C1311.11 26.4519 1311.11 25.9249 1311.13 25.4289L1313.21 25.3359C1313.29 23.9099 1313.34 21.7709 1313.34 18.9189ZM1339.17 27.3199C1336.81 27.3199 1334.93 26.5759 1333.53 25.0879C1332.12 23.5792 1331.42 21.6159 1331.42 19.1979C1331.42 16.6559 1332.19 14.5582 1333.71 12.9049C1335.26 11.2309 1337.22 10.3939 1339.57 10.3939C1342.01 10.3939 1343.94 11.1379 1345.37 12.6259C1346.8 14.0932 1347.51 16.0359 1347.51 18.4539C1347.51 21.0166 1346.77 23.1349 1345.28 24.8089C1343.81 26.4829 1341.77 27.3199 1339.17 27.3199ZM1339.33 25.5839C1341.76 25.5839 1342.98 23.4036 1342.98 19.0429C1342.98 17.0382 1342.67 15.3952 1342.05 14.1139C1341.45 12.8326 1340.58 12.1919 1339.42 12.1919C1337.1 12.1919 1335.95 14.3412 1335.95 18.6399C1335.95 19.7352 1336.05 20.7892 1336.26 21.8019C1336.48 22.8146 1336.87 23.7032 1337.4 24.4679C1337.94 25.2119 1338.58 25.5839 1339.33 25.5839ZM1357.09 12.5019C1356.04 12.5019 1355.23 13.0082 1354.68 14.0209C1354.12 15.0336 1353.84 16.2839 1353.84 17.7719C1353.84 19.7972 1354.28 21.5126 1355.17 22.9179C1356.08 24.3026 1357.37 24.9949 1359.05 24.9949C1359.98 24.9949 1361.07 24.6952 1362.33 24.0959L1362.77 25.3669C1362.58 25.5116 1362.32 25.6976 1361.99 25.9249C1361.66 26.1316 1360.98 26.4209 1359.95 26.7929C1358.93 27.1649 1357.92 27.3509 1356.91 27.3509C1354.63 27.3509 1352.79 26.6379 1351.39 25.2119C1350 23.7652 1349.31 21.8329 1349.31 19.4149C1349.31 16.5629 1350.12 14.3516 1351.73 12.7809C1353.36 11.1896 1355.39 10.3939 1357.81 10.3939C1359.09 10.3939 1360.21 10.6316 1361.19 11.1069C1362.16 11.5616 1362.87 12.0886 1363.32 12.6879C1362.79 13.4939 1362.03 14.2689 1361.06 15.0129C1361.02 14.9509 1360.95 14.8682 1360.84 14.7649C1360.76 14.6409 1360.59 14.4342 1360.32 14.1449C1360.05 13.8556 1359.76 13.6076 1359.45 13.4009C1359.16 13.1736 1358.8 12.9669 1358.36 12.7809C1357.93 12.5949 1357.51 12.5019 1357.09 12.5019ZM1376.48 12.5019H1374.15C1374.09 13.9486 1374.06 16.0876 1374.06 18.9189C1374.06 20.3449 1374.08 22.4839 1374.12 25.3359L1376.66 25.4289C1376.72 25.9456 1376.72 26.4726 1376.66 27.0099C1374.33 26.9892 1372.76 26.9789 1371.95 26.9789C1371.6 26.9789 1370.75 26.9892 1369.41 27.0099C1368.06 27.0099 1367.29 27.0099 1367.08 27.0099C1367.04 26.4519 1367.04 25.9249 1367.08 25.4289L1369.5 25.3359C1369.58 23.9099 1369.62 21.7709 1369.62 18.9189C1369.62 16.0876 1369.6 13.9382 1369.56 12.4709L1367.21 12.5019C1366.77 12.5226 1366.52 12.7189 1366.46 13.0909L1366.03 16.5939C1365.88 16.6146 1365.53 16.6249 1364.97 16.6249C1364.42 16.6249 1364.05 16.6146 1363.89 16.5939V10.6419L1366.34 10.8279H1377.37L1379.82 10.6419V16.5939C1379.66 16.6146 1379.3 16.6249 1378.74 16.6249C1378.18 16.6249 1377.83 16.6146 1377.68 16.5939L1377.25 13.0909C1377.21 12.8842 1377.14 12.7396 1377.03 12.6569C1376.95 12.5536 1376.76 12.5019 1376.48 12.5019ZM1388.76 25.4289C1390.83 25.4289 1391.86 24.3336 1391.86 22.1429C1391.86 21.1096 1391.61 20.3346 1391.11 19.8179C1390.64 19.3012 1389.85 19.0429 1388.76 19.0429H1388.51C1388.24 19.0429 1387.89 19.0739 1387.46 19.1359C1387.46 22.2979 1387.47 24.3749 1387.49 25.3669C1387.82 25.4082 1388.24 25.4289 1388.76 25.4289ZM1387.46 17.5239C1388.37 17.3792 1389.25 17.3069 1390.12 17.3069H1390.68C1392.56 17.3069 1393.98 17.7099 1394.93 18.5159C1395.88 19.3219 1396.35 20.3552 1396.35 21.6159C1396.35 23.2692 1395.72 24.6022 1394.46 25.6149C1393.2 26.6069 1391.6 27.1029 1389.66 27.1029C1389.43 27.1029 1388.86 27.0822 1387.95 27.0409C1387.04 27.0202 1386.28 27.0099 1385.66 27.0099H1380.92C1380.85 26.4519 1380.85 25.9249 1380.92 25.4289L1382.96 25.3359C1383.04 23.9099 1383.09 21.8949 1383.09 19.2909C1383.09 16.2322 1383.06 13.9692 1383.02 12.5019L1380.82 12.4089C1380.78 11.8922 1380.78 11.3652 1380.82 10.8279C1383.16 10.8486 1384.73 10.8589 1385.53 10.8589C1385.89 10.8589 1386.69 10.8589 1387.95 10.8589C1389.23 10.8382 1389.98 10.8279 1390.18 10.8279C1390.25 11.3859 1390.25 11.9129 1390.18 12.4089L1387.55 12.5019C1387.49 13.7212 1387.46 15.3952 1387.46 17.5239Z" fill="#FF3E96"/>
<path d="M952.786 170.25H947.609C947.588 169.733 947.588 169.206 947.609 168.669L949.717 168.576C949.8 167.15 949.841 165.052 949.841 162.283C949.841 159.389 949.82 157.209 949.779 155.742L947.578 155.649C947.516 155.132 947.516 154.605 947.578 154.068C950.161 154.088 951.856 154.099 952.662 154.099L956.661 154.068C958.562 154.047 959.999 154.388 960.97 155.091C961.962 155.773 962.458 156.744 962.458 158.005C962.458 159.059 962.127 159.885 961.466 160.485C960.825 161.084 960.04 161.497 959.11 161.725C959.647 161.787 960.112 161.869 960.505 161.973C960.918 162.076 961.352 162.252 961.807 162.5C962.282 162.748 962.644 163.12 962.892 163.616C963.161 164.112 963.295 164.711 963.295 165.414C963.295 166.86 962.696 168.049 961.497 168.979C960.298 169.888 958.676 170.343 956.63 170.343C956.279 170.343 955.628 170.322 954.677 170.281C953.747 170.26 953.117 170.25 952.786 170.25ZM955.669 168.669C956.682 168.669 957.457 168.431 957.994 167.956C958.552 167.46 958.831 166.602 958.831 165.383C958.831 164.577 958.552 163.926 957.994 163.43C957.436 162.934 956.62 162.686 955.545 162.686H955.018C954.77 162.686 954.501 162.706 954.212 162.748C954.212 165.662 954.222 167.615 954.243 168.607C954.739 168.648 955.214 168.669 955.669 168.669ZM955.204 155.742H954.274C954.233 156.775 954.212 158.573 954.212 161.136C954.357 161.156 954.594 161.167 954.925 161.167H955.483C956.289 161.167 956.919 160.919 957.374 160.423C957.849 159.927 958.087 159.317 958.087 158.594C958.087 157.498 957.87 156.754 957.436 156.362C957.023 155.948 956.279 155.742 955.204 155.742ZM972.678 170.56C970.322 170.56 968.442 169.816 967.036 168.328C965.631 166.819 964.928 164.856 964.928 162.438C964.928 159.896 965.693 157.798 967.222 156.145C968.772 154.471 970.725 153.634 973.081 153.634C975.52 153.634 977.452 154.378 978.878 155.866C980.304 157.333 981.017 159.276 981.017 161.694C981.017 164.256 980.273 166.375 978.785 168.049C977.318 169.723 975.282 170.56 972.678 170.56ZM972.833 168.824C975.272 168.824 976.491 166.643 976.491 162.283C976.491 160.278 976.181 158.635 975.561 157.354C974.962 156.072 974.084 155.432 972.926 155.432C970.612 155.432 969.454 157.581 969.454 161.88C969.454 162.975 969.558 164.029 969.764 165.042C969.992 166.054 970.374 166.943 970.911 167.708C971.449 168.452 972.089 168.824 972.833 168.824ZM990.601 155.742C989.547 155.742 988.741 156.248 988.183 157.261C987.625 158.273 987.346 159.524 987.346 161.012C987.346 163.037 987.79 164.752 988.679 166.158C989.588 167.542 990.88 168.235 992.554 168.235C993.484 168.235 994.579 167.935 995.84 167.336L996.274 168.607C996.088 168.751 995.83 168.937 995.499 169.165C995.168 169.371 994.486 169.661 993.453 170.033C992.44 170.405 991.428 170.591 990.415 170.591C988.142 170.591 986.302 169.878 984.897 168.452C983.512 167.005 982.82 165.073 982.82 162.655C982.82 159.803 983.626 157.591 985.238 156.021C986.871 154.429 988.896 153.634 991.314 153.634C992.595 153.634 993.722 153.871 994.693 154.347C995.664 154.801 996.377 155.328 996.832 155.928C996.295 156.734 995.54 157.509 994.569 158.253C994.528 158.191 994.455 158.108 994.352 158.005C994.269 157.881 994.094 157.674 993.825 157.385C993.556 157.095 993.267 156.847 992.957 156.641C992.668 156.413 992.306 156.207 991.872 156.021C991.438 155.835 991.014 155.742 990.601 155.742ZM1009.98 155.742H1007.66C1007.6 157.188 1007.57 159.327 1007.57 162.159C1007.57 163.585 1007.59 165.724 1007.63 168.576L1010.17 168.669C1010.23 169.185 1010.23 169.712 1010.17 170.25C1007.83 170.229 1006.26 170.219 1005.46 170.219C1005.11 170.219 1004.26 170.229 1002.92 170.25C1001.57 170.25 1000.8 170.25 1000.59 170.25C1000.55 169.692 1000.55 169.165 1000.59 168.669L1003.01 168.576C1003.09 167.15 1003.13 165.011 1003.13 162.159C1003.13 159.327 1003.11 157.178 1003.07 155.711L1000.71 155.742C1000.28 155.762 1000.03 155.959 999.97 156.331L999.536 159.834C999.391 159.854 999.04 159.865 998.482 159.865C997.924 159.865 997.562 159.854 997.397 159.834V153.882L999.846 154.068H1010.88L1013.33 153.882V159.834C1013.17 159.854 1012.8 159.865 1012.25 159.865C1011.69 159.865 1011.34 159.854 1011.19 159.834L1010.76 156.331C1010.72 156.124 1010.64 155.979 1010.54 155.897C1010.46 155.793 1010.27 155.742 1009.98 155.742ZM1022.27 170.56C1019.91 170.56 1018.03 169.816 1016.62 168.328C1015.22 166.819 1014.52 164.856 1014.52 162.438C1014.52 159.896 1015.28 157.798 1016.81 156.145C1018.36 154.471 1020.31 153.634 1022.67 153.634C1025.11 153.634 1027.04 154.378 1028.47 155.866C1029.89 157.333 1030.61 159.276 1030.61 161.694C1030.61 164.256 1029.86 166.375 1028.37 168.049C1026.91 169.723 1024.87 170.56 1022.27 170.56ZM1022.42 168.824C1024.86 168.824 1026.08 166.643 1026.08 162.283C1026.08 160.278 1025.77 158.635 1025.15 157.354C1024.55 156.072 1023.67 155.432 1022.51 155.432C1020.2 155.432 1019.04 157.581 1019.04 161.88C1019.04 162.975 1019.15 164.029 1019.35 165.042C1019.58 166.054 1019.96 166.943 1020.5 167.708C1021.04 168.452 1021.68 168.824 1022.42 168.824ZM1042.23 177.628C1039.18 177.607 1037.24 177.597 1036.44 177.597C1036.38 177.597 1035.88 177.597 1034.95 177.597C1034.02 177.617 1033.04 177.628 1032 177.628C1031.98 177.09 1031.98 176.584 1032 176.109L1033.93 175.985C1033.97 175.323 1034.01 171.955 1034.05 165.879C1034.05 165.362 1034.05 164.566 1034.05 163.492C1034.07 162.417 1034.08 161.621 1034.08 161.105C1034.08 159.203 1034.06 157.612 1034.02 156.331L1031.94 155.68C1031.9 155.225 1031.9 154.76 1031.94 154.285C1032.07 154.264 1033.16 154.171 1035.23 154.006C1037.3 153.82 1038.39 153.727 1038.51 153.727L1038.39 155.804C1039.69 154.357 1041.09 153.634 1042.58 153.634C1044.46 153.634 1045.93 154.409 1047.01 155.959C1048.1 157.488 1048.65 159.327 1048.65 161.477C1048.65 164.267 1047.79 166.478 1046.08 168.111C1044.38 169.743 1042.29 170.56 1039.79 170.56C1039.31 170.56 1038.87 170.529 1038.45 170.467C1038.45 173.236 1038.46 175.044 1038.48 175.892L1042.23 176.047C1042.28 176.439 1042.28 176.966 1042.23 177.628ZM1038.48 163.833C1038.48 164.184 1038.47 164.835 1038.45 165.786C1038.45 166.736 1038.45 167.491 1038.45 168.049C1038.91 168.545 1039.49 168.793 1040.19 168.793C1041.39 168.793 1042.33 168.224 1043.01 167.088C1043.71 165.951 1044.06 164.494 1044.06 162.717C1044.06 160.857 1043.76 159.348 1043.16 158.191C1042.57 157.013 1041.64 156.424 1040.37 156.424C1039.75 156.424 1039.12 156.579 1038.48 156.889V163.833ZM1054.73 154.099L1060.9 154.068L1063.35 153.882C1063.35 154.192 1063.36 155.235 1063.38 157.013C1063.42 158.769 1063.44 159.73 1063.44 159.896C1063.28 159.916 1062.9 159.927 1062.32 159.927C1061.79 159.927 1061.45 159.916 1061.3 159.896L1060.74 156.393C1060.68 156 1060.42 155.804 1059.97 155.804L1057.05 155.742C1056.97 157.664 1056.93 159.803 1056.93 162.159C1056.93 163.585 1056.95 165.724 1056.99 168.576L1059.97 168.669C1060.03 169.185 1060.03 169.712 1059.97 170.25C1057.34 170.229 1055.63 170.219 1054.82 170.219C1054.47 170.219 1053.68 170.229 1052.44 170.25C1051.22 170.25 1050.5 170.25 1050.3 170.25C1050.28 169.692 1050.28 169.165 1050.3 168.669L1052.4 168.576C1052.49 167.15 1052.53 165.011 1052.53 162.159C1052.53 159.348 1052.51 157.209 1052.47 155.742L1050.27 155.649C1050.22 154.946 1050.22 154.419 1050.27 154.068C1052.44 154.088 1053.92 154.099 1054.73 154.099Z" fill="#FF3E96"/>
<path d="M705.09 162.159C705.09 159.348 705.069 157.209 705.028 155.742L702.827 155.649C702.785 155.132 702.785 154.605 702.827 154.068C705.017 154.088 706.516 154.099 707.322 154.099C707.673 154.099 708.396 154.099 709.492 154.099C710.587 154.078 711.238 154.068 711.445 154.068C711.465 154.626 711.465 155.153 711.445 155.649L709.585 155.742C709.543 156.899 709.523 158.687 709.523 161.105C709.667 161.105 710.029 161.115 710.608 161.136C711.186 161.136 711.682 161.136 712.096 161.136C713.46 161.136 714.379 161.125 714.855 161.105C714.855 158.749 714.844 156.961 714.824 155.742L712.871 155.649C712.829 155.132 712.829 154.605 712.871 154.068C714.834 154.088 716.219 154.099 717.025 154.099C717.376 154.099 718.151 154.099 719.35 154.099C720.569 154.078 721.282 154.068 721.489 154.068C721.509 154.626 721.509 155.153 721.489 155.649L719.412 155.742C719.329 157.168 719.288 159.296 719.288 162.128C719.288 164.959 719.308 167.108 719.35 168.576L721.52 168.669C721.561 169.185 721.561 169.712 721.52 170.25C719.474 170.229 718.048 170.219 717.242 170.219C716.89 170.219 716.126 170.229 714.948 170.25C713.79 170.25 713.108 170.25 712.902 170.25C712.86 169.692 712.86 169.165 712.902 168.669L714.762 168.576C714.824 167.418 714.855 165.496 714.855 162.81C714.689 162.81 714.286 162.81 713.646 162.81C713.026 162.789 712.499 162.779 712.065 162.779C711.651 162.779 711.155 162.789 710.577 162.81C710.019 162.81 709.667 162.81 709.523 162.81C709.523 166.034 709.533 167.956 709.554 168.576L711.476 168.669C711.517 169.185 711.517 169.712 711.476 170.25C709.554 170.229 708.19 170.219 707.384 170.219C707.032 170.219 706.247 170.229 705.028 170.25C703.808 170.25 703.095 170.25 702.889 170.25C702.868 169.692 702.868 169.165 702.889 168.669L704.966 168.576C705.048 167.15 705.09 165.011 705.09 162.159ZM730.677 155.339C729.809 155.339 729.106 155.866 728.569 156.92C728.031 157.953 727.763 159.265 727.763 160.857L733.157 160.671C733.198 157.116 732.371 155.339 730.677 155.339ZM733.219 168.235C734.397 168.235 735.637 167.904 736.939 167.243L737.435 168.669C737.207 168.813 736.887 168.999 736.474 169.227C736.081 169.433 735.327 169.712 734.211 170.064C733.115 170.415 732.103 170.591 731.173 170.591C728.713 170.591 726.76 169.898 725.314 168.514C723.888 167.108 723.175 165.238 723.175 162.903C723.175 160.071 723.898 157.819 725.345 156.145C726.812 154.471 728.734 153.634 731.111 153.634C732.413 153.634 733.529 153.892 734.459 154.409C735.409 154.925 736.112 155.607 736.567 156.455C737.042 157.302 737.383 158.16 737.59 159.028C737.796 159.875 737.9 160.753 737.9 161.663V162.252H727.794C727.918 163.988 728.424 165.424 729.313 166.561C730.201 167.677 731.503 168.235 733.219 168.235ZM758.057 168.669L759.452 168.638L754.895 161.973L759.886 155.742L757.654 155.618C757.634 155.287 757.634 154.77 757.654 154.068C758.088 154.068 758.75 154.078 759.638 154.099C760.548 154.099 761.085 154.099 761.25 154.099L765.125 154.068C765.167 154.481 765.167 155.008 765.125 155.649L762.769 155.835L758.336 160.547L764.381 168.607L765.838 168.669C765.88 169.185 765.88 169.723 765.838 170.281C764.144 170.239 762.893 170.219 762.087 170.219C761.426 170.219 760.62 170.229 759.669 170.25C758.739 170.25 758.202 170.25 758.057 170.25C758.016 169.836 758.016 169.309 758.057 168.669ZM754.368 162.221C754.368 165.197 754.379 167.315 754.399 168.576L756.104 168.669C756.146 169.185 756.146 169.712 756.104 170.25C754.368 170.229 753.097 170.219 752.291 170.219C751.94 170.219 751.217 170.229 750.121 170.25C749.047 170.25 748.406 170.25 748.199 170.25C748.179 169.692 748.179 169.165 748.199 168.669L749.935 168.576C750.018 167.15 750.059 165.011 750.059 162.159C750.059 159.348 750.039 157.209 749.997 155.742L748.292 155.649C748.251 155.132 748.251 154.605 748.292 154.068C750.111 154.088 751.423 154.099 752.229 154.099C752.581 154.099 753.263 154.099 754.275 154.099C755.288 154.078 755.898 154.068 756.104 154.068C756.146 154.626 756.146 155.153 756.104 155.649L754.461 155.742C754.399 156.899 754.368 159.059 754.368 162.221ZM744.913 168.638L746.37 168.669C746.412 169.309 746.412 169.836 746.37 170.25C746.226 170.25 745.678 170.25 744.727 170.25C743.797 170.229 743.002 170.219 742.34 170.219L738.589 170.281C738.548 169.723 738.548 169.185 738.589 168.669L740.046 168.607L746.06 160.702L741.627 155.835L739.302 155.649C739.261 155.008 739.261 154.481 739.302 154.068C741.08 154.088 742.371 154.099 743.177 154.099C743.343 154.099 743.87 154.099 744.758 154.099C745.668 154.078 746.339 154.068 746.773 154.068C746.794 154.77 746.794 155.287 746.773 155.618L744.634 155.742L749.532 161.973L744.913 168.638ZM768.664 162.159C768.664 159.348 768.643 157.209 768.602 155.742L766.401 155.649C766.359 155.132 766.359 154.605 766.401 154.068C768.591 154.088 770.09 154.099 770.896 154.099C771.247 154.099 771.97 154.099 773.066 154.099C774.161 154.078 774.812 154.068 775.019 154.068C775.039 154.626 775.039 155.153 775.019 155.649L773.159 155.742C773.117 156.899 773.097 158.687 773.097 161.105C773.241 161.105 773.603 161.115 774.182 161.136C774.76 161.136 775.256 161.136 775.67 161.136C777.034 161.136 777.953 161.125 778.429 161.105C778.429 158.749 778.418 156.961 778.398 155.742L776.445 155.649C776.403 155.132 776.403 154.605 776.445 154.068C778.408 154.088 779.793 154.099 780.599 154.099C780.95 154.099 781.725 154.099 782.924 154.099C784.143 154.078 784.856 154.068 785.063 154.068C785.083 154.626 785.083 155.153 785.063 155.649L782.986 155.742C782.903 157.168 782.862 159.296 782.862 162.128C782.862 164.959 782.882 167.108 782.924 168.576L785.094 168.669C785.135 169.185 785.135 169.712 785.094 170.25C783.048 170.229 781.622 170.219 780.816 170.219C780.464 170.219 779.7 170.229 778.522 170.25C777.364 170.25 776.682 170.25 776.476 170.25C776.434 169.692 776.434 169.165 776.476 168.669L778.336 168.576C778.398 167.418 778.429 165.496 778.429 162.81C778.263 162.81 777.86 162.81 777.22 162.81C776.6 162.789 776.073 162.779 775.639 162.779C775.225 162.779 774.729 162.789 774.151 162.81C773.593 162.81 773.241 162.81 773.097 162.81C773.097 166.034 773.107 167.956 773.128 168.576L775.05 168.669C775.091 169.185 775.091 169.712 775.05 170.25C773.128 170.229 771.764 170.219 770.958 170.219C770.606 170.219 769.821 170.229 768.602 170.25C767.382 170.25 766.669 170.25 766.463 170.25C766.442 169.692 766.442 169.165 766.463 168.669L768.54 168.576C768.622 167.15 768.664 165.011 768.664 162.159ZM794.499 170.56C792.143 170.56 790.262 169.816 788.857 168.328C787.452 166.819 786.749 164.856 786.749 162.438C786.749 159.896 787.514 157.798 789.043 156.145C790.593 154.471 792.546 153.634 794.902 153.634C797.341 153.634 799.273 154.378 800.699 155.866C802.125 157.333 802.838 159.276 802.838 161.694C802.838 164.256 802.094 166.375 800.606 168.049C799.139 169.723 797.103 170.56 794.499 170.56ZM794.654 168.824C797.093 168.824 798.312 166.643 798.312 162.283C798.312 160.278 798.002 158.635 797.382 157.354C796.783 156.072 795.904 155.432 794.747 155.432C792.432 155.432 791.275 157.581 791.275 161.88C791.275 162.975 791.378 164.029 791.585 165.042C791.812 166.054 792.195 166.943 792.732 167.708C793.269 168.452 793.91 168.824 794.654 168.824ZM812.421 155.742C811.367 155.742 810.561 156.248 810.003 157.261C809.445 158.273 809.166 159.524 809.166 161.012C809.166 163.037 809.611 164.752 810.499 166.158C811.409 167.542 812.7 168.235 814.374 168.235C815.304 168.235 816.4 167.935 817.66 167.336L818.094 168.607C817.908 168.751 817.65 168.937 817.319 169.165C816.989 169.371 816.307 169.661 815.273 170.033C814.261 170.405 813.248 170.591 812.235 170.591C809.962 170.591 808.123 169.878 806.717 168.452C805.333 167.005 804.64 165.073 804.64 162.655C804.64 159.803 805.446 157.591 807.058 156.021C808.691 154.429 810.716 153.634 813.134 153.634C814.416 153.634 815.542 153.871 816.513 154.347C817.485 154.801 818.198 155.328 818.652 155.928C818.115 156.734 817.361 157.509 816.389 158.253C816.348 158.191 816.276 158.108 816.172 158.005C816.09 157.881 815.914 157.674 815.645 157.385C815.377 157.095 815.087 156.847 814.777 156.641C814.488 156.413 814.126 156.207 813.692 156.021C813.258 155.835 812.835 155.742 812.421 155.742ZM831.804 155.742H829.479C829.417 157.188 829.386 159.327 829.386 162.159C829.386 163.585 829.406 165.724 829.448 168.576L831.99 168.669C832.052 169.185 832.052 169.712 831.99 170.25C829.654 170.229 828.084 170.219 827.278 170.219C826.926 170.219 826.079 170.229 824.736 170.25C823.392 170.25 822.617 170.25 822.411 170.25C822.369 169.692 822.369 169.165 822.411 168.669L824.829 168.576C824.911 167.15 824.953 165.011 824.953 162.159C824.953 159.327 824.932 157.178 824.891 155.711L822.535 155.742C822.101 155.762 821.853 155.959 821.791 156.331L821.357 159.834C821.212 159.854 820.861 159.865 820.303 159.865C819.745 159.865 819.383 159.854 819.218 159.834V153.882L821.667 154.068H832.703L835.152 153.882V159.834C834.986 159.854 834.625 159.865 834.067 159.865C833.509 159.865 833.157 159.854 833.013 159.834L832.579 156.331C832.537 156.124 832.465 155.979 832.362 155.897C832.279 155.793 832.093 155.742 831.804 155.742ZM844.087 168.669C846.153 168.669 847.187 167.573 847.187 165.383C847.187 164.349 846.939 163.574 846.443 163.058C845.967 162.541 845.182 162.283 844.087 162.283H843.839C843.57 162.283 843.219 162.314 842.785 162.376C842.785 165.538 842.795 167.615 842.816 168.607C843.146 168.648 843.57 168.669 844.087 168.669ZM842.785 160.764C843.694 160.619 844.583 160.547 845.451 160.547H846.009C847.889 160.547 849.305 160.95 850.256 161.756C851.206 162.562 851.682 163.595 851.682 164.856C851.682 166.509 851.051 167.842 849.791 168.855C848.53 169.847 846.928 170.343 844.986 170.343C844.758 170.343 844.19 170.322 843.281 170.281C842.371 170.26 841.607 170.25 840.987 170.25H836.244C836.182 169.692 836.182 169.165 836.244 168.669L838.29 168.576C838.372 167.15 838.414 165.135 838.414 162.531C838.414 159.472 838.393 157.209 838.352 155.742L836.151 155.649C836.109 155.132 836.109 154.605 836.151 154.068C838.486 154.088 840.057 154.099 840.863 154.099C841.214 154.099 842.02 154.099 843.281 154.099C844.562 154.078 845.306 154.068 845.513 154.068C845.575 154.626 845.575 155.153 845.513 155.649L842.878 155.742C842.816 156.961 842.785 158.635 842.785 160.764Z" fill="#FF3E96"/>
<path d="M394.445 12.0989C393.577 12.0989 392.874 12.6259 392.337 13.6799C391.8 14.7132 391.531 16.0256 391.531 17.6169L396.925 17.4309C396.966 13.8762 396.14 12.0989 394.445 12.0989ZM396.987 24.9949C398.165 24.9949 399.405 24.6642 400.707 24.0029L401.203 25.4289C400.976 25.5736 400.655 25.7596 400.242 25.9869C399.849 26.1936 399.095 26.4726 397.979 26.8239C396.884 27.1752 395.871 27.3509 394.941 27.3509C392.482 27.3509 390.529 26.6586 389.082 25.2739C387.656 23.8686 386.943 21.9982 386.943 19.6629C386.943 16.8316 387.666 14.5789 389.113 12.9049C390.58 11.2309 392.502 10.3939 394.879 10.3939C396.181 10.3939 397.297 10.6522 398.227 11.1689C399.178 11.6856 399.88 12.3676 400.335 13.2149C400.81 14.0622 401.151 14.9199 401.358 15.7879C401.565 16.6352 401.668 17.5136 401.668 18.4229V19.0119H391.562C391.686 20.7479 392.192 22.1842 393.081 23.3209C393.97 24.4369 395.272 24.9949 396.987 24.9949ZM411.284 12.5019C410.23 12.5019 409.424 13.0082 408.866 14.0209C408.308 15.0336 408.029 16.2839 408.029 17.7719C408.029 19.7972 408.473 21.5126 409.362 22.9179C410.271 24.3026 411.563 24.9949 413.237 24.9949C414.167 24.9949 415.262 24.6952 416.523 24.0959L416.957 25.3669C416.771 25.5116 416.512 25.6976 416.182 25.9249C415.851 26.1316 415.169 26.4209 414.136 26.7929C413.123 27.1649 412.11 27.3509 411.098 27.3509C408.824 27.3509 406.985 26.6379 405.58 25.2119C404.195 23.7652 403.503 21.8329 403.503 19.4149C403.503 16.5629 404.309 14.3516 405.921 12.7809C407.553 11.1896 409.579 10.3939 411.997 10.3939C413.278 10.3939 414.404 10.6316 415.376 11.1069C416.347 11.5616 417.06 12.0886 417.515 12.6879C416.977 13.4939 416.223 14.2689 415.252 15.0129C415.21 14.9509 415.138 14.8682 415.035 14.7649C414.952 14.6409 414.776 14.4342 414.508 14.1449C414.239 13.8556 413.95 13.6076 413.64 13.4009C413.35 13.1736 412.989 12.9669 412.555 12.7809C412.121 12.5949 411.697 12.5019 411.284 12.5019ZM430.666 12.5019L428.341 12.5019C428.279 13.9486 428.248 16.0876 428.248 18.9189C428.248 20.3449 428.269 22.4839 428.31 25.3359L430.852 25.4289C430.914 25.9456 430.914 26.4726 430.852 27.0099C428.517 26.9892 426.946 26.9789 426.14 26.9789C425.789 26.9789 424.941 26.9892 423.598 27.0099C422.255 27.0099 421.48 27.0099 421.273 27.0099C421.232 26.4519 421.232 25.9249 421.273 25.4289L423.691 25.3359C423.774 23.9099 423.815 21.7709 423.815 18.9189C423.815 16.0876 423.794 13.9382 423.753 12.4709L421.397 12.5019C420.963 12.5226 420.715 12.7189 420.653 13.0909L420.219 16.5939C420.074 16.6146 419.723 16.6249 419.165 16.6249C418.607 16.6249 418.245 16.6146 418.08 16.5939V10.6419L420.529 10.8279L431.565 10.8279L434.014 10.6419V16.5939C433.849 16.6146 433.487 16.6249 432.929 16.6249C432.371 16.6249 432.02 16.6146 431.875 16.5939L431.441 13.0909C431.4 12.8842 431.327 12.7396 431.224 12.6569C431.141 12.5536 430.955 12.5019 430.666 12.5019ZM442.701 12.0989C441.833 12.0989 441.13 12.6259 440.593 13.6799C440.056 14.7132 439.787 16.0256 439.787 17.6169L445.181 17.4309C445.222 13.8762 444.396 12.0989 442.701 12.0989ZM445.243 24.9949C446.421 24.9949 447.661 24.6642 448.963 24.0029L449.459 25.4289C449.232 25.5736 448.911 25.7596 448.498 25.9869C448.105 26.1936 447.351 26.4726 446.235 26.8239C445.14 27.1752 444.127 27.3509 443.197 27.3509C440.738 27.3509 438.785 26.6586 437.338 25.2739C435.912 23.8686 435.199 21.9982 435.199 19.6629C435.199 16.8316 435.922 14.5789 437.369 12.9049C438.836 11.2309 440.758 10.3939 443.135 10.3939C444.437 10.3939 445.553 10.6522 446.483 11.1689C447.434 11.6856 448.136 12.3676 448.591 13.2149C449.066 14.0622 449.407 14.9199 449.614 15.7879C449.821 16.6352 449.924 17.5136 449.924 18.4229V19.0119H439.818C439.942 20.7479 440.448 22.1842 441.337 23.3209C442.226 24.4369 443.528 24.9949 445.243 24.9949ZM459.539 12.5019C458.485 12.5019 457.679 13.0082 457.121 14.0209C456.563 15.0336 456.284 16.2839 456.284 17.7719C456.284 19.7972 456.729 21.5126 457.617 22.9179C458.527 24.3026 459.818 24.9949 461.492 24.9949C462.422 24.9949 463.518 24.6952 464.778 24.0959L465.212 25.3669C465.026 25.5116 464.768 25.6976 464.437 25.9249C464.107 26.1316 463.425 26.4209 462.391 26.7929C461.379 27.1649 460.366 27.3509 459.353 27.3509C457.08 27.3509 455.241 26.6379 453.835 25.2119C452.451 23.7652 451.758 21.8329 451.758 19.4149C451.758 16.5629 452.564 14.3516 454.176 12.7809C455.809 11.1896 457.834 10.3939 460.252 10.3939C461.534 10.3939 462.66 10.6316 463.631 11.1069C464.603 11.5616 465.316 12.0886 465.77 12.6879C465.233 13.4939 464.479 14.2689 463.507 15.0129C463.466 14.9509 463.394 14.8682 463.29 14.7649C463.208 14.6409 463.032 14.4342 462.763 14.1449C462.495 13.8556 462.205 13.6076 461.895 13.4009C461.606 13.1736 461.244 12.9669 460.81 12.7809C460.376 12.5949 459.953 12.5019 459.539 12.5019ZM478.922 12.5019H476.597C476.535 13.9486 476.504 16.0876 476.504 18.9189C476.504 20.3449 476.524 22.4839 476.566 25.3359L479.108 25.4289C479.17 25.9456 479.17 26.4726 479.108 27.0099C476.772 26.9892 475.202 26.9789 474.396 26.9789C474.044 26.9789 473.197 26.9892 471.854 27.0099C470.51 27.0099 469.735 27.0099 469.529 27.0099C469.487 26.4519 469.487 25.9249 469.529 25.4289L471.947 25.3359C472.029 23.9099 472.071 21.7709 472.071 18.9189C472.071 16.0876 472.05 13.9382 472.009 12.4709L469.653 12.5019C469.219 12.5226 468.971 12.7189 468.909 13.0909L468.475 16.5939C468.33 16.6146 467.979 16.6249 467.421 16.6249C466.863 16.6249 466.501 16.6146 466.336 16.5939V10.6419L468.785 10.8279H479.821L482.27 10.6419V16.5939C482.104 16.6146 481.743 16.6249 481.185 16.6249C480.627 16.6249 480.275 16.6146 480.131 16.5939L479.697 13.0909C479.655 12.8842 479.583 12.7396 479.48 12.6569C479.397 12.5536 479.211 12.5019 478.922 12.5019ZM488.508 27.0099H483.331C483.31 26.4932 483.31 25.9662 483.331 25.4289L485.439 25.3359C485.521 23.9099 485.563 21.8122 485.563 19.0429C485.563 16.1496 485.542 13.9692 485.501 12.5019L483.3 12.4089C483.238 11.8922 483.238 11.3652 483.3 10.8279C485.883 10.8486 487.578 10.8589 488.384 10.8589L492.383 10.8279C494.284 10.8072 495.72 11.1482 496.692 11.8509C497.684 12.5329 498.18 13.5042 498.18 14.7649C498.18 15.8189 497.849 16.6456 497.188 17.2449C496.547 17.8442 495.762 18.2576 494.832 18.4849C495.369 18.5469 495.834 18.6296 496.227 18.7329C496.64 18.8362 497.074 19.0119 497.529 19.2599C498.004 19.5079 498.366 19.8799 498.614 20.3759C498.882 20.8719 499.017 21.4712 499.017 22.1739C499.017 23.6206 498.417 24.8089 497.219 25.7389C496.02 26.6482 494.398 27.1029 492.352 27.1029C492 27.1029 491.349 27.0822 490.399 27.0409C489.469 27.0202 488.838 27.0099 488.508 27.0099ZM491.391 25.4289C492.403 25.4289 493.178 25.1912 493.716 24.7159C494.274 24.2199 494.553 23.3622 494.553 22.1429C494.553 21.3369 494.274 20.6859 493.716 20.1899C493.158 19.6939 492.341 19.4459 491.267 19.4459H490.74C490.492 19.4459 490.223 19.4666 489.934 19.5079C489.934 22.4219 489.944 24.3749 489.965 25.3669C490.461 25.4082 490.936 25.4289 491.391 25.4289ZM490.926 12.5019H489.996C489.954 13.5352 489.934 15.3332 489.934 17.8959C490.078 17.9166 490.316 17.9269 490.647 17.9269H491.205C492.011 17.9269 492.641 17.6789 493.096 17.1829C493.571 16.6869 493.809 16.0772 493.809 15.3539C493.809 14.2586 493.592 13.5146 493.158 13.1219C492.744 12.7086 492 12.5019 490.926 12.5019ZM508.152 12.0989C507.284 12.0989 506.581 12.6259 506.044 13.6799C505.507 14.7132 505.238 16.0256 505.238 17.6169L510.632 17.4309C510.673 13.8762 509.847 12.0989 508.152 12.0989ZM510.694 24.9949C511.872 24.9949 513.112 24.6642 514.414 24.0029L514.91 25.4289C514.683 25.5736 514.362 25.7596 513.949 25.9869C513.556 26.1936 512.802 26.4726 511.686 26.8239C510.591 27.1752 509.578 27.3509 508.648 27.3509C506.189 27.3509 504.236 26.6586 502.789 25.2739C501.363 23.8686 500.65 21.9982 500.65 19.6629C500.65 16.8316 501.373 14.5789 502.82 12.9049C504.287 11.2309 506.209 10.3939 508.586 10.3939C509.888 10.3939 511.004 10.6522 511.934 11.1689C512.885 11.6856 513.587 12.3676 514.042 13.2149C514.517 14.0622 514.858 14.9199 515.065 15.7879C515.272 16.6352 515.375 17.5136 515.375 18.4229V19.0119H505.269C505.393 20.7479 505.899 22.1842 506.788 23.3209C507.677 24.4369 508.979 24.9949 510.694 24.9949ZM519.287 18.9189C519.287 16.1082 519.266 13.9692 519.225 12.5019L517.024 12.4089C516.982 11.8922 516.982 11.3652 517.024 10.8279C519.214 10.8486 520.713 10.8589 521.519 10.8589C521.87 10.8589 522.593 10.8589 523.689 10.8589C524.784 10.8382 525.435 10.8279 525.642 10.8279C525.662 11.3859 525.662 11.9129 525.642 12.4089L523.782 12.5019C523.74 13.6592 523.72 15.4469 523.72 17.8649C523.864 17.8649 524.226 17.8752 524.805 17.8959C525.383 17.8959 525.879 17.8959 526.293 17.8959C527.657 17.8959 528.576 17.8856 529.052 17.8649C529.052 15.5089 529.041 13.7212 529.021 12.5019L527.068 12.4089C527.026 11.8922 527.026 11.3652 527.068 10.8279C529.031 10.8486 530.416 10.8589 531.222 10.8589C531.573 10.8589 532.348 10.8589 533.547 10.8589C534.766 10.8382 535.479 10.8279 535.686 10.8279C535.706 11.3859 535.706 11.9129 535.686 12.4089L533.609 12.5019C533.526 13.9279 533.485 16.0566 533.485 18.8879C533.485 21.7192 533.505 23.8686 533.547 25.3359L535.717 25.4289C535.758 25.9456 535.758 26.4726 535.717 27.0099C533.671 26.9892 532.245 26.9789 531.439 26.9789C531.087 26.9789 530.323 26.9892 529.145 27.0099C527.987 27.0099 527.305 27.0099 527.099 27.0099C527.057 26.4519 527.057 25.9249 527.099 25.4289L528.959 25.3359C529.021 24.1786 529.052 22.2566 529.052 19.5699C528.886 19.5699 528.483 19.5699 527.843 19.5699C527.223 19.5492 526.696 19.5389 526.262 19.5389C525.848 19.5389 525.352 19.5492 524.774 19.5699C524.216 19.5699 523.864 19.5699 523.72 19.5699C523.72 22.7939 523.73 24.7159 523.751 25.3359L525.673 25.4289C525.714 25.9456 525.714 26.4726 525.673 27.0099C523.751 26.9892 522.387 26.9789 521.581 26.9789C521.229 26.9789 520.444 26.9892 519.225 27.0099C518.005 27.0099 517.292 27.0099 517.086 27.0099C517.065 26.4519 517.065 25.9249 517.086 25.4289L519.163 25.3359C519.245 23.9099 519.287 21.7709 519.287 18.9189ZM539.449 18.9189C539.449 16.1082 539.428 13.9692 539.387 12.5019L537.186 12.4089C537.144 11.8922 537.144 11.3652 537.186 10.8279C539.376 10.8486 540.875 10.8589 541.681 10.8589C542.032 10.8589 542.755 10.8589 543.851 10.8589C544.946 10.8382 545.597 10.8279 545.804 10.8279C545.824 11.3859 545.824 11.9129 545.804 12.4089L543.944 12.5019C543.902 13.6592 543.882 15.4469 543.882 17.8649C544.026 17.8649 544.388 17.8752 544.967 17.8959C545.545 17.8959 546.041 17.8959 546.455 17.8959C547.819 17.8959 548.738 17.8856 549.214 17.8649C549.214 15.5089 549.203 13.7212 549.183 12.5019L547.23 12.4089C547.188 11.8922 547.188 11.3652 547.23 10.8279C549.193 10.8486 550.578 10.8589 551.384 10.8589C551.735 10.8589 552.51 10.8589 553.709 10.8589C554.928 10.8382 555.641 10.8279 555.848 10.8279C555.868 11.3859 555.868 11.9129 555.848 12.4089L553.771 12.5019C553.688 13.9279 553.647 16.0566 553.647 18.8879C553.647 21.7192 553.667 23.8686 553.709 25.3359L555.879 25.4289C555.92 25.9456 555.92 26.4726 555.879 27.0099C553.833 26.9892 552.407 26.9789 551.601 26.9789C551.249 26.9789 550.485 26.9892 549.307 27.0099C548.149 27.0099 547.467 27.0099 547.261 27.0099C547.219 26.4519 547.219 25.9249 547.261 25.4289L549.121 25.3359C549.183 24.1786 549.214 22.2566 549.214 19.5699C549.048 19.5699 548.645 19.5699 548.005 19.5699C547.385 19.5492 546.858 19.5389 546.424 19.5389C546.01 19.5389 545.514 19.5492 544.936 19.5699C544.378 19.5699 544.026 19.5699 543.882 19.5699C543.882 22.7939 543.892 24.7159 543.913 25.3359L545.835 25.4289C545.876 25.9456 545.876 26.4726 545.835 27.0099C543.913 26.9892 542.549 26.9789 541.743 26.9789C541.391 26.9789 540.606 26.9892 539.387 27.0099C538.167 27.0099 537.454 27.0099 537.248 27.0099C537.227 26.4519 537.227 25.9249 537.248 25.4289L539.325 25.3359C539.407 23.9099 539.449 21.7709 539.449 18.9189ZM565.284 27.3199C562.928 27.3199 561.047 26.5759 559.642 25.0879C558.237 23.5792 557.534 21.6159 557.534 19.1979C557.534 16.6559 558.299 14.5582 559.828 12.9049C561.378 11.2309 563.331 10.3939 565.687 10.3939C568.126 10.3939 570.058 11.1379 571.484 12.6259C572.91 14.0932 573.623 16.0359 573.623 18.4539C573.623 21.0166 572.879 23.1349 571.391 24.8089C569.924 26.4829 567.888 27.3199 565.284 27.3199ZM565.439 25.5839C567.878 25.5839 569.097 23.4036 569.097 19.0429C569.097 17.0382 568.787 15.3952 568.167 14.1139C567.568 12.8326 566.689 12.1919 565.532 12.1919C563.217 12.1919 562.06 14.3412 562.06 18.6399C562.06 19.7352 562.163 20.7892 562.37 21.8019C562.597 22.8146 562.98 23.7032 563.517 24.4679C564.054 25.2119 564.695 25.5839 565.439 25.5839ZM583.206 12.5019C582.152 12.5019 581.346 13.0082 580.788 14.0209C580.23 15.0336 579.951 16.2839 579.951 17.7719C579.951 19.7972 580.396 21.5126 581.284 22.9179C582.194 24.3026 583.485 24.9949 585.159 24.9949C586.089 24.9949 587.185 24.6952 588.445 24.0959L588.879 25.3669C588.693 25.5116 588.435 25.6976 588.104 25.9249C587.774 26.1316 587.092 26.4209 586.058 26.7929C585.046 27.1649 584.033 27.3509 583.02 27.3509C580.747 27.3509 578.908 26.6379 577.502 25.2119C576.118 23.7652 575.425 21.8329 575.425 19.4149C575.425 16.5629 576.231 14.3516 577.843 12.7809C579.476 11.1896 581.501 10.3939 583.919 10.3939C585.201 10.3939 586.327 10.6316 587.298 11.1069C588.27 11.5616 588.983 12.0886 589.437 12.6879C588.9 13.4939 588.146 14.2689 587.174 15.0129C587.133 14.9509 587.061 14.8682 586.957 14.7649C586.875 14.6409 586.699 14.4342 586.43 14.1449C586.162 13.8556 585.872 13.6076 585.562 13.4009C585.273 13.1736 584.911 12.9669 584.477 12.7809C584.043 12.5949 583.62 12.5019 583.206 12.5019ZM602.589 12.5019H600.264C600.202 13.9486 600.171 16.0876 600.171 18.9189C600.171 20.3449 600.191 22.4839 600.233 25.3359L602.775 25.4289C602.837 25.9456 602.837 26.4726 602.775 27.0099C600.439 26.9892 598.869 26.9789 598.063 26.9789C597.711 26.9789 596.864 26.9892 595.521 27.0099C594.177 27.0099 593.402 27.0099 593.196 27.0099C593.154 26.4519 593.154 25.9249 593.196 25.4289L595.614 25.3359C595.696 23.9099 595.738 21.7709 595.738 18.9189C595.738 16.0876 595.717 13.9382 595.676 12.4709L593.32 12.5019C592.886 12.5226 592.638 12.7189 592.576 13.0909L592.142 16.5939C591.997 16.6146 591.646 16.6249 591.088 16.6249C590.53 16.6249 590.168 16.6146 590.003 16.5939V10.6419L592.452 10.8279H603.488L605.937 10.6419V16.5939C605.771 16.6146 605.41 16.6249 604.852 16.6249C604.294 16.6249 603.942 16.6146 603.798 16.5939L603.364 13.0909C603.322 12.8842 603.25 12.7396 603.147 12.6569C603.064 12.5536 602.878 12.5019 602.589 12.5019ZM614.872 25.4289C616.938 25.4289 617.972 24.3336 617.972 22.1429C617.972 21.1096 617.724 20.3346 617.228 19.8179C616.752 19.3012 615.967 19.0429 614.872 19.0429H614.624C614.355 19.0429 614.004 19.0739 613.57 19.1359C613.57 22.2979 613.58 24.3749 613.601 25.3669C613.931 25.4082 614.355 25.4289 614.872 25.4289ZM613.57 17.5239C614.479 17.3792 615.368 17.3069 616.236 17.3069H616.794C618.674 17.3069 620.09 17.7099 621.041 18.5159C621.991 19.3219 622.467 20.3552 622.467 21.6159C622.467 23.2692 621.836 24.6022 620.576 25.6149C619.315 26.6069 617.713 27.1029 615.771 27.1029C615.543 27.1029 614.975 27.0822 614.066 27.0409C613.156 27.0202 612.392 27.0099 611.772 27.0099H607.029C606.967 26.4519 606.967 25.9249 607.029 25.4289L609.075 25.3359C609.157 23.9099 609.199 21.8949 609.199 19.2909C609.199 16.2322 609.178 13.9692 609.137 12.5019L606.936 12.4089C606.894 11.8922 606.894 11.3652 606.936 10.8279C609.271 10.8486 610.842 10.8589 611.648 10.8589C611.999 10.8589 612.805 10.8589 614.066 10.8589C615.347 10.8382 616.091 10.8279 616.298 10.8279C616.36 11.3859 616.36 11.9129 616.298 12.4089L613.663 12.5019C613.601 13.7212 613.57 15.3952 613.57 17.5239Z" fill="#FF3E96"/>
<path d="M408.796 170.25H403.619C403.598 169.733 403.598 169.206 403.619 168.669L405.727 168.576C405.809 167.15 405.851 165.052 405.851 162.283C405.851 159.389 405.83 157.209 405.789 155.742L403.588 155.649C403.526 155.132 403.526 154.605 403.588 154.068C406.171 154.088 407.866 154.099 408.672 154.099L412.671 154.068C414.572 154.047 416.008 154.388 416.98 155.091C417.972 155.773 418.468 156.744 418.468 158.005C418.468 159.059 418.137 159.885 417.476 160.485C416.835 161.084 416.05 161.497 415.12 161.725C415.657 161.787 416.122 161.869 416.515 161.973C416.928 162.076 417.362 162.252 417.817 162.5C418.292 162.748 418.654 163.12 418.902 163.616C419.17 164.112 419.305 164.711 419.305 165.414C419.305 166.86 418.705 168.049 417.507 168.979C416.308 169.888 414.686 170.343 412.64 170.343C412.288 170.343 411.637 170.322 410.687 170.281C409.757 170.26 409.126 170.25 408.796 170.25ZM411.679 168.669C412.691 168.669 413.466 168.431 414.004 167.956C414.562 167.46 414.841 166.602 414.841 165.383C414.841 164.577 414.562 163.926 414.004 163.43C413.446 162.934 412.629 162.686 411.555 162.686H411.028C410.78 162.686 410.511 162.706 410.222 162.748C410.222 165.662 410.232 167.615 410.253 168.607C410.749 168.648 411.224 168.669 411.679 168.669ZM411.214 155.742H410.284C410.242 156.775 410.222 158.573 410.222 161.136C410.366 161.156 410.604 161.167 410.935 161.167H411.493C412.299 161.167 412.929 160.919 413.384 160.423C413.859 159.927 414.097 159.317 414.097 158.594C414.097 157.498 413.88 156.754 413.446 156.362C413.032 155.948 412.288 155.742 411.214 155.742ZM428.688 170.56C426.332 170.56 424.451 169.816 423.046 168.328C421.641 166.819 420.938 164.856 420.938 162.438C420.938 159.896 421.703 157.798 423.232 156.145C424.782 154.471 426.735 153.634 429.091 153.634C431.53 153.634 433.462 154.378 434.888 155.866C436.314 157.333 437.027 159.276 437.027 161.694C437.027 164.256 436.283 166.375 434.795 168.049C433.328 169.723 431.292 170.56 428.688 170.56ZM428.843 168.824C431.282 168.824 432.501 166.643 432.501 162.283C432.501 160.278 432.191 158.635 431.571 157.354C430.972 156.072 430.093 155.432 428.936 155.432C426.621 155.432 425.464 157.581 425.464 161.88C425.464 162.975 425.567 164.029 425.774 165.042C426.001 166.054 426.384 166.943 426.921 167.708C427.458 168.452 428.099 168.824 428.843 168.824ZM446.611 155.742C445.557 155.742 444.751 156.248 444.193 157.261C443.635 158.273 443.356 159.524 443.356 161.012C443.356 163.037 443.8 164.752 444.689 166.158C445.598 167.542 446.89 168.235 448.564 168.235C449.494 168.235 450.589 167.935 451.85 167.336L452.284 168.607C452.098 168.751 451.839 168.937 451.509 169.165C451.178 169.371 450.496 169.661 449.463 170.033C448.45 170.405 447.437 170.591 446.425 170.591C444.151 170.591 442.312 169.878 440.907 168.452C439.522 167.005 438.83 165.073 438.83 162.655C438.83 159.803 439.636 157.591 441.248 156.021C442.88 154.429 444.906 153.634 447.324 153.634C448.605 153.634 449.731 153.871 450.703 154.347C451.674 154.801 452.387 155.328 452.842 155.928C452.304 156.734 451.55 157.509 450.579 158.253C450.537 158.191 450.465 158.108 450.362 158.005C450.279 157.881 450.103 157.674 449.835 157.385C449.566 157.095 449.277 156.847 448.967 156.641C448.677 156.413 448.316 156.207 447.882 156.021C447.448 155.835 447.024 155.742 446.611 155.742ZM465.993 155.742H463.668C463.606 157.188 463.575 159.327 463.575 162.159C463.575 163.585 463.596 165.724 463.637 168.576L466.179 168.669C466.241 169.185 466.241 169.712 466.179 170.25C463.844 170.229 462.273 170.219 461.467 170.219C461.116 170.219 460.268 170.229 458.925 170.25C457.582 170.25 456.807 170.25 456.6 170.25C456.559 169.692 456.559 169.165 456.6 168.669L459.018 168.576C459.101 167.15 459.142 165.011 459.142 162.159C459.142 159.327 459.121 157.178 459.08 155.711L456.724 155.742C456.29 155.762 456.042 155.959 455.98 156.331L455.546 159.834C455.401 159.854 455.05 159.865 454.492 159.865C453.934 159.865 453.572 159.854 453.407 159.834V153.882L455.856 154.068H466.892L469.341 153.882V159.834C469.176 159.854 468.814 159.865 468.256 159.865C467.698 159.865 467.347 159.854 467.202 159.834L466.768 156.331C466.727 156.124 466.654 155.979 466.551 155.897C466.468 155.793 466.282 155.742 465.993 155.742ZM478.276 170.56C475.92 170.56 474.039 169.816 472.634 168.328C471.229 166.819 470.526 164.856 470.526 162.438C470.526 159.896 471.291 157.798 472.82 156.145C474.37 154.471 476.323 153.634 478.679 153.634C481.118 153.634 483.05 154.378 484.476 155.866C485.902 157.333 486.615 159.276 486.615 161.694C486.615 164.256 485.871 166.375 484.383 168.049C482.916 169.723 480.88 170.56 478.276 170.56ZM478.431 168.824C480.87 168.824 482.089 166.643 482.089 162.283C482.089 160.278 481.779 158.635 481.159 157.354C480.56 156.072 479.681 155.432 478.524 155.432C476.209 155.432 475.052 157.581 475.052 161.88C475.052 162.975 475.155 164.029 475.362 165.042C475.589 166.054 475.972 166.943 476.509 167.708C477.046 168.452 477.687 168.824 478.431 168.824ZM498.245 177.628C495.186 177.607 493.254 177.597 492.448 177.597C492.386 177.597 491.89 177.597 490.96 177.597C490.03 177.617 489.048 177.628 488.015 177.628C487.994 177.09 487.994 176.584 488.015 176.109L489.937 175.985C489.978 175.323 490.019 171.955 490.061 165.879C490.061 165.362 490.061 164.566 490.061 163.492C490.081 162.417 490.092 161.621 490.092 161.105C490.092 159.203 490.071 157.612 490.03 156.331L487.953 155.68C487.911 155.225 487.911 154.76 487.953 154.285C488.077 154.264 489.172 154.171 491.239 154.006C493.305 153.82 494.401 153.727 494.525 153.727L494.401 155.804C495.703 154.357 497.098 153.634 498.586 153.634C500.466 153.634 501.944 154.409 503.019 155.959C504.114 157.488 504.662 159.327 504.662 161.477C504.662 164.267 503.804 166.478 502.089 168.111C500.394 169.743 498.296 170.56 495.796 170.56C495.32 170.56 494.876 170.529 494.463 170.467C494.463 173.236 494.473 175.044 494.494 175.892L498.245 176.047C498.286 176.439 498.286 176.966 498.245 177.628ZM494.494 163.833C494.494 164.184 494.483 164.835 494.463 165.786C494.463 166.736 494.463 167.491 494.463 168.049C494.917 168.545 495.496 168.793 496.199 168.793C497.397 168.793 498.338 168.224 499.02 167.088C499.722 165.951 500.074 164.494 500.074 162.717C500.074 160.857 499.774 159.348 499.175 158.191C498.575 157.013 497.645 156.424 496.385 156.424C495.765 156.424 495.134 156.579 494.494 156.889V163.833ZM510.739 154.099L516.908 154.068L519.357 153.882C519.357 154.192 519.368 155.235 519.388 157.013C519.43 158.769 519.45 159.73 519.45 159.896C519.285 159.916 518.913 159.927 518.334 159.927C517.797 159.927 517.456 159.916 517.311 159.896L516.753 156.393C516.691 156 516.433 155.804 515.978 155.804L513.064 155.742C512.982 157.664 512.94 159.803 512.94 162.159C512.94 163.585 512.961 165.724 513.002 168.576L515.978 168.669C516.04 169.185 516.04 169.712 515.978 170.25C513.354 170.229 511.638 170.219 510.832 170.219C510.481 170.219 509.685 170.229 508.445 170.25C507.226 170.25 506.513 170.25 506.306 170.25C506.286 169.692 506.286 169.165 506.306 168.669L508.414 168.576C508.497 167.15 508.538 165.011 508.538 162.159C508.538 159.348 508.518 157.209 508.476 155.742L506.275 155.649C506.234 154.946 506.234 154.419 506.275 154.068C508.445 154.088 509.933 154.099 510.739 154.099Z" fill="#FF3E96"/>
<path d="M161.101 162.159C161.101 159.348 161.081 157.209 161.039 155.742L158.838 155.649C158.797 155.132 158.797 154.605 158.838 154.068C161.029 154.088 162.527 154.099 163.333 154.099C163.685 154.099 164.408 154.099 165.503 154.099C166.599 154.078 167.25 154.068 167.456 154.068C167.477 154.626 167.477 155.153 167.456 155.649L165.596 155.742C165.555 156.899 165.534 158.687 165.534 161.105C165.679 161.105 166.041 161.115 166.619 161.136C167.198 161.136 167.694 161.136 168.107 161.136C169.471 161.136 170.391 161.125 170.866 161.105C170.866 158.749 170.856 156.961 170.835 155.742L168.882 155.649C168.841 155.132 168.841 154.605 168.882 154.068C170.846 154.088 172.23 154.099 173.036 154.099C173.388 154.099 174.163 154.099 175.361 154.099C176.581 154.078 177.294 154.068 177.5 154.068C177.521 154.626 177.521 155.153 177.5 155.649L175.423 155.742C175.341 157.168 175.299 159.296 175.299 162.128C175.299 164.959 175.32 167.108 175.361 168.576L177.531 168.669C177.573 169.185 177.573 169.712 177.531 170.25C175.485 170.229 174.059 170.219 173.253 170.219C172.902 170.219 172.137 170.229 170.959 170.25C169.802 170.25 169.12 170.25 168.913 170.25C168.872 169.692 168.872 169.165 168.913 168.669L170.773 168.576C170.835 167.418 170.866 165.496 170.866 162.81C170.701 162.81 170.298 162.81 169.657 162.81C169.037 162.789 168.51 162.779 168.076 162.779C167.663 162.779 167.167 162.789 166.588 162.81C166.03 162.81 165.679 162.81 165.534 162.81C165.534 166.034 165.545 167.956 165.565 168.576L167.487 168.669C167.529 169.185 167.529 169.712 167.487 170.25C165.565 170.229 164.201 170.219 163.395 170.219C163.044 170.219 162.259 170.229 161.039 170.25C159.82 170.25 159.107 170.25 158.9 170.25C158.88 169.692 158.88 169.165 158.9 168.669L160.977 168.576C161.06 167.15 161.101 165.011 161.101 162.159ZM186.688 155.339C185.82 155.339 185.118 155.866 184.58 156.92C184.043 157.953 183.774 159.265 183.774 160.857L189.168 160.671C189.21 157.116 188.383 155.339 186.688 155.339ZM189.23 168.235C190.408 168.235 191.648 167.904 192.95 167.243L193.446 168.669C193.219 168.813 192.899 168.999 192.485 169.227C192.093 169.433 191.338 169.712 190.222 170.064C189.127 170.415 188.114 170.591 187.184 170.591C184.725 170.591 182.772 169.898 181.325 168.514C179.899 167.108 179.186 165.238 179.186 162.903C179.186 160.071 179.91 157.819 181.356 156.145C182.824 154.471 184.746 153.634 187.122 153.634C188.424 153.634 189.54 153.892 190.47 154.409C191.421 154.925 192.124 155.607 192.578 156.455C193.054 157.302 193.395 158.16 193.601 159.028C193.808 159.875 193.911 160.753 193.911 161.663V162.252H183.805C183.929 163.988 184.436 165.424 185.324 166.561C186.213 167.677 187.515 168.235 189.23 168.235ZM214.069 168.669L215.464 168.638L210.907 161.973L215.898 155.742L213.666 155.618C213.645 155.287 213.645 154.77 213.666 154.068C214.1 154.068 214.761 154.078 215.65 154.099C216.559 154.099 217.097 154.099 217.262 154.099L221.137 154.068C221.178 154.481 221.178 155.008 221.137 155.649L218.781 155.835L214.348 160.547L220.393 168.607L221.85 168.669C221.891 169.185 221.891 169.723 221.85 170.281C220.155 170.239 218.905 170.219 218.099 170.219C217.438 170.219 216.632 170.229 215.681 170.25C214.751 170.25 214.214 170.25 214.069 170.25C214.028 169.836 214.028 169.309 214.069 168.669ZM210.38 162.221C210.38 165.197 210.39 167.315 210.411 168.576L212.116 168.669C212.157 169.185 212.157 169.712 212.116 170.25C210.38 170.229 209.109 170.219 208.303 170.219C207.952 170.219 207.228 170.229 206.133 170.25C205.058 170.25 204.418 170.25 204.211 170.25C204.19 169.692 204.19 169.165 204.211 168.669L205.947 168.576C206.03 167.15 206.071 165.011 206.071 162.159C206.071 159.348 206.05 157.209 206.009 155.742L204.304 155.649C204.263 155.132 204.263 154.605 204.304 154.068C206.123 154.088 207.435 154.099 208.241 154.099C208.592 154.099 209.274 154.099 210.287 154.099C211.3 154.078 211.909 154.068 212.116 154.068C212.157 154.626 212.157 155.153 212.116 155.649L210.473 155.742C210.411 156.899 210.38 159.059 210.38 162.221ZM200.925 168.638L202.382 168.669C202.423 169.309 202.423 169.836 202.382 170.25C202.237 170.25 201.69 170.25 200.739 170.25C199.809 170.229 199.013 170.219 198.352 170.219L194.601 170.281C194.56 169.723 194.56 169.185 194.601 168.669L196.058 168.607L202.072 160.702L197.639 155.835L195.314 155.649C195.273 155.008 195.273 154.481 195.314 154.068C197.091 154.088 198.383 154.099 199.189 154.099C199.354 154.099 199.881 154.099 200.77 154.099C201.679 154.078 202.351 154.068 202.785 154.068C202.806 154.77 202.806 155.287 202.785 155.618L200.646 155.742L205.544 161.973L200.925 168.638ZM224.675 162.159C224.675 159.348 224.655 157.209 224.613 155.742L222.412 155.649C222.371 155.132 222.371 154.605 222.412 154.068C224.603 154.088 226.101 154.099 226.907 154.099C227.259 154.099 227.982 154.099 229.077 154.099C230.173 154.078 230.824 154.068 231.03 154.068C231.051 154.626 231.051 155.153 231.03 155.649L229.17 155.742C229.129 156.899 229.108 158.687 229.108 161.105C229.253 161.105 229.615 161.115 230.193 161.136C230.772 161.136 231.268 161.136 231.681 161.136C233.045 161.136 233.965 161.125 234.44 161.105C234.44 158.749 234.43 156.961 234.409 155.742L232.456 155.649C232.415 155.132 232.415 154.605 232.456 154.068C234.42 154.088 235.804 154.099 236.61 154.099C236.962 154.099 237.737 154.099 238.935 154.099C240.155 154.078 240.868 154.068 241.074 154.068C241.095 154.626 241.095 155.153 241.074 155.649L238.997 155.742C238.915 157.168 238.873 159.296 238.873 162.128C238.873 164.959 238.894 167.108 238.935 168.576L241.105 168.669C241.147 169.185 241.147 169.712 241.105 170.25C239.059 170.229 237.633 170.219 236.827 170.219C236.476 170.219 235.711 170.229 234.533 170.25C233.376 170.25 232.694 170.25 232.487 170.25C232.446 169.692 232.446 169.165 232.487 168.669L234.347 168.576C234.409 167.418 234.44 165.496 234.44 162.81C234.275 162.81 233.872 162.81 233.231 162.81C232.611 162.789 232.084 162.779 231.65 162.779C231.237 162.779 230.741 162.789 230.162 162.81C229.604 162.81 229.253 162.81 229.108 162.81C229.108 166.034 229.119 167.956 229.139 168.576L231.061 168.669C231.103 169.185 231.103 169.712 231.061 170.25C229.139 170.229 227.775 170.219 226.969 170.219C226.618 170.219 225.833 170.229 224.613 170.25C223.394 170.25 222.681 170.25 222.474 170.25C222.454 169.692 222.454 169.165 222.474 168.669L224.551 168.576C224.634 167.15 224.675 165.011 224.675 162.159ZM250.511 170.56C248.155 170.56 246.274 169.816 244.869 168.328C243.463 166.819 242.761 164.856 242.761 162.438C242.761 159.896 243.525 157.798 245.055 156.145C246.605 154.471 248.558 153.634 250.914 153.634C253.352 153.634 255.285 154.378 256.711 155.866C258.137 157.333 258.85 159.276 258.85 161.694C258.85 164.256 258.106 166.375 256.618 168.049C255.15 169.723 253.115 170.56 250.511 170.56ZM250.666 168.824C253.104 168.824 254.324 166.643 254.324 162.283C254.324 160.278 254.014 158.635 253.394 157.354C252.794 156.072 251.916 155.432 250.759 155.432C248.444 155.432 247.287 157.581 247.287 161.88C247.287 162.975 247.39 164.029 247.597 165.042C247.824 166.054 248.206 166.943 248.744 167.708C249.281 168.452 249.922 168.824 250.666 168.824ZM268.433 155.742C267.379 155.742 266.573 156.248 266.015 157.261C265.457 158.273 265.178 159.524 265.178 161.012C265.178 163.037 265.623 164.752 266.511 166.158C267.421 167.542 268.712 168.235 270.386 168.235C271.316 168.235 272.412 167.935 273.672 167.336L274.106 168.607C273.92 168.751 273.662 168.937 273.331 169.165C273.001 169.371 272.319 169.661 271.285 170.033C270.273 170.405 269.26 170.591 268.247 170.591C265.974 170.591 264.135 169.878 262.729 168.452C261.345 167.005 260.652 165.073 260.652 162.655C260.652 159.803 261.458 157.591 263.07 156.021C264.703 154.429 266.728 153.634 269.146 153.634C270.428 153.634 271.554 153.871 272.525 154.347C273.497 154.801 274.21 155.328 274.664 155.928C274.127 156.734 273.373 157.509 272.401 158.253C272.36 158.191 272.288 158.108 272.184 158.005C272.102 157.881 271.926 157.674 271.657 157.385C271.389 157.095 271.099 156.847 270.789 156.641C270.5 156.413 270.138 156.207 269.704 156.021C269.27 155.835 268.847 155.742 268.433 155.742ZM287.815 155.742H285.49C285.428 157.188 285.397 159.327 285.397 162.159C285.397 163.585 285.418 165.724 285.459 168.576L288.001 168.669C288.063 169.185 288.063 169.712 288.001 170.25C285.666 170.229 284.095 170.219 283.289 170.219C282.938 170.219 282.091 170.229 280.747 170.25C279.404 170.25 278.629 170.25 278.422 170.25C278.381 169.692 278.381 169.165 278.422 168.669L280.84 168.576C280.923 167.15 280.964 165.011 280.964 162.159C280.964 159.327 280.944 157.178 280.902 155.711L278.546 155.742C278.112 155.762 277.864 155.959 277.802 156.331L277.368 159.834C277.224 159.854 276.872 159.865 276.314 159.865C275.756 159.865 275.395 159.854 275.229 159.834V153.882L277.678 154.068H288.714L291.163 153.882V159.834C290.998 159.854 290.636 159.865 290.078 159.865C289.52 159.865 289.169 159.854 289.024 159.834L288.59 156.331C288.549 156.124 288.477 155.979 288.373 155.897C288.291 155.793 288.105 155.742 287.815 155.742ZM300.098 168.669C302.165 168.669 303.198 167.573 303.198 165.383C303.198 164.349 302.95 163.574 302.454 163.058C301.979 162.541 301.194 162.283 300.098 162.283H299.85C299.582 162.283 299.23 162.314 298.796 162.376C298.796 165.538 298.807 167.615 298.827 168.607C299.158 168.648 299.582 168.669 300.098 168.669ZM298.796 160.764C299.706 160.619 300.594 160.547 301.462 160.547H302.02C303.901 160.547 305.317 160.95 306.267 161.756C307.218 162.562 307.693 163.595 307.693 164.856C307.693 166.509 307.063 167.842 305.802 168.855C304.542 169.847 302.94 170.343 300.997 170.343C300.77 170.343 300.202 170.322 299.292 170.281C298.383 170.26 297.618 170.25 296.998 170.25H292.255C292.193 169.692 292.193 169.165 292.255 168.669L294.301 168.576C294.384 167.15 294.425 165.135 294.425 162.531C294.425 159.472 294.405 157.209 294.363 155.742L292.162 155.649C292.121 155.132 292.121 154.605 292.162 154.068C294.498 154.088 296.068 154.099 296.874 154.099C297.226 154.099 298.032 154.099 299.292 154.099C300.574 154.078 301.318 154.068 301.524 154.068C301.586 154.626 301.586 155.153 301.524 155.649L298.889 155.742C298.827 156.961 298.796 158.635 298.796 160.764Z" fill="#FF3E96"/>
<path d="M-149.543 12.0989C-150.411 12.0989 -151.114 12.6259 -151.651 13.6799C-152.189 14.7132 -152.457 16.0256 -152.457 17.6169L-147.063 17.4309C-147.022 13.8762 -147.849 12.0989 -149.543 12.0989ZM-147.001 24.9949C-145.823 24.9949 -144.583 24.6642 -143.281 24.0029L-142.785 25.4289C-143.013 25.5736 -143.333 25.7596 -143.746 25.9869C-144.139 26.1936 -144.893 26.4726 -146.009 26.8239C-147.105 27.1752 -148.117 27.3509 -149.047 27.3509C-151.507 27.3509 -153.46 26.6586 -154.906 25.2739C-156.332 23.8686 -157.045 21.9982 -157.045 19.6629C-157.045 16.8316 -156.322 14.5789 -154.875 12.9049C-153.408 11.2309 -151.486 10.3939 -149.109 10.3939C-147.807 10.3939 -146.691 10.6522 -145.761 11.1689C-144.811 11.6856 -144.108 12.3676 -143.653 13.2149C-143.178 14.0622 -142.837 14.9199 -142.63 15.7879C-142.424 16.6352 -142.32 17.5136 -142.32 18.4229V19.0119H-152.426C-152.302 20.7479 -151.796 22.1842 -150.907 23.3209C-150.019 24.4369 -148.717 24.9949 -147.001 24.9949ZM-132.705 12.5019C-133.759 12.5019 -134.565 13.0082 -135.123 14.0209C-135.681 15.0336 -135.96 16.2839 -135.96 17.7719C-135.96 19.7972 -135.515 21.5126 -134.627 22.9179C-133.717 24.3026 -132.426 24.9949 -130.752 24.9949C-129.822 24.9949 -128.726 24.6952 -127.466 24.0959L-127.032 25.3669C-127.218 25.5116 -127.476 25.6976 -127.807 25.9249C-128.137 26.1316 -128.819 26.4209 -129.853 26.7929C-130.865 27.1649 -131.878 27.3509 -132.891 27.3509C-135.164 27.3509 -137.003 26.6379 -138.409 25.2119C-139.793 23.7652 -140.486 21.8329 -140.486 19.4149C-140.486 16.5629 -139.68 14.3516 -138.068 12.7809C-136.435 11.1896 -134.41 10.3939 -131.992 10.3939C-130.71 10.3939 -129.584 10.6316 -128.613 11.1069C-127.641 11.5616 -126.928 12.0886 -126.474 12.6879C-127.011 13.4939 -127.765 14.2689 -128.737 15.0129C-128.778 14.9509 -128.85 14.8682 -128.954 14.7649C-129.036 14.6409 -129.212 14.4342 -129.481 14.1449C-129.749 13.8556 -130.039 13.6076 -130.349 13.4009C-130.638 13.1736 -131 12.9669 -131.434 12.7809C-131.868 12.5949 -132.291 12.5019 -132.705 12.5019ZM-113.322 12.5019L-115.647 12.5019C-115.709 13.9486 -115.74 16.0876 -115.74 18.9189C-115.74 20.3449 -115.72 22.4839 -115.678 25.3359L-113.136 25.4289C-113.074 25.9456 -113.074 26.4726 -113.136 27.0099C-115.472 26.9892 -117.042 26.9789 -117.848 26.9789C-118.2 26.9789 -119.047 26.9892 -120.39 27.0099C-121.734 27.0099 -122.509 27.0099 -122.715 27.0099C-122.757 26.4519 -122.757 25.9249 -122.715 25.4289L-120.297 25.3359C-120.215 23.9099 -120.173 21.7709 -120.173 18.9189C-120.173 16.0876 -120.194 13.9382 -120.235 12.4709L-122.591 12.5019C-123.025 12.5226 -123.273 12.7189 -123.335 13.0909L-123.769 16.5939C-123.914 16.6146 -124.265 16.6249 -124.823 16.6249C-125.381 16.6249 -125.743 16.6146 -125.908 16.5939V10.6419L-123.459 10.8279L-112.423 10.8279L-109.974 10.6419V16.5939C-110.14 16.6146 -110.501 16.6249 -111.059 16.6249C-111.617 16.6249 -111.969 16.6146 -112.113 16.5939L-112.547 13.0909C-112.589 12.8842 -112.661 12.7396 -112.764 12.6569C-112.847 12.5536 -113.033 12.5019 -113.322 12.5019ZM-101.287 12.0989C-102.155 12.0989 -102.858 12.6259 -103.395 13.6799C-103.933 14.7132 -104.201 16.0256 -104.201 17.6169L-98.8074 17.4309C-98.7661 13.8762 -99.5927 12.0989 -101.287 12.0989ZM-98.7454 24.9949C-97.5674 24.9949 -96.3274 24.6642 -95.0254 24.0029L-94.5294 25.4289C-94.7567 25.5736 -95.0771 25.7596 -95.4904 25.9869C-95.8831 26.1936 -96.6374 26.4726 -97.7534 26.8239C-98.8487 27.1752 -99.8614 27.3509 -100.791 27.3509C-103.251 27.3509 -105.204 26.6586 -106.65 25.2739C-108.076 23.8686 -108.789 21.9982 -108.789 19.6629C-108.789 16.8316 -108.066 14.5789 -106.619 12.9049C-105.152 11.2309 -103.23 10.3939 -100.853 10.3939C-99.5514 10.3939 -98.4354 10.6522 -97.5054 11.1689C-96.5547 11.6856 -95.8521 12.3676 -95.3974 13.2149C-94.9221 14.0622 -94.5811 14.9199 -94.3744 15.7879C-94.1677 16.6352 -94.0644 17.5136 -94.0644 18.4229V19.0119H-104.17C-104.046 20.7479 -103.54 22.1842 -102.651 23.3209C-101.763 24.4369 -100.461 24.9949 -98.7454 24.9949ZM-84.4488 12.5019C-85.5028 12.5019 -86.3088 13.0082 -86.8668 14.0209C-87.4248 15.0336 -87.7038 16.2839 -87.7038 17.7719C-87.7038 19.7972 -87.2595 21.5126 -86.3708 22.9179C-85.4615 24.3026 -84.1698 24.9949 -82.4958 24.9949C-81.5658 24.9949 -80.4705 24.6952 -79.2098 24.0959L-78.7758 25.3669C-78.9618 25.5116 -79.2202 25.6976 -79.5508 25.9249C-79.8815 26.1316 -80.5635 26.4209 -81.5968 26.7929C-82.6095 27.1649 -83.6222 27.3509 -84.6348 27.3509C-86.9082 27.3509 -88.7475 26.6379 -90.1528 25.2119C-91.5375 23.7652 -92.2298 21.8329 -92.2298 19.4149C-92.2298 16.5629 -91.4238 14.3516 -89.8118 12.7809C-88.1792 11.1896 -86.1538 10.3939 -83.7358 10.3939C-82.4545 10.3939 -81.3282 10.6316 -80.3568 11.1069C-79.3855 11.5616 -78.6725 12.0886 -78.2178 12.6879C-78.7552 13.4939 -79.5095 14.2689 -80.4808 15.0129C-80.5222 14.9509 -80.5945 14.8682 -80.6978 14.7649C-80.7805 14.6409 -80.9562 14.4342 -81.2248 14.1449C-81.4935 13.8556 -81.7828 13.6076 -82.0928 13.4009C-82.3822 13.1736 -82.7438 12.9669 -83.1778 12.7809C-83.6118 12.5949 -84.0355 12.5019 -84.4488 12.5019ZM-65.0666 12.5019H-67.3916C-67.4536 13.9486 -67.4846 16.0876 -67.4846 18.9189C-67.4846 20.3449 -67.4639 22.4839 -67.4226 25.3359L-64.8806 25.4289C-64.8186 25.9456 -64.8186 26.4726 -64.8806 27.0099C-67.2159 26.9892 -68.7866 26.9789 -69.5926 26.9789C-69.9439 26.9789 -70.7912 26.9892 -72.1346 27.0099C-73.4779 27.0099 -74.2529 27.0099 -74.4596 27.0099C-74.5009 26.4519 -74.5009 25.9249 -74.4596 25.4289L-72.0416 25.3359C-71.9589 23.9099 -71.9176 21.7709 -71.9176 18.9189C-71.9176 16.0876 -71.9382 13.9382 -71.9796 12.4709L-74.3356 12.5019C-74.7696 12.5226 -75.0176 12.7189 -75.0796 13.0909L-75.5136 16.5939C-75.6582 16.6146 -76.0096 16.6249 -76.5676 16.6249C-77.1256 16.6249 -77.4872 16.6146 -77.6526 16.5939V10.6419L-75.2036 10.8279H-64.1676L-61.7186 10.6419V16.5939C-61.8839 16.6146 -62.2456 16.6249 -62.8036 16.6249C-63.3616 16.6249 -63.7129 16.6146 -63.8576 16.5939L-64.2916 13.0909C-64.3329 12.8842 -64.4052 12.7396 -64.5086 12.6569C-64.5912 12.5536 -64.7772 12.5019 -65.0666 12.5019ZM-55.4805 27.0099H-60.6575C-60.6782 26.4932 -60.6782 25.9662 -60.6575 25.4289L-58.5495 25.3359C-58.4669 23.9099 -58.4255 21.8122 -58.4255 19.0429C-58.4255 16.1496 -58.4462 13.9692 -58.4875 12.5019L-60.6885 12.4089C-60.7505 11.8922 -60.7505 11.3652 -60.6885 10.8279C-58.1052 10.8486 -56.4105 10.8589 -55.6045 10.8589L-51.6055 10.8279C-49.7042 10.8072 -48.2679 11.1482 -47.2965 11.8509C-46.3045 12.5329 -45.8085 13.5042 -45.8085 14.7649C-45.8085 15.8189 -46.1392 16.6456 -46.8005 17.2449C-47.4412 17.8442 -48.2265 18.2576 -49.1565 18.4849C-48.6192 18.5469 -48.1542 18.6296 -47.7615 18.7329C-47.3482 18.8362 -46.9142 19.0119 -46.4595 19.2599C-45.9842 19.5079 -45.6225 19.8799 -45.3745 20.3759C-45.1059 20.8719 -44.9715 21.4712 -44.9715 22.1739C-44.9715 23.6206 -45.5709 24.8089 -46.7695 25.7389C-47.9682 26.6482 -49.5905 27.1029 -51.6365 27.1029C-51.9879 27.1029 -52.6389 27.0822 -53.5895 27.0409C-54.5195 27.0202 -55.1499 27.0099 -55.4805 27.0099ZM-52.5975 25.4289C-51.5849 25.4289 -50.8099 25.1912 -50.2725 24.7159C-49.7145 24.2199 -49.4355 23.3622 -49.4355 22.1429C-49.4355 21.3369 -49.7145 20.6859 -50.2725 20.1899C-50.8305 19.6939 -51.6469 19.4459 -52.7215 19.4459H-53.2485C-53.4965 19.4459 -53.7652 19.4666 -54.0545 19.5079C-54.0545 22.4219 -54.0442 24.3749 -54.0235 25.3669C-53.5275 25.4082 -53.0522 25.4289 -52.5975 25.4289ZM-53.0625 12.5019H-53.9925C-54.0339 13.5352 -54.0545 15.3332 -54.0545 17.8959C-53.9099 17.9166 -53.6722 17.9269 -53.3415 17.9269H-52.7835C-51.9775 17.9269 -51.3472 17.6789 -50.8925 17.1829C-50.4172 16.6869 -50.1795 16.0772 -50.1795 15.3539C-50.1795 14.2586 -50.3965 13.5146 -50.8305 13.1219C-51.2439 12.7086 -51.9879 12.5019 -53.0625 12.5019ZM-35.8362 12.0989C-36.7042 12.0989 -37.4069 12.6259 -37.9442 13.6799C-38.4816 14.7132 -38.7502 16.0256 -38.7502 17.6169L-33.3562 17.4309C-33.3149 13.8762 -34.1416 12.0989 -35.8362 12.0989ZM-33.2942 24.9949C-32.1162 24.9949 -30.8762 24.6642 -29.5742 24.0029L-29.0782 25.4289C-29.3056 25.5736 -29.6259 25.7596 -30.0392 25.9869C-30.4319 26.1936 -31.1862 26.4726 -32.3022 26.8239C-33.3976 27.1752 -34.4102 27.3509 -35.3402 27.3509C-37.7996 27.3509 -39.7526 26.6586 -41.1992 25.2739C-42.6252 23.8686 -43.3382 21.9982 -43.3382 19.6629C-43.3382 16.8316 -42.6149 14.5789 -41.1682 12.9049C-39.7009 11.2309 -37.7789 10.3939 -35.4022 10.3939C-34.1002 10.3939 -32.9842 10.6522 -32.0542 11.1689C-31.1036 11.6856 -30.4009 12.3676 -29.9462 13.2149C-29.4709 14.0622 -29.1299 14.9199 -28.9232 15.7879C-28.7166 16.6352 -28.6132 17.5136 -28.6132 18.4229V19.0119H-38.7192C-38.5952 20.7479 -38.0889 22.1842 -37.2002 23.3209C-36.3116 24.4369 -35.0096 24.9949 -33.2942 24.9949ZM-24.7017 18.9189C-24.7017 16.1082 -24.7223 13.9692 -24.7637 12.5019L-26.9647 12.4089C-27.006 11.8922 -27.006 11.3652 -26.9647 10.8279C-24.774 10.8486 -23.2757 10.8589 -22.4697 10.8589C-22.1183 10.8589 -21.395 10.8589 -20.2997 10.8589C-19.2043 10.8382 -18.5533 10.8279 -18.3467 10.8279C-18.326 11.3859 -18.326 11.9129 -18.3467 12.4089L-20.2067 12.5019C-20.248 13.6592 -20.2687 15.4469 -20.2687 17.8649C-20.124 17.8649 -19.7623 17.8752 -19.1837 17.8959C-18.605 17.8959 -18.109 17.8959 -17.6957 17.8959C-16.3317 17.8959 -15.412 17.8856 -14.9367 17.8649C-14.9367 15.5089 -14.947 13.7212 -14.9677 12.5019L-16.9207 12.4089C-16.962 11.8922 -16.962 11.3652 -16.9207 10.8279C-14.9573 10.8486 -13.5727 10.8589 -12.7667 10.8589C-12.4153 10.8589 -11.6403 10.8589 -10.4417 10.8589C-9.22232 10.8382 -8.50932 10.8279 -8.30266 10.8279C-8.28199 11.3859 -8.28199 11.9129 -8.30266 12.4089L-10.3797 12.5019C-10.4623 13.9279 -10.5037 16.0566 -10.5037 18.8879C-10.5037 21.7192 -10.483 23.8686 -10.4417 25.3359L-8.27166 25.4289C-8.23032 25.9456 -8.23032 26.4726 -8.27166 27.0099C-10.3177 26.9892 -11.7437 26.9789 -12.5497 26.9789C-12.901 26.9789 -13.6657 26.9892 -14.8437 27.0099C-16.001 27.0099 -16.683 27.0099 -16.8897 27.0099C-16.931 26.4519 -16.931 25.9249 -16.8897 25.4289L-15.0297 25.3359C-14.9677 24.1786 -14.9367 22.2566 -14.9367 19.5699C-15.102 19.5699 -15.505 19.5699 -16.1457 19.5699C-16.7657 19.5492 -17.2927 19.5389 -17.7267 19.5389C-18.14 19.5389 -18.636 19.5492 -19.2147 19.5699C-19.7727 19.5699 -20.124 19.5699 -20.2687 19.5699C-20.2687 22.7939 -20.2583 24.7159 -20.2377 25.3359L-18.3157 25.4289C-18.2743 25.9456 -18.2743 26.4726 -18.3157 27.0099C-20.2377 26.9892 -21.6017 26.9789 -22.4077 26.9789C-22.759 26.9789 -23.5443 26.9892 -24.7637 27.0099C-25.983 27.0099 -26.696 27.0099 -26.9027 27.0099C-26.9233 26.4519 -26.9233 25.9249 -26.9027 25.4289L-24.8257 25.3359C-24.743 23.9099 -24.7017 21.7709 -24.7017 18.9189ZM-4.53955 18.9189C-4.53955 16.1082 -4.56022 13.9692 -4.60155 12.5019L-6.80255 12.4089C-6.84388 11.8922 -6.84388 11.3652 -6.80255 10.8279C-4.61188 10.8486 -3.11355 10.8589 -2.30755 10.8589C-1.95622 10.8589 -1.23288 10.8589 -0.137549 10.8589C0.957785 10.8382 1.60879 10.8279 1.81545 10.8279C1.83612 11.3859 1.83612 11.9129 1.81545 12.4089L-0.0445483 12.5019C-0.0858818 13.6592 -0.106548 15.4469 -0.106548 17.8649C0.0381182 17.8649 0.399785 17.8752 0.978452 17.8959C1.55712 17.8959 2.05312 17.8959 2.46645 17.8959C3.83045 17.8959 4.75012 17.8856 5.22545 17.8649C5.22545 15.5089 5.21512 13.7212 5.19445 12.5019L3.24145 12.4089C3.20012 11.8922 3.20012 11.3652 3.24145 10.8279C5.20479 10.8486 6.58945 10.8589 7.39545 10.8589C7.74679 10.8589 8.52179 10.8589 9.72045 10.8589C10.9398 10.8382 11.6528 10.8279 11.8595 10.8279C11.8801 11.3859 11.8801 11.9129 11.8595 12.4089L9.78245 12.5019C9.69979 13.9279 9.65845 16.0566 9.65845 18.8879C9.65845 21.7192 9.67912 23.8686 9.72045 25.3359L11.8905 25.4289C11.9318 25.9456 11.9318 26.4726 11.8905 27.0099C9.84445 26.9892 8.41845 26.9789 7.61245 26.9789C7.26112 26.9789 6.49645 26.9892 5.31845 27.0099C4.16112 27.0099 3.47912 27.0099 3.27245 27.0099C3.23112 26.4519 3.23112 25.9249 3.27245 25.4289L5.13245 25.3359C5.19445 24.1786 5.22545 22.2566 5.22545 19.5699C5.06012 19.5699 4.65712 19.5699 4.01645 19.5699C3.39645 19.5492 2.86945 19.5389 2.43545 19.5389C2.02212 19.5389 1.52612 19.5492 0.947451 19.5699C0.389451 19.5699 0.0381182 19.5699 -0.106548 19.5699C-0.106548 22.7939 -0.0962151 24.7159 -0.0755484 25.3359L1.84645 25.4289C1.88779 25.9456 1.88779 26.4726 1.84645 27.0099C-0.0755484 26.9892 -1.43955 26.9789 -2.24555 26.9789C-2.59688 26.9789 -3.38222 26.9892 -4.60155 27.0099C-5.82088 27.0099 -6.53388 27.0099 -6.74055 27.0099C-6.76122 26.4519 -6.76122 25.9249 -6.74055 25.4289L-4.66355 25.3359C-4.58088 23.9099 -4.53955 21.7709 -4.53955 18.9189ZM21.2956 27.3199C18.9396 27.3199 17.0589 26.5759 15.6536 25.0879C14.2482 23.5792 13.5456 21.6159 13.5456 19.1979C13.5456 16.6559 14.3102 14.5582 15.8396 12.9049C17.3896 11.2309 19.3426 10.3939 21.6986 10.3939C24.1372 10.3939 26.0696 11.1379 27.4956 12.6259C28.9216 14.0932 29.6346 16.0359 29.6346 18.4539C29.6346 21.0166 28.8906 23.1349 27.4026 24.8089C25.9352 26.4829 23.8996 27.3199 21.2956 27.3199ZM21.4506 25.5839C23.8892 25.5839 25.1086 23.4036 25.1086 19.0429C25.1086 17.0382 24.7986 15.3952 24.1786 14.1139C23.5792 12.8326 22.7009 12.1919 21.5436 12.1919C19.2289 12.1919 18.0716 14.3412 18.0716 18.6399C18.0716 19.7352 18.1749 20.7892 18.3816 21.8019C18.6089 22.8146 18.9912 23.7032 19.5286 24.4679C20.0659 25.2119 20.7066 25.5839 21.4506 25.5839ZM39.2182 12.5019C38.1642 12.5019 37.3582 13.0082 36.8002 14.0209C36.2422 15.0336 35.9632 16.2839 35.9632 17.7719C35.9632 19.7972 36.4075 21.5126 37.2962 22.9179C38.2055 24.3026 39.4972 24.9949 41.1712 24.9949C42.1012 24.9949 43.1965 24.6952 44.4572 24.0959L44.8912 25.3669C44.7052 25.5116 44.4468 25.6976 44.1162 25.9249C43.7855 26.1316 43.1035 26.4209 42.0702 26.7929C41.0575 27.1649 40.0448 27.3509 39.0322 27.3509C36.7588 27.3509 34.9195 26.6379 33.5142 25.2119C32.1295 23.7652 31.4372 21.8329 31.4372 19.4149C31.4372 16.5629 32.2432 14.3516 33.8552 12.7809C35.4878 11.1896 37.5132 10.3939 39.9312 10.3939C41.2125 10.3939 42.3388 10.6316 43.3102 11.1069C44.2815 11.5616 44.9945 12.0886 45.4492 12.6879C44.9118 13.4939 44.1575 14.2689 43.1862 15.0129C43.1448 14.9509 43.0725 14.8682 42.9692 14.7649C42.8865 14.6409 42.7108 14.4342 42.4422 14.1449C42.1735 13.8556 41.8842 13.6076 41.5742 13.4009C41.2848 13.1736 40.9232 12.9669 40.4892 12.7809C40.0552 12.5949 39.6315 12.5019 39.2182 12.5019ZM58.6004 12.5019H56.2754C56.2134 13.9486 56.1824 16.0876 56.1824 18.9189C56.1824 20.3449 56.2031 22.4839 56.2444 25.3359L58.7864 25.4289C58.8484 25.9456 58.8484 26.4726 58.7864 27.0099C56.4511 26.9892 54.8804 26.9789 54.0744 26.9789C53.7231 26.9789 52.8758 26.9892 51.5324 27.0099C50.1891 27.0099 49.4141 27.0099 49.2074 27.0099C49.1661 26.4519 49.1661 25.9249 49.2074 25.4289L51.6254 25.3359C51.7081 23.9099 51.7494 21.7709 51.7494 18.9189C51.7494 16.0876 51.7288 13.9382 51.6874 12.4709L49.3314 12.5019C48.8974 12.5226 48.6494 12.7189 48.5874 13.0909L48.1534 16.5939C48.0088 16.6146 47.6574 16.6249 47.0994 16.6249C46.5414 16.6249 46.1798 16.6146 46.0144 16.5939V10.6419L48.4634 10.8279H59.4994L61.9484 10.6419V16.5939C61.7831 16.6146 61.4214 16.6249 60.8634 16.6249C60.3054 16.6249 59.9541 16.6146 59.8094 16.5939L59.3754 13.0909C59.3341 12.8842 59.2618 12.7396 59.1584 12.6569C59.0758 12.5536 58.8898 12.5019 58.6004 12.5019ZM70.8835 25.4289C72.9501 25.4289 73.9835 24.3336 73.9835 22.1429C73.9835 21.1096 73.7355 20.3346 73.2395 19.8179C72.7641 19.3012 71.9788 19.0429 70.8835 19.0429H70.6355C70.3668 19.0429 70.0155 19.0739 69.5815 19.1359C69.5815 22.2979 69.5918 24.3749 69.6125 25.3669C69.9431 25.4082 70.3668 25.4289 70.8835 25.4289ZM69.5815 17.5239C70.4908 17.3792 71.3795 17.3069 72.2475 17.3069H72.8055C74.6861 17.3069 76.1018 17.7099 77.0525 18.5159C78.0031 19.3219 78.4785 20.3552 78.4785 21.6159C78.4785 23.2692 77.8481 24.6022 76.5875 25.6149C75.3268 26.6069 73.7251 27.1029 71.7825 27.1029C71.5551 27.1029 70.9868 27.0822 70.0775 27.0409C69.1681 27.0202 68.4035 27.0099 67.7835 27.0099H63.0405C62.9785 26.4519 62.9785 25.9249 63.0405 25.4289L65.0865 25.3359C65.1691 23.9099 65.2105 21.8949 65.2105 19.2909C65.2105 16.2322 65.1898 13.9692 65.1485 12.5019L62.9475 12.4089C62.9061 11.8922 62.9061 11.3652 62.9475 10.8279C65.2828 10.8486 66.8535 10.8589 67.6595 10.8589C68.0108 10.8589 68.8168 10.8589 70.0775 10.8589C71.3588 10.8382 72.1028 10.8279 72.3095 10.8279C72.3715 11.3859 72.3715 11.9129 72.3095 12.4089L69.6745 12.5019C69.6125 13.7212 69.5815 15.3952 69.5815 17.5239Z" fill="#FF3E96"/>
</svg>
