<svg width="198" height="352" viewBox="0 0 198 352" fill="none" xmlns="http://www.w3.org/2000/svg">
<path d="M133 233.848L79 169.848V211.848L156 339.348L196 304.348L133 233.848Z" fill="white"/>
<path d="M4.48489 0.698518H4.31021C0.851632 1.60756 -0.545775 5.69828 1.62021 8.53031C36.7999 54.8566 55.8745 152.789 94.2683 189.255C104.889 199.325 182.445 293.341 193.449 303.41C186.043 308.55 156.173 344.842 144.645 342.814L148.243 351.065C148.243 351.065 187.091 311.592 197.956 304.424C190.27 297.467 91.5783 181.354 86.5476 173.627C60.4161 133.524 4.44996 0.663574 4.44996 0.663574L4.48489 0.698518Z" fill="#FF3E96"/>
</svg>
