<svg width="1440" height="624" viewBox="0 0 1440 624" fill="none" xmlns="http://www.w3.org/2000/svg">
<rect x="122" width="765" height="134" fill="#FF3E96"/>
<g clip-path="url(#clip0_358_15)">
<path d="M895.66 420.841C895.66 376.06 893.802 330.384 895.66 286.303C896.311 286.303 896.164 286.646 897.357 286.303C969.957 286.303 1042.83 286.597 1115.17 286.303C1115.32 286.303 1113.56 287.027 1115.6 286.254C1115.6 331.108 1114.89 375.753 1115.6 420.828C1042.29 420.828 966.869 419.663 895.66 420.828V420.841ZM1005.64 419.27C1005.64 419.27 1003.8 418.448 1005.64 419.331C1032.11 419.331 1057.92 419.614 1085.04 419.381C1089.77 419.393 1094.38 418.644 1098.11 416.068C1108.27 410.24 1112.12 402.364 1114.11 389.691C1114.15 385.114 1113.35 380.33 1114.04 375.962C1114 366.699 1111.83 357.719 1113.93 348.161C1113.91 343.107 1113.45 337.696 1113.95 332.997C1113.99 327.207 1113.08 321.293 1114.1 315.637C1114.1 314.288 1116.03 312.914 1113.69 311.589C1112.3 304.497 1110 299.136 1103 294.29C1097.68 289.885 1090.73 286.843 1084.56 287.714C1062.13 287.824 1038.08 287.334 1017.27 287.787C986.907 287.787 958.345 286.548 926.202 287.702C918.65 287.702 911.577 290.413 906.62 295.406C900.937 300.841 899.042 308.104 897.05 315.245C896.951 321.428 895.783 328.765 897.086 333.795C897.025 352.1 897.652 369.815 896.877 388.697C896.877 390.991 895.561 393.261 897.222 395.579C898.157 400.364 901.453 405.468 903.471 408.376C909.646 415.467 919.154 419.614 926.818 419.405C933.509 419.233 940.164 419.295 946.893 419.282C966.475 419.27 983.967 418.129 1005.63 419.282L1005.64 419.27Z" fill="#FF3E96"/>
<path d="M349.895 277.065C349.895 232.481 351.137 186.94 349.895 143.374C452.016 143.374 555.667 143.116 657.371 143.374C657.371 187.982 658.564 233.352 657.371 277.065C555.298 277.065 450.356 277.654 349.895 277.065ZM503.549 144.429C503.549 144.429 504.791 143.349 503.549 144.368C479.094 144.368 455.083 144.122 430.186 144.368C414.048 144.368 399.102 145.165 381.77 144.368C378.953 144.38 376.555 144.895 373.344 145.423C365.89 147.398 358.128 151.262 356.369 158.562C353.454 162.93 353.687 169.077 352.137 173.137C352.236 178.928 352.223 185.97 352.334 190.51C352.334 204.398 349.579 217.452 352.248 232.162C352.248 235.057 352.617 238.934 352.15 240.848C352.137 244.381 349.468 247.694 352.26 251.436C352.863 255.656 352.433 258.331 357.156 263.103C363.516 271.421 372.741 276.979 382.41 276.059C389.581 275.826 397.958 276.525 403.961 275.973C446.423 275.961 491.174 277.028 531.348 275.948C562.777 275.985 594.353 276.721 625.622 276.28C631.219 276.304 639.227 275.899 641.158 272.035C649.744 266.636 653.016 260.429 656.362 248.835C656.596 246.222 656.362 244.809 656.251 240.921C656.251 218.887 659.191 197.491 656.276 174.818C656.276 172.953 654.013 170.892 656.079 169.248C654.431 159.593 651.565 151.667 640.568 147.803C635.487 144.785 631.785 143.423 624.146 144.355C602.201 144.417 578.289 143.411 558.312 144.429C540.057 144.429 520.093 145.018 503.549 144.429Z" fill="#FF3E96"/>
<path d="M886.494 420.534C842.211 420.534 798.814 421.564 753.658 420.534C724.726 420.534 695.475 420.178 666.863 420.534C666.85 419.945 668.978 418.914 666.814 418.767C666.814 375.385 665.866 332.838 666.814 288.622C666.814 287.996 667.256 286.499 666.814 286.671C740.114 286.671 813.649 286.168 886.47 286.671C886.494 287.223 887.712 288.217 886.531 288.18C886.531 331.905 886.322 375.483 886.531 419.356C886.531 419.749 887.368 420.239 886.482 420.534H886.494ZM776.291 287.738C776.291 287.738 777.152 288.72 776.291 287.702C750.016 287.702 723.422 287.358 697.48 287.702C690.837 287.702 686.938 288.965 679.606 293.725C671.98 300.093 666.691 308.693 668.019 318.091C668.327 325.783 668.708 332.629 668.265 341.193C668.228 358.258 668.511 374.833 668.031 392.402C668.031 392.893 669.188 393.899 668.093 393.862C669.138 401.468 672.73 407.382 678.672 412.486C683.789 416.927 690.148 418.804 696.545 419.344C703.876 419.368 710.728 420.448 718.526 419.258C730.138 419.258 742.119 418.865 753.35 419.307C772.232 419.27 790.978 419.479 810.008 419.135C825.236 419.172 839.973 420.178 855.693 419.601C858.092 419.601 861.364 419.135 862.877 418.473C873.701 415.062 880.209 407.149 884.403 397.101C885.387 394.009 883.062 391.997 885.092 387.556C884.846 379.667 886.384 372.747 885.018 363.865C885.043 348.21 887.072 331.918 885.154 316.913C885.215 310.19 882.066 304.878 878.979 299.124C873.025 291.811 867.649 287.419 855.828 287.726C829.308 287.787 803.66 287.849 776.279 287.751L776.291 287.738Z" fill="#FF3E96"/>
</g>
<g clip-path="url(#clip1_358_15)">
<path d="M1123.78 277.065C1123.78 232.481 1125.02 186.94 1123.78 143.374C1225.9 143.374 1329.55 143.116 1431.26 143.374C1431.26 187.982 1432.45 233.352 1431.26 277.065C1329.18 277.065 1224.24 277.654 1123.78 277.065ZM1277.44 144.429C1277.44 144.429 1278.68 143.349 1277.44 144.368C1252.98 144.368 1228.97 144.122 1204.07 144.368C1187.93 144.368 1172.99 145.165 1155.66 144.368C1152.84 144.38 1150.44 144.895 1147.23 145.423C1139.78 147.398 1132.01 151.262 1130.26 158.562C1127.34 162.93 1127.57 169.077 1126.02 173.137C1126.12 178.928 1126.11 185.97 1126.22 190.51C1126.22 204.398 1123.47 217.452 1126.13 232.162C1126.13 235.057 1126.5 238.934 1126.04 240.848C1126.02 244.381 1123.35 247.694 1126.15 251.436C1126.75 255.656 1126.32 258.331 1131.04 263.103C1137.4 271.421 1146.63 276.979 1156.3 276.059C1163.47 275.826 1171.84 276.525 1177.85 275.973C1220.31 275.961 1265.06 277.028 1305.24 275.948C1336.66 275.985 1368.24 276.721 1399.51 276.28C1405.11 276.304 1413.11 275.899 1415.04 272.035C1423.63 266.636 1426.9 260.429 1430.25 248.835C1430.48 246.222 1430.25 244.809 1430.14 240.921C1430.14 218.887 1433.08 197.491 1430.16 174.818C1430.16 172.953 1427.9 170.892 1429.97 169.248C1428.32 159.593 1425.45 151.667 1414.45 147.803C1409.37 144.785 1405.67 143.423 1398.03 144.355C1376.09 144.417 1352.18 143.411 1332.2 144.429C1313.94 144.429 1293.98 145.018 1277.44 144.429Z" fill="#FF3E96"/>
</g>
<g clip-path="url(#clip2_358_15)">
<path d="M351.669 420.841C351.669 376.06 349.812 330.384 351.669 286.303C352.321 286.303 352.174 286.646 353.367 286.303C425.966 286.303 498.837 286.597 571.178 286.303C571.325 286.303 569.567 287.027 571.608 286.254C571.608 331.108 570.895 375.753 571.608 420.828C498.295 420.828 422.879 419.663 351.669 420.828V420.841ZM461.651 419.27C461.651 419.27 459.806 418.448 461.651 419.331C488.123 419.331 513.93 419.614 541.053 419.381C545.777 419.393 550.389 418.644 554.117 416.068C564.277 410.24 568.127 402.364 570.12 389.691C570.157 385.114 569.357 380.33 570.046 375.962C570.009 366.699 567.844 357.719 569.935 348.161C569.923 343.107 569.456 337.696 569.96 332.997C569.997 327.207 569.087 321.293 570.108 315.637C570.108 314.288 572.039 312.914 569.702 311.589C568.312 304.497 566.012 299.136 559.012 294.29C553.686 289.885 546.736 286.843 540.573 287.714C518.137 287.824 494.089 287.334 473.275 287.787C442.917 287.787 414.354 286.548 382.212 287.702C374.66 287.702 367.587 290.413 362.629 295.406C356.946 300.841 355.052 308.104 353.059 315.245C352.961 321.428 351.792 328.765 353.096 333.795C353.035 352.1 353.662 369.815 352.887 388.697C352.887 390.991 351.571 393.261 353.231 395.579C354.166 400.364 357.463 405.468 359.48 408.376C365.655 415.467 375.164 419.614 382.827 419.405C389.519 419.233 396.174 419.295 402.902 419.282C422.485 419.27 439.977 418.129 461.639 419.282L461.651 419.27Z" fill="#FF3E96"/>
<path d="M-194.096 277.065C-194.096 232.481 -192.853 186.94 -194.096 143.374C-91.9741 143.374 11.677 143.116 113.38 143.374C113.38 187.982 114.574 233.352 113.38 277.065C11.308 277.065 -93.6347 277.654 -194.096 277.065ZM-40.4417 144.429C-40.4417 144.429 -39.1993 143.349 -40.4417 144.368C-64.8958 144.368 -88.907 144.122 -113.804 144.368C-129.943 144.368 -144.888 145.165 -162.22 144.368C-165.037 144.38 -167.436 144.895 -170.646 145.423C-178.1 147.398 -185.862 151.262 -187.621 158.562C-190.537 162.93 -190.303 169.077 -191.853 173.137C-191.754 178.928 -191.767 185.97 -191.656 190.51C-191.656 204.398 -194.411 217.452 -191.742 232.162C-191.742 235.057 -191.373 238.934 -191.841 240.848C-191.853 244.381 -194.522 247.694 -191.73 251.436C-191.127 255.656 -191.558 258.331 -186.834 263.103C-180.475 271.421 -171.249 276.979 -161.58 276.059C-154.409 275.826 -146.032 276.525 -140.029 275.973C-97.5668 275.961 -52.8163 277.028 -12.6418 275.948C18.7869 275.985 50.3632 276.721 81.632 276.28C87.2289 276.304 95.2367 275.899 97.1679 272.035C105.754 266.636 109.026 260.429 112.372 248.835C112.605 246.222 112.372 244.809 112.261 240.921C112.261 218.887 115.201 197.491 112.286 174.818C112.286 172.953 110.022 170.892 112.089 169.248C110.441 159.593 107.574 151.667 96.5775 147.803C91.4973 144.785 87.7947 143.423 80.1559 144.355C58.2112 144.417 34.2983 143.411 14.3217 144.429C-3.93275 144.429 -23.897 145.018 -40.4417 144.429Z" fill="#FF3E96"/>
<path d="M342.506 420.534C298.223 420.534 254.826 421.564 209.669 420.534C180.738 420.534 151.486 420.178 122.874 420.534C122.862 419.945 124.99 418.914 122.825 418.767C122.825 375.385 121.878 332.838 122.825 288.622C122.825 287.996 123.268 286.499 122.825 286.671C196.126 286.671 269.66 286.168 342.481 286.671C342.506 287.223 343.724 288.217 342.543 288.18C342.543 331.905 342.334 375.483 342.543 419.356C342.543 419.749 343.379 420.239 342.494 420.534H342.506ZM232.303 287.738C232.303 287.738 233.164 288.72 232.303 287.702C206.028 287.702 179.434 287.358 153.491 287.702C146.849 287.702 142.949 288.965 135.618 293.725C127.992 300.093 122.702 308.693 124.031 318.091C124.338 325.783 124.72 332.629 124.277 341.193C124.24 358.258 124.523 374.833 124.043 392.402C124.043 392.893 125.199 393.899 124.105 393.862C125.15 401.468 128.742 407.382 134.683 412.486C139.8 416.927 146.16 418.804 152.556 419.344C159.888 419.368 166.739 420.448 174.538 419.258C186.15 419.258 198.131 418.865 209.362 419.307C228.244 419.27 246.99 419.479 266.019 419.135C281.248 419.172 295.984 420.178 311.705 419.601C314.103 419.601 317.375 419.135 318.888 418.473C329.713 415.062 336.22 407.149 340.415 397.101C341.399 394.009 339.074 391.997 341.104 387.556C340.858 379.667 342.395 372.747 341.03 363.865C341.055 348.21 343.084 331.918 341.165 316.913C341.227 310.19 338.078 304.878 334.99 299.124C329.037 291.811 323.661 287.419 311.84 287.726C285.319 287.787 259.672 287.849 232.29 287.751L232.303 287.738Z" fill="#FF3E96"/>
</g>
<path d="M65.9029 623.098C66.0546 615.751 70.6069 608.584 77.5847 603.101C69.7025 606.051 63.4307 615.021 65.3405 622.96L65.9029 623.098Z" fill="#FF3E96"/>
<path fill-rule="evenodd" clip-rule="evenodd" d="M1180.75 438.712C1169.82 437.219 1159.04 435.746 1143.1 438.384C1154.2 438.29 1166.76 439.125 1179.36 439.962C1192.86 440.859 1206.42 441.76 1218.29 441.529C1220.48 441.484 1222.64 440.208 1224.76 438.95C1225.57 438.469 1226.38 437.991 1227.18 437.585C1227.87 437.24 1228.51 436.763 1229.14 436.289C1230.13 435.555 1231.1 434.829 1232.21 434.614C1237.49 433.567 1242.79 432.604 1248.09 431.641C1257.8 429.878 1267.51 428.115 1277.08 425.839C1280.93 424.925 1286.17 420.714 1286.47 417.534C1286.68 415.291 1283.94 412.672 1281.3 410.14C1280.34 409.224 1279.39 408.319 1278.6 407.448C1277.92 406.697 1276.75 406.315 1275.67 405.961C1275.49 405.904 1275.32 405.848 1275.15 405.791C1271.03 404.355 1266.89 402.956 1262.12 401.344C1260.44 400.775 1258.68 400.179 1256.81 399.546C1258.06 399.234 1259.13 399.008 1260.07 398.809C1261.76 398.45 1263.04 398.18 1264.19 397.65C1265.86 396.88 1267.53 396.12 1269.21 395.361C1275.92 392.318 1282.64 389.27 1288.91 385.522C1290.59 384.522 1291.31 382.059 1292.04 379.597C1292.38 378.47 1292.71 377.344 1293.14 376.358L1292.68 376.532C1290.4 384.295 1283.81 387.877 1277 390.571C1270.84 393.008 1264.47 394.969 1257.97 396.972C1255.12 397.851 1252.24 398.738 1249.33 399.677L1258.17 402.674C1259.98 403.292 1261.8 403.873 1263.62 404.454C1268.08 405.877 1272.54 407.301 1276.73 409.281C1277.01 409.41 1277.29 409.542 1277.59 409.677C1280.66 411.082 1284.66 412.91 1284.66 416.672C1284.67 420.831 1279.73 422.996 1276.61 423.724C1264.28 426.608 1251.73 428.734 1239.17 430.686C1234.03 431.486 1228.82 431.887 1223.61 432.287C1221.2 432.472 1218.8 432.656 1216.41 432.88C1216.42 433.186 1216.43 433.495 1216.44 433.805C1216.44 434.036 1216.45 434.267 1216.46 434.499C1217.33 434.711 1218.44 434.659 1219.55 434.607C1221.77 434.503 1224 434.399 1224.29 436.418C1224.31 436.585 1224.35 436.766 1224.39 436.947C1224.54 437.565 1224.69 438.191 1224.11 438.302C1204.85 442.005 1192.72 440.347 1180.75 438.712ZM1140.05 448.083C1140.05 448.075 1140.06 448.067 1140.06 448.059L1140.04 448.069C1140.04 448.069 1140.05 448.074 1140.05 448.083ZM1139.9 449.747C1139.95 449.192 1140 448.637 1140.05 448.083C1140.08 448.113 1140.14 448.188 1140.16 448.204C1140.07 448.718 1139.99 449.233 1139.9 449.747ZM1139.9 449.747C1139.65 452.669 1139.46 455.6 1139.27 458.532C1138.77 466.4 1138.26 474.266 1136.46 481.943C1133.26 495.691 1128.85 509.278 1124.44 522.849C1123.54 525.614 1122.64 528.378 1121.75 531.143C1120.59 534.764 1118.28 538.295 1115.64 541.422C1114.15 543.194 1110.94 544.951 1108.46 544.991C1106.68 545.018 1103.96 542.459 1103.15 540.633C1101.74 537.461 1100.77 534.165 1099.8 530.872C1099.41 529.565 1099.03 528.258 1098.61 526.96C1099.21 526.823 1099.81 526.686 1100.41 526.539C1100.52 526.768 1100.65 526.995 1100.78 527.222C1101.05 527.714 1101.32 528.206 1101.45 528.718C1101.64 529.478 1101.75 530.259 1101.87 531.038C1102.09 532.518 1102.31 533.994 1103.01 535.312C1103.44 536.109 1103.72 537.084 1104.01 538.077C1104.74 540.613 1105.51 543.268 1108.78 543.389C1112.39 543.522 1113.89 540.484 1115.13 537.976C1115.37 537.488 1115.6 537.02 1115.83 536.599C1126.52 517.366 1132.01 497.018 1135.39 476.261C1136.29 470.722 1137.24 465.194 1138.2 459.661C1138.77 456.359 1139.34 453.055 1139.9 449.747Z" fill="#FF3E96"/>
<defs>
<clipPath id="clip0_358_15">
<rect width="764.608" height="277.737" fill="white" transform="translate(350.992 143.263)"/>
</clipPath>
<clipPath id="clip1_358_15">
<rect width="764.608" height="277.737" fill="white" transform="translate(1124.88 143.263)"/>
</clipPath>
<clipPath id="clip2_358_15">
<rect width="764.608" height="277.737" fill="white" transform="translate(-193 143.263)"/>
</clipPath>
</defs>
</svg>
