<svg width="1440" height="875" viewBox="0 0 1440 875" fill="none" xmlns="http://www.w3.org/2000/svg">
<path fill-rule="evenodd" clip-rule="evenodd" d="M263.299 266.863C283.799 266.112 304.274 265.207 324.742 264.302C331.515 264.003 338.287 263.703 345.059 263.41V261.319C345.605 261.501 346.155 261.726 346.706 261.951L346.706 261.951C347.948 262.459 349.197 262.969 350.425 263.001C357.435 263.097 364.446 263.197 371.459 263.297L371.459 263.297C404.341 263.766 437.249 264.236 470.156 264.273C477.659 264.273 483.571 264.864 486.026 272.906C485.822 271.021 485.629 269.135 485.435 267.249C485.242 265.364 485.049 263.478 484.844 261.592C474.672 261.562 464.501 261.552 454.327 261.542C433.983 261.521 413.632 261.501 393.261 261.319C388.668 261.274 384.087 260.967 379.505 260.661C374.924 260.354 370.343 260.047 365.75 260.002C360.99 259.97 356.253 260.37 351.507 260.77C349.36 260.951 347.212 261.133 345.059 261.274C321.732 261.956 298.404 262.683 275.076 263.41L275.076 263.41C271.912 263.384 268.74 263.304 265.567 263.223C257.524 263.02 249.474 262.816 241.517 263.501C237.158 263.877 232.907 265.593 228.659 267.307L228.659 267.307L228.659 267.307L228.659 267.307C226.748 268.079 224.838 268.85 222.918 269.499L251.976 265.273C253.205 265.45 254.433 265.695 255.662 265.94L255.662 265.94C258.208 266.448 260.753 266.955 263.299 266.863ZM619.715 265.182C613.44 265.863 547.8 265.182 547.8 265.182C547.39 264.614 547.595 263.966 547.8 263.319C548.004 262.671 548.209 262.024 547.8 261.456C556.235 261.819 576.829 262.171 597.423 262.524C618.018 262.876 638.612 263.228 647.047 263.591C653.948 263.38 660.855 263.154 667.763 262.927L667.764 262.927C681.657 262.472 695.557 262.017 709.436 261.683C711.522 261.652 713.628 262.097 715.741 262.543C716.761 262.759 717.782 262.974 718.804 263.137L768.461 266.954C769.596 267.289 770.717 267.639 771.832 267.987C772.681 268.252 773.527 268.516 774.372 268.771C771.234 268.953 768.142 269.135 765.05 269.317C757.729 270.634 754.91 274.315 756.865 282.04C757.914 286.108 758.185 290.398 758.456 294.677C758.572 296.516 758.688 298.353 758.866 300.17H755.546C754.887 295.285 754.216 290.412 753.545 285.539L753.536 285.47L753.528 285.41C752.863 280.58 752.198 275.749 751.545 270.907C745.065 269.907 738.596 268.919 732.128 267.931C725.659 266.943 719.19 265.954 712.71 264.955C690.792 265 668.829 265.091 646.911 265.182C644.188 265.505 638.607 265.348 633.069 265.192C627.694 265.041 622.358 264.891 619.715 265.182ZM339.289 489.751L339.285 489.879H339.33C339.317 489.836 339.303 489.794 339.289 489.751ZM339.289 489.751C339.606 481.683 339.911 473.626 340.217 465.569C340.524 457.469 340.831 449.37 341.149 441.259C340.969 443.252 340.789 445.245 340.608 447.238C339.509 459.377 338.409 471.521 337.511 483.699C337.418 485.068 338.006 486.5 338.591 487.924C338.843 488.536 339.094 489.148 339.289 489.751ZM507.535 806.454C507.535 805.772 507.58 805.045 507.626 804.364C504.914 804.325 502.198 804.279 499.48 804.233C492.626 804.117 485.757 804 478.887 804C473.294 804 471.065 801.865 471.202 795.958C471.497 782.63 473.516 672.136 473.732 644.852C474.312 644.858 474.828 644.865 475.278 644.872C475.218 644.664 475.159 644.459 475.099 644.254C495.038 645.177 514.988 646.089 534.937 647.001L535.092 647.008L535.099 647.008L535.106 647.009C555.234 647.928 575.362 648.848 595.479 649.78C598.251 649.901 601.043 649.982 603.842 650.063C605.221 650.103 606.603 650.143 607.984 650.189C607.99 650.115 607.995 650.041 608 649.967V650L608.348 650C608.32 650.033 608.304 650.052 608.304 650.052C607.943 658.282 607.582 666.522 607.221 674.763C606.855 683.13 606.488 691.498 606.122 699.853C605.958 703.943 605.757 708.033 605.557 712.123C605.089 721.665 604.621 731.207 604.621 740.749C604.621 756.764 604.893 772.801 605.165 788.829C605.278 795.494 605.391 802.157 605.485 808.817C605.121 808.726 608.304 810.589 608.304 810.589C617.308 810.589 626.312 810.589 635.315 810.634L693.385 810.498C704.253 811.089 715.166 811.679 726.035 812.27L731.561 812.347L736.172 812.411C740.044 812.617 743.917 812.812 747.789 812.685C748.069 812.698 748.357 812.711 748.645 812.724L748.65 812.725C749.88 812.781 751.11 812.838 751.7 812.906C751.769 812.247 751.848 811.576 751.928 810.906L751.958 810.655C751.978 810.485 751.998 810.316 752.017 810.147C752.417 809.57 752.681 808.987 752.696 808.513C752.861 803.25 752.641 797.964 752.421 792.689V792.688V792.686V792.685V792.683V792.682V792.681V792.68V792.68C752.339 790.71 752.258 788.741 752.196 786.776C751.874 788.881 751.683 791.053 751.492 793.226V793.226C751.034 798.423 750.576 803.625 748.333 807.921C748.143 808.285 747.844 808.59 747.456 808.849C730.667 808.641 712.072 808.437 695.658 808.271L690.674 808.162L689.732 808.142C662.65 807.549 635.565 806.956 608.441 806.363C608.35 789.929 608.27 773.495 608.19 757.055L608.19 757.044L608.19 756.924C608.11 740.589 608.031 724.248 607.941 707.896L611.5 650L611.499 649.998C622.402 649.988 644.636 649.94 668.982 649.887L669.032 649.887L669.137 649.887H669.145H669.165C707.622 649.803 751.286 649.708 763.869 649.734C763.392 649.724 761.014 649.684 757.171 649.619C727.638 649.121 611.622 647.166 608 646V646.267C585.842 645.272 563.672 644.277 541.503 643.282C519.232 642.282 496.961 641.282 474.702 640.283C474.702 629.377 474.748 618.427 474.793 607.521C474.944 607.069 475.128 606.613 475.313 606.155C475.74 605.094 476.171 604.025 476.203 602.977C476.819 578.381 477.358 553.81 477.897 529.227L477.897 529.221L477.898 529.216L477.898 529.21L477.898 529.202L477.898 529.194L477.898 529.185L477.898 529.177C478.075 521.123 478.252 513.068 478.431 505.01C478.749 504.374 479.068 503.738 479.432 503.056C479.318 502.738 479.193 502.42 479.068 502.102C478.943 501.784 478.818 501.466 478.704 501.148C479.402 494.31 480.088 487.484 480.775 480.657L480.777 480.639L480.778 480.623L480.779 480.614L480.78 480.605L480.781 480.596L480.782 480.586L480.783 480.577L480.784 480.568L480.785 480.558L480.786 480.549L480.786 480.543L480.787 480.537L480.788 480.53L480.788 480.524L480.789 480.518L480.79 480.512L480.796 480.45L480.802 480.389L480.803 480.383L480.803 480.376L480.804 480.37L480.805 480.364L480.805 480.358L480.806 480.351L480.806 480.345L480.807 480.336L480.808 480.327L480.809 480.317L480.81 480.308L480.811 480.299L480.812 480.29L480.813 480.28L480.814 480.271L480.815 480.259L480.816 480.246C481.503 473.419 482.19 466.591 482.888 459.753L482.575 459.724L482.392 459.707L482.047 459.676L481.41 459.616C480.921 459.571 480.432 459.526 479.932 459.48C479.272 466.389 478.601 473.298 477.93 480.207C477.26 487.112 476.589 494.016 475.93 500.921C473.605 500.531 471.28 500.056 468.954 499.581L468.953 499.581L468.953 499.581L468.952 499.581L468.951 499.581L468.95 499.58L468.95 499.58L468.949 499.58L468.948 499.58L468.947 499.58L468.947 499.58L468.946 499.58L468.945 499.579L468.945 499.579L468.944 499.579L468.943 499.579L468.942 499.579L468.942 499.579L468.941 499.579C463.673 498.503 458.399 497.425 453.103 497.331C431.14 497.048 409.176 497.15 387.213 497.252C380.938 497.282 374.662 497.311 368.386 497.331L367.602 497.309C358.135 497.044 348.708 496.78 339.238 496.559C338.647 496.695 338.101 496.786 337.51 496.877C318.559 497.581 299.608 498.296 280.656 499.011L280.655 499.011L280.654 499.011L280.652 499.011L280.651 499.011L280.649 499.011L280.648 499.011L280.646 499.012L280.645 499.012L280.643 499.012L280.642 499.012L280.641 499.012L280.639 499.012L280.638 499.012L280.636 499.012L280.635 499.012L280.633 499.012L280.632 499.012L280.63 499.012L280.629 499.012L280.628 499.012L280.626 499.012L280.625 499.012L280.623 499.012C261.661 499.728 242.698 500.444 223.736 501.148C242.062 503.056 260.342 503.193 278.622 503.011C291.712 502.89 304.801 502.606 317.877 502.323L317.888 502.323L317.9 502.322L317.911 502.322L317.922 502.322L317.934 502.322L317.945 502.321L317.956 502.321C324.432 502.181 330.906 502.041 337.374 501.92C337.442 501.603 337.499 501.285 337.555 500.968L337.555 500.968L337.555 500.967L337.555 500.967L337.555 500.967L337.556 500.966L337.556 500.965C337.613 500.647 337.669 500.33 337.737 500.012L338.587 499.998L338.631 499.997H338.632H338.632L338.655 499.997C352.446 499.775 366.238 499.553 380.073 499.33L380.028 499.285L380.027 499.285C382.195 499.27 384.366 499.208 386.539 499.146H386.539H386.54H386.54H386.541H386.542H386.542H386.543H386.543H386.544H386.544H386.545H386.546H386.546H386.547H386.547H386.548H386.549H386.549C391.119 499.016 395.689 498.886 400.217 499.194C419.41 500.527 438.577 502.015 457.738 503.502L457.741 503.502C464.047 503.992 470.352 504.481 476.658 504.965L472.974 607.476C472.633 612.974 472.304 618.472 471.974 623.97C471.644 629.468 471.315 634.966 470.974 640.465L470.978 640.467L471.413 640.701L471.377 642.055H336.803C337.002 613.023 337.196 584.052 337.386 555.63L337.386 555.595C337.508 537.451 337.628 519.53 337.747 501.96C337.328 507.003 336.81 512.03 336.293 517.056C335.19 527.782 334.086 538.505 333.937 549.376H333.894C333.499 580.266 333.179 611.155 332.913 642.055H287.264C285.821 641.873 284.372 641.652 282.923 641.431L282.922 641.43C279.669 640.934 276.407 640.436 273.168 640.374C261.286 640.192 249.404 640.172 237.536 640.151C231.599 640.141 225.665 640.131 219.737 640.101C219.055 627.151 218.373 614.201 217.736 601.205C217.418 602.205 217.088 603.216 216.758 604.227L216.757 604.231L216.756 604.233C216.427 605.242 216.098 606.251 215.781 607.248C215.69 607.905 215.599 608.573 215.509 609.242L215.508 609.247C215.417 609.917 215.326 610.588 215.235 611.247C215.235 612.522 215.192 613.755 215.148 615.027L215.144 615.155H215.007C214.784 621.536 214.55 627.917 214.316 634.303L214.316 634.303C214.073 640.923 213.829 647.549 213.598 654.187C213.53 658.919 213.451 663.651 213.372 668.388L213.372 668.388C213.292 673.204 213.212 678.026 213.143 682.859C213.53 687.859 213.916 692.87 214.303 697.882C214.689 702.89 215.076 707.898 215.462 712.895C216.144 701.762 216.826 690.584 217.463 679.451C217.781 673.567 218.088 667.694 218.395 661.82C218.702 655.948 219.009 650.075 219.327 644.19C227.763 644.168 236.187 644.134 244.611 644.1C253.034 644.066 261.458 644.031 269.894 644.009C277.238 644.105 302.447 644.201 332.894 644.3C332.521 688.193 332.258 732.11 332.055 776.08C332.003 785.021 332.272 787.958 332.635 791.929C332.837 794.138 333.068 796.667 333.29 800.728C323.941 800.728 314.572 800.688 305.209 800.648H305.189H305.169H305.148H305.127H305.106H305.086H305.065H305.044L305.022 800.647C300.403 800.627 295.786 800.607 291.173 800.592C289.175 800.229 287.189 799.878 285.202 799.526L285.2 799.526L285.198 799.525C283.207 799.173 281.216 798.82 279.214 798.456H277.258C272.575 798.638 267.902 798.831 263.23 799.024C258.557 799.218 253.885 799.411 249.201 799.592C249.247 800.547 249.292 801.501 249.383 802.455H288.99C296.152 802.75 303.69 803.133 311.227 803.516C318.764 803.899 326.301 804.282 333.463 804.577L333.474 804.55L333.475 804.577L335.611 803.865L335.613 803.581C342.397 803.639 371.341 804.445 400.285 805.25C432.538 806.147 464.79 807.045 466.382 806.908C472.43 806.84 479.705 806.761 486.981 806.681C494.244 806.602 501.507 806.523 507.548 806.454C518.51 806.724 529.464 806.993 540.417 807.263L543.634 807.342L549.121 807.477C562.979 807.817 576.837 808.158 590.706 808.499C589.713 808.09 588.729 807.583 587.747 807.077C585.672 806.007 583.605 804.942 581.475 804.818C566.423 803.864 551.372 803.137 536.275 802.955C529.726 802.893 523.178 803.344 516.63 803.794C513.629 804 510.628 804.207 507.627 804.364C507.627 805.046 507.581 805.773 507.536 806.454L507.535 806.454ZM335.629 801.604C340.935 801.584 359.109 801.985 380.127 802.449C416.048 803.242 460.279 804.219 462.789 803.591C464 803.312 464.913 801.954 465.834 800.585C466.263 799.948 466.693 799.309 467.155 798.775C467.516 783.825 468.796 736.962 469.881 697.217L469.881 697.202C470.474 675.502 471.008 655.926 471.304 644.826C455.151 644.677 409.683 644.537 365.806 644.403L365.785 644.402L365.742 644.402H365.736H365.735C355.889 644.372 346.123 644.342 336.787 644.312C336.421 697.585 336.038 751.02 335.629 801.604ZM473.956 642.055H473.748L473.749 641.946L473.956 642.055ZM474.58 642.476L474.548 642.364L474.566 642.373C474.571 642.408 474.576 642.442 474.58 642.476ZM215.347 741.465L215.347 741.465C215.404 731.934 215.461 722.397 215.506 712.849C215.097 714.077 214.58 715.299 214.063 716.52C212.972 719.096 211.885 721.665 211.823 724.255C211.563 735.093 211.651 745.955 211.74 756.824C211.775 761.174 211.81 765.525 211.823 769.876C212.414 776.601 213.005 783.337 213.597 790.073C214.188 796.81 214.779 803.546 215.37 810.271C215.347 803.546 215.313 796.81 215.279 790.073C215.245 783.337 215.211 776.601 215.188 769.876C215.233 760.412 215.29 750.948 215.347 741.478L215.347 741.478L215.347 741.477L215.347 741.477L215.347 741.476L215.347 741.476L215.347 741.475L215.347 741.474L215.347 741.474L215.347 741.473L215.347 741.473L215.347 741.472L215.347 741.472L215.347 741.471L215.347 741.471L215.347 741.47L215.347 741.469L215.347 741.469L215.347 741.468L215.347 741.468L215.347 741.467L215.347 741.467L215.347 741.466L215.347 741.466L215.347 741.465ZM610.418 554.101V554.105C610.452 576.137 610.486 598.169 610.532 597.601C610.987 597.601 611.896 597.374 611.896 597.374C612.533 587.831 613.806 487.971 613.715 478.428C613.476 451.207 613.006 423.96 612.537 396.725L612.536 396.648C612.38 387.631 612.225 378.615 612.078 369.601C610.1 369.647 608.133 369.681 606.166 369.715C604.2 369.749 602.233 369.783 600.255 369.829C607.712 371.283 609.804 376.644 609.668 383.279C609.542 389.248 609.363 395.218 609.183 401.187L609.183 401.19C608.842 412.532 608.501 423.874 608.531 435.216C608.562 451.388 608.91 467.561 609.258 483.733C609.421 491.28 609.583 498.827 609.713 506.373C598.709 506.124 587.717 505.862 576.724 505.601L576.722 505.601C565.729 505.34 554.736 505.078 543.732 504.828C544.886 505.222 546.031 505.699 547.174 506.174C549.725 507.236 552.266 508.293 554.873 508.418C569.354 509.202 583.863 509.679 598.357 510.155H598.357L598.37 510.155L598.382 510.156L598.395 510.156L598.413 510.157C602.378 510.287 606.342 510.417 610.304 510.554V510.599C610.35 510.054 610.384 532.077 610.418 554.101V554.101ZM499.66 505.066C493.017 504.362 486.367 503.657 479.705 502.965C485.712 502.921 491.675 502.832 497.68 502.742L497.94 502.738C502.987 502.875 507.989 503.011 513.037 503.193C513.81 503.829 514.583 504.454 515.356 505.078C516.129 505.703 516.902 506.328 517.675 506.964C511.672 506.338 505.668 505.702 499.66 505.066ZM612.077 369.556H664.463V367.466H612.214L612.032 369.556H612.077ZM215.825 477.974C216.234 478.008 216.644 478.042 217.053 478.065H217.007V509.054C217.098 523.822 217.144 538.59 217.189 553.358C216.848 555.993 216.519 558.628 216.189 561.264L216.189 561.264L216.189 561.267C215.859 563.901 215.529 566.536 215.189 569.17C214.597 560.628 214.006 552.131 213.415 543.634C213.483 541.997 213.552 540.372 213.62 538.747C213.688 537.123 213.756 535.499 213.824 533.864C213.688 526.798 213.563 519.721 213.438 512.644C213.313 505.567 213.188 498.49 213.051 491.424C213.547 487.334 214.006 483.207 214.461 479.11L214.597 477.883C215.007 477.906 215.416 477.94 215.825 477.974ZM217.234 553.358L217.191 553.69L217.189 553.403L217.234 553.358ZM216.234 561.258L216.234 561.264L216.234 561.264C215.904 563.9 215.574 566.535 215.233 569.171C215.006 572.01 214.779 574.862 214.551 577.713C214.324 580.564 214.096 583.416 213.869 586.256C214.005 586.846 214.051 587.437 213.96 588.028C214.233 591.231 214.517 594.446 214.801 597.661L214.801 597.663L214.802 597.665C215.086 600.878 215.37 604.092 215.643 607.294C216.006 606.128 216.384 604.976 216.759 603.831C217.043 602.968 217.324 602.109 217.598 601.251L217.191 553.69C216.866 556.213 216.55 558.735 216.235 561.257L216.234 561.258ZM481.597 417.095L481.596 417.095L481.479 417.085V445.076H481.48C482.025 445.076 482.525 445.076 483.071 445.121V417.176C482.565 417.176 482.097 417.137 481.597 417.095ZM218.094 364.888C218.111 364.854 218.128 364.819 218.144 364.785H218.099L218.094 364.888ZM218.094 364.888C210.814 380.184 208.743 458.862 213.733 466.796C215.142 434.339 216.595 400.158 218.094 364.888ZM343.812 278.86C344.377 282.082 344.94 285.298 344.878 288.492C344.613 302.702 344.156 316.913 343.699 331.123C343.528 336.451 343.356 341.78 343.195 347.109C341.876 342.974 340.603 338.884 339.33 334.749C339.282 334.062 339.223 333.388 339.163 332.719C339.109 332.105 339.055 331.496 339.012 330.887C339.235 326.454 339.45 322.017 339.666 317.579C340.197 306.64 340.729 295.692 341.376 284.766C341.532 282.402 342.007 280.058 342.481 277.722C342.7 276.646 342.918 275.571 343.104 274.497C343.302 275.951 343.557 277.406 343.812 278.859L343.812 278.86ZM219.917 306.713L219.917 306.713C219.372 306.486 218.826 306.259 218.28 306.077V352.153C218.826 352.153 219.372 352.198 219.917 352.243V306.713ZM342.171 399.437C341.841 410.239 341.512 421.04 341.193 431.853H341.148C341.148 425.931 341.128 420.004 341.107 414.075V414.07V414.065V414.06V414.055V414.049V414.044V414.039V414.034C341.067 402.144 341.027 390.248 341.148 378.371C341.179 375.788 341.772 373.225 342.364 370.669L342.364 370.669L342.364 370.669L342.364 370.668L342.364 370.668L342.364 370.668L342.364 370.668L342.364 370.667L342.364 370.667L342.364 370.667C342.646 369.447 342.928 368.229 343.149 367.011C342.83 377.826 342.501 388.629 342.171 399.432V399.433V399.434V399.434V399.435V399.436V399.436V399.437V399.437ZM303.315 369.647C294.948 370.056 286.568 370.453 278.189 370.851C269.812 371.248 261.434 371.646 253.067 372.055C253.113 372.373 253.158 372.646 253.249 372.964H303.497L303.361 369.692L303.315 369.647ZM466.973 365.784C468.258 365.807 469.543 365.83 470.839 365.83C478.902 365.86 483.465 360.635 484.526 350.153C485.799 354.652 487.072 359.15 488.346 363.694C491.2 365.188 494.08 366.657 496.948 368.119L496.964 368.128C497.928 368.619 498.891 369.11 499.85 369.601C497.431 369.888 494.999 370.163 492.561 370.438C490.371 370.686 488.176 370.934 485.981 371.192V402.863C484.799 402.817 483.571 402.772 482.343 402.772V369.647C478.96 369.629 475.579 369.612 472.199 369.596C458.632 369.53 445.083 369.465 431.504 369.283C428.791 369.251 426.101 368.829 423.418 368.408C422.323 368.236 421.23 368.065 420.136 367.92H361.339C361.248 367.556 361.203 367.193 361.157 366.829C364.681 366.352 368.194 365.887 371.707 365.421L371.709 365.421L371.711 365.42L371.713 365.42L371.715 365.42L371.718 365.419L371.72 365.419C375.228 364.954 378.737 364.489 382.257 364.012L414.452 363.876C419.792 364.227 425.145 364.566 430.503 364.905L430.507 364.906L430.511 364.906C435.553 365.225 440.6 365.545 445.646 365.875C447.587 365.86 449.527 365.84 451.467 365.82C455.347 365.779 459.228 365.739 463.108 365.739C464.404 365.739 465.689 365.762 466.973 365.784ZM756.097 356.786C756.497 354.426 756.895 352.073 756.864 349.699L756.955 349.79C756.727 337.928 756.382 326.066 756.037 314.22C755.901 309.549 755.765 304.881 755.636 300.216H758.956C758.981 305.812 759.024 311.405 759.067 316.995V316.996V316.997V316.999V317C759.178 331.516 759.289 346.015 759.092 360.514C759.092 360.514 759.32 374.009 759.092 386.777C759.038 390.115 758.982 393.454 758.927 396.792C758.477 423.953 758.027 451.145 757.865 478.337C757.833 485.298 758.274 492.28 758.715 499.268C758.917 502.454 759.118 505.64 759.274 508.827L757.41 512.917C757.092 521.596 756.773 543.712 756.455 565.828C756.137 587.943 755.818 610.056 755.5 618.735H753.579C753.625 616.781 755 547.451 755 545.497C755.034 541.919 755.049 538.341 755.064 534.763C755.089 528.799 755.113 522.834 755.227 516.87C755.318 511.326 752.908 508.873 747.224 508.963C738.357 509.1 672.822 508.827 663.909 508.691C663.454 508.464 662.954 508.418 662.454 508.555C662.34 508.305 662.215 508.066 662.09 507.828C661.965 507.589 661.84 507.35 661.726 507.1C670.684 507.01 736.31 506.692 745.268 507.01C752.044 507.282 755.182 505.056 755.273 497.785C755.355 490.255 755.697 482.735 756.039 475.215V475.213V475.211V475.209V475.208C756.454 466.076 756.869 456.946 756.819 447.802C756.72 429.997 756.198 412.216 755.675 394.441C755.472 387.538 755.269 380.637 755.091 373.736H699.295C699.25 372.464 699.204 371.192 699.204 369.919L755.273 369.51L755.591 360.014C755.733 358.935 755.915 357.861 756.097 356.788L756.097 356.786ZM748.908 682.905H750.454V784.325H748.908V682.905Z" fill="#FF3E96"/>
<path d="M231.449 484.62V473.813H244.695C244.695 451.968 244.637 438.431 244.521 433.202C242.894 433.202 240.28 433.202 236.678 433.202C233.076 433.086 230.636 432.97 229.357 432.854C229.125 430.065 229.009 428.38 229.009 427.799C229.009 427.567 229.125 425.824 229.357 422.57C235.167 422.57 240.919 422.57 246.613 422.57L255.328 422.744C268.225 422.744 277.463 422.686 283.041 422.57C306.512 422.454 324.233 427.218 336.201 436.862C348.169 446.507 354.153 460.567 354.153 479.042C354.153 487.408 352.817 495.135 350.145 502.224C347.472 509.312 343.405 515.761 337.944 521.57C332.483 527.264 325.162 531.738 315.983 534.991C306.803 538.245 296.229 539.871 284.261 539.871C283.563 539.871 280.078 539.697 273.803 539.349C267.644 539.116 262.299 538.942 257.768 538.826C257.303 538.826 253.236 538.884 245.567 539C238.014 539 232.495 539 229.009 539C228.776 535.398 228.776 532.086 229.009 529.065L244.173 528.542C244.521 517.387 244.695 502.746 244.695 484.62H231.449ZM283.389 528.019C297.681 528.019 308.255 523.894 315.111 515.644C321.967 507.394 325.395 496.007 325.395 481.482C325.395 465.679 321.444 453.827 313.542 445.926C305.641 438.024 295.241 434.074 282.343 434.074H272.583V473.813H293.673V484.62H272.583V498.912C272.583 512.158 272.641 521.745 272.757 527.671C277.637 527.903 281.181 528.019 283.389 528.019Z" fill="#FFBCD8"/>
<path d="M414.218 597.321H391.741L386.527 613.542L399.04 615.28C399.195 617.366 399.195 619.606 399.04 622C390.621 621.923 384.982 621.884 382.124 621.884C381.97 621.884 380.657 621.923 378.185 622C375.713 622 372.933 622 369.843 622C369.689 619.528 369.689 617.25 369.843 615.164L377.374 613.89L402.053 544.488H414.102L438.317 614.932L444.574 615.164C444.728 617.25 444.728 619.528 444.574 622C437.622 621.923 432.717 621.884 429.859 621.884C429.705 621.884 427.465 621.923 423.139 622C418.891 622 415.145 622 411.901 622C411.746 619.606 411.746 617.404 411.901 615.396L419.432 614.817L414.218 597.321ZM403.327 562.563L393.711 591.413C394.251 591.413 395.448 591.451 397.302 591.528C399.156 591.528 400.624 591.528 401.705 591.528C406.108 591.528 409.777 591.451 412.712 591.297L403.327 562.563ZM414.218 536.262C412.673 534.949 411.901 533.018 411.901 530.469C411.901 527.92 412.673 525.989 414.218 524.676C415.763 523.363 417.733 522.706 420.127 522.706C422.522 522.706 424.491 523.363 426.036 524.676C427.658 525.989 428.469 527.92 428.469 530.469C428.469 533.018 427.658 534.949 426.036 536.262C424.491 537.575 422.522 538.232 420.127 538.232C417.733 538.232 415.763 537.575 414.218 536.262ZM390.698 536.262C389.153 534.949 388.381 533.018 388.381 530.469C388.381 527.92 389.153 525.989 390.698 524.676C392.243 523.363 394.213 522.706 396.607 522.706C399.002 522.706 400.971 523.363 402.516 524.676C404.138 525.989 404.949 527.92 404.949 530.469C404.949 533.018 404.138 534.949 402.516 536.262C400.971 537.575 399.002 538.232 396.607 538.232C394.213 538.232 392.243 537.575 390.698 536.262Z" fill="#FFBCD8"/>
<path d="M574.513 440.886L527.212 371.194L523.801 404.112L520.539 434.807L538.777 437.179C538.777 438.86 538.58 441.133 538.184 444C528.595 443.901 521.28 443.852 516.239 443.852C515.151 443.852 512.581 443.901 508.528 444C504.475 444 501.559 444 499.779 444C499.779 441.924 499.977 439.65 500.373 437.179L511.494 434.955C517.128 385.824 520.143 359.183 520.539 355.031L507.045 352.362L507.787 345.393H531.363L578.962 415.53C579.357 406.04 580.198 395.512 581.483 383.946L584.3 354.734L566.951 352.362C567.05 349.693 567.297 347.37 567.692 345.393C577.677 345.491 584.399 345.541 587.859 345.541C588.847 345.541 591.615 345.541 596.163 345.541C600.71 345.442 603.972 345.393 605.949 345.393C605.949 347.567 605.702 349.891 605.208 352.362L593.493 354.438C590.726 380.832 589.193 395.265 588.897 397.736C588.699 399.515 588.155 404.903 587.266 413.899C586.376 422.796 585.783 429.024 585.486 432.582C584.992 437.624 583.608 442.27 581.334 446.521C579.16 450.87 576.293 454.726 572.734 458.087C569.274 461.448 565.715 464.315 562.058 466.687C558.499 469.06 554.446 471.432 549.899 473.805C548.515 471.926 547.625 470.345 547.23 469.06C548.02 468.466 549.75 467.28 552.419 465.501C555.088 463.721 556.967 462.387 558.054 461.497C559.24 460.706 560.871 459.421 562.947 457.642C565.122 455.863 566.803 454.231 567.989 452.749C569.175 451.365 570.361 449.585 571.548 447.41C572.833 445.335 573.821 443.16 574.513 440.886Z" fill="#FFBCD8"/>
<path d="M669.192 639.47L670.774 635.384C673.674 637.054 676.881 637.888 680.396 637.888C682.417 637.888 684.042 637.229 685.273 635.911C686.503 634.593 687.118 633.012 687.118 631.166C687.118 628.97 686.239 626.949 684.482 625.103C682.812 623.346 680.352 622.116 677.101 621.413L680.396 612.186C667.215 611.22 656.759 606.914 649.026 599.269C641.381 591.625 637.559 581.432 637.559 568.69C637.559 554.455 642.084 543.076 651.135 534.553C660.185 525.941 672.268 521.636 687.381 521.636C690.721 521.636 694.894 522.119 699.903 523.085C704.912 523.964 708.558 524.447 710.843 524.535C711.282 524.535 712.469 524.535 714.402 524.535C716.423 524.447 717.565 524.403 717.829 524.403L717.96 550.106C715.324 550.369 712.996 550.501 710.975 550.501C708.866 550.501 706.361 550.369 703.462 550.106L702.539 538.639C702.363 535.915 701.88 534.025 701.089 532.971C700.298 531.916 698.849 531.301 696.74 531.126C693.049 530.862 691.16 530.73 691.072 530.73C681.933 530.73 674.333 533.674 668.27 539.561C662.294 545.361 659.307 554.236 659.307 566.186C659.307 578.136 662.602 587.363 669.192 593.865C675.87 600.28 683.691 603.487 692.654 603.487C694.323 603.487 696.037 603.355 697.794 603.092C699.464 602.828 700.694 602.345 701.485 601.642C702.363 600.851 702.847 599.489 702.935 597.556L704.912 580.948C705.79 580.948 706.977 580.948 708.47 580.948C710.052 580.86 711.194 580.816 711.897 580.816C712.6 580.816 713.743 580.86 715.324 580.948C716.906 580.948 718.224 580.948 719.278 580.948L717.829 609.418L710.843 609.287C708.734 609.462 704.912 610.033 699.376 611C693.928 611.879 689.622 612.362 686.459 612.45L685.273 616.272C690.457 617.151 694.411 618.864 697.135 621.413C699.859 624.049 701.221 626.949 701.221 630.112C701.221 633.715 699.508 636.834 696.081 639.47C692.742 642.106 688.084 643.424 682.109 643.424C677.452 643.424 673.146 642.106 669.192 639.47Z" fill="#FFBCD8"/>
<path d="M456.369 307.975L453.255 336.741L443.616 336.148C440.75 338.62 438.278 341.536 436.202 344.897C434.225 348.357 433.237 351.619 433.237 354.684C433.237 359.527 435.856 361.949 441.096 361.949C443.172 361.949 445.396 361.554 447.768 360.763L448.065 365.36C444.111 366.941 440.157 367.732 436.202 367.732C431.359 367.732 427.75 366.645 425.378 364.47C423.005 362.295 421.819 359.429 421.819 355.87C421.819 352.311 423.154 348.752 425.823 345.193C428.492 341.734 432.051 338.669 436.499 336H418.112C408.622 335.901 402.147 335.852 398.687 335.852C397.797 335.852 394.782 335.901 389.642 336C384.501 336 380.547 336 377.779 336C377.779 333.924 377.977 331.65 378.373 329.179L390.976 328.734C391.767 323.198 393.448 308.864 396.018 285.732C396.117 284.744 396.71 278.566 397.797 267.197C398.984 255.829 399.725 248.365 400.022 244.807L387.566 244.362C387.665 242.78 387.912 240.457 388.307 237.393C389.988 237.393 393.695 237.442 399.429 237.541C405.162 237.541 408.573 237.541 409.66 237.541H448.362L460.965 236.948L458.445 262.452C455.479 262.65 453.453 262.749 452.365 262.749C451.278 262.749 449.647 262.65 447.472 262.452L447.917 250.886C447.917 248.81 447.521 247.426 446.73 246.734C445.94 245.944 444.654 245.548 442.875 245.548C441.985 245.548 437.735 245.548 430.123 245.548C422.511 245.449 418.26 245.4 417.371 245.4C416.184 254.494 414.85 266.406 413.367 281.136C421.177 281.136 427.009 281.086 430.864 280.987L433.978 267.79C435.856 267.593 438.575 267.593 442.134 267.79C440.75 279.949 439.514 292.257 438.427 304.713C435.56 304.811 432.792 304.762 430.123 304.564L429.975 288.698C428.887 288.698 427.355 288.698 425.378 288.698C423.5 288.599 422.116 288.55 421.226 288.55C420.336 288.55 418.903 288.599 416.926 288.698C414.949 288.698 413.466 288.698 412.477 288.698C412.378 289.983 411.785 295.914 410.698 306.492C409.611 317.069 408.919 324.187 408.622 327.845H436.202C440.157 327.845 442.48 325.67 443.172 321.32L445.544 308.123C450.388 307.925 453.996 307.876 456.369 307.975Z" fill="#FFBCD8"/>
<path d="M530.621 740.04L562.255 708.971L552.878 707.164C552.878 706.787 553.028 705.356 553.329 702.871C554.007 702.871 556.154 702.908 559.769 702.984C563.46 702.984 565.908 702.984 567.113 702.984L581.235 702.871C581.235 704.151 581.084 705.582 580.783 707.164L569.824 708.971L540.789 736.99L569.372 773.368L578.297 773.707C578.297 775.213 578.147 776.644 577.845 778C570.464 777.925 565.418 777.887 562.707 777.887C561.501 777.887 558.752 777.925 554.459 778C550.241 778 547.794 778 547.116 778C547.116 776.72 547.266 775.289 547.568 773.707L555.25 773.368L530.621 740.04ZM500.456 702.419L508.252 702.984H528.588L541.354 702.871C541.354 704.151 541.203 705.582 540.902 707.164L533.333 707.503C532.956 710.063 532.504 713.49 531.977 717.783C531.525 722.001 531.035 726.332 530.508 730.776C530.056 735.22 529.755 738.157 529.604 739.588C528.173 751.036 527.081 762.296 526.328 773.368L535.931 773.707C535.931 774.083 535.78 775.515 535.479 778C528.098 777.925 523.052 777.887 520.34 777.887C519.135 777.887 516.537 777.925 512.545 778C508.628 778 506.331 778 505.653 778C505.653 776.72 505.804 775.289 506.105 773.707L515.821 773.368C516.65 767.87 517.93 756.647 519.662 739.701C521.244 725.24 522.299 714.62 522.826 707.842L509.382 708.068C507.348 708.068 506.181 709.348 505.879 711.909L504.072 724.223C503.469 724.298 502.377 724.336 500.795 724.336C499.59 724.336 498.686 724.298 498.084 724.223C498.686 717.294 499.477 710.026 500.456 702.419Z" fill="#FF3E96"/>
<path d="M405.203 472L410.287 446.241L400.91 447.71C398.575 454.941 395.073 461.004 390.403 465.899C385.733 470.795 380.386 473.243 374.36 473.243C370.745 473.243 368.109 472.414 366.452 470.757C364.87 469.1 364.079 467.255 364.079 465.221C364.079 462.133 365.774 460.589 369.163 460.589C370.293 460.589 371.649 461.832 373.231 464.318C374.887 466.728 376.507 467.933 378.088 467.933C381.402 467.933 384.302 466.314 386.788 463.075C389.348 459.836 391.231 455.807 392.437 450.986C393.642 446.091 394.244 440.931 394.244 435.509C394.244 431.366 393.566 427.977 392.211 425.341C390.855 422.629 388.708 421.274 385.771 421.274C381.026 421.274 376.996 423.232 373.682 427.148C372.703 426.847 372.025 426.395 371.649 425.793C373.908 422.328 376.733 419.541 380.122 417.432C383.511 415.248 386.976 414.156 390.516 414.156C393.378 414.156 395.713 414.759 397.52 415.964C399.403 417.093 400.721 418.75 401.475 420.935C402.228 423.043 402.717 424.964 402.943 426.696C403.169 428.429 403.282 430.5 403.282 432.91C403.282 435.772 403.019 438.521 402.491 441.157L411.53 440.028L416.388 415.173H425.087L420.455 438.672C424.898 437.919 428.288 437.09 430.623 436.186C433.183 429.784 436.648 424.512 441.016 420.37C445.46 416.227 450.431 414.156 455.929 414.156C459.545 414.156 462.143 414.984 463.725 416.641C465.382 418.298 466.21 420.144 466.21 422.177C466.21 425.265 464.516 426.809 461.126 426.809C459.997 426.809 458.603 425.604 456.946 423.194C455.364 420.709 453.783 419.466 452.201 419.466C448.887 419.466 445.987 421.123 443.502 424.437C441.016 427.676 439.209 431.705 438.079 436.525C436.949 441.27 436.384 446.392 436.384 451.89C436.384 461.38 439.096 466.125 444.519 466.125C449.264 466.125 453.293 464.167 456.607 460.25C457.586 460.552 458.264 461.004 458.641 461.606C456.381 465.071 453.557 467.895 450.168 470.079C446.778 472.188 443.314 473.243 439.774 473.243C436.912 473.243 434.539 472.678 432.656 471.548C430.849 470.343 429.568 468.686 428.815 466.577C428.062 464.393 427.572 462.435 427.346 460.702C427.12 458.97 427.007 456.899 427.007 454.489C427.007 450.271 427.572 446.091 428.702 441.948C426.066 442.852 422.94 443.718 419.325 444.547L413.902 472H405.203ZM422.036 400.825C425.2 400.825 427.497 399.921 428.928 398.113C430.434 396.23 430.999 393.632 430.623 390.318H438.305C437.928 399.205 432.28 403.649 421.359 403.649C416.011 403.649 412.17 402.557 409.835 400.373C407.575 398.113 406.822 394.762 407.575 390.318H415.258C413.601 397.322 415.86 400.825 422.036 400.825Z" fill="#FF3E96"/>
<path d="M681.053 754.166C683.5 756.836 686.365 758.616 689.648 759.506C692.986 760.396 696.936 760.841 701.497 760.841C702.388 760.841 704.001 760.702 706.337 760.424C706.337 762.649 706.087 764.541 705.586 766.099C703.25 766.599 701.052 766.85 698.994 766.85C693.486 766.85 688.925 766.015 685.308 764.346C681.748 762.733 678.354 759.868 675.128 755.751C673.848 755.918 672.708 756.001 671.706 756.001C664.697 756.001 658.939 753.776 654.432 749.325C649.982 744.875 647.757 738.7 647.757 730.8C647.757 722.121 650.566 714.583 656.185 708.185C661.859 701.732 669.119 698.505 677.965 698.505C685.197 698.505 690.76 700.035 694.655 703.095C693.82 704.263 692.262 705.821 689.982 707.768C686.143 704.43 681.692 702.761 676.63 702.761C672.346 702.761 668.563 704.124 665.281 706.85C662.054 709.521 659.634 712.886 658.021 716.947C656.463 721.009 655.684 725.348 655.684 729.965C655.684 736.252 657.158 741.398 660.107 745.403C663.055 749.353 667.256 751.523 672.708 751.912C671.094 749.298 669.815 746.266 668.869 742.817C667.923 739.367 667.45 736.363 667.45 733.804C667.45 728.13 669.092 723.29 672.374 719.284C675.656 715.223 680.19 713.192 685.976 713.192C690.594 713.192 694.349 714.472 697.242 717.031C700.134 719.534 701.581 723.29 701.581 728.296C701.581 734.138 699.689 739.395 695.906 744.068C692.179 748.686 687.228 752.051 681.053 754.166ZM685.809 717.448C683.806 717.448 682.054 718.004 680.552 719.117C679.05 720.174 677.882 721.621 677.047 723.456C676.268 725.292 675.684 727.239 675.295 729.298C674.961 731.301 674.794 733.415 674.794 735.64C674.794 741.314 676.185 746.433 678.966 750.994C683.639 749.604 687.311 746.822 689.982 742.65C692.708 738.422 694.071 733.721 694.071 728.547C694.071 724.764 693.292 721.982 691.734 720.202C690.232 718.366 688.257 717.448 685.809 717.448Z" fill="#FF3E96"/>
<path d="M268.717 668.576C268.717 666.129 269.471 664.01 270.977 662.221C272.577 660.339 274.649 659.397 277.191 659.397C279.168 659.397 280.721 659.962 281.851 661.092C283.075 662.221 283.687 663.869 283.687 666.034C283.687 669.047 282.887 671.354 281.286 672.954C279.686 674.461 277.756 675.214 275.496 675.214C273.519 675.214 271.871 674.649 270.553 673.519C269.329 672.389 268.717 670.742 268.717 668.576ZM294.561 668.576C294.561 666.129 295.314 664.01 296.82 662.221C298.327 660.339 300.351 659.397 302.893 659.397C304.87 659.397 306.47 659.962 307.694 661.092C308.918 662.221 309.53 663.916 309.53 666.176C309.53 669.188 308.683 671.448 306.988 672.954C305.388 674.461 303.458 675.214 301.198 675.214C296.773 675.214 294.561 673.001 294.561 668.576ZM279.309 772.374C286.182 772.374 292.678 769.455 298.797 763.618C305.011 757.781 308.918 749.496 310.519 738.763H253.889C253.795 739.516 253.748 740.599 253.748 742.011C253.748 750.014 256.008 757.075 260.527 763.194C265.046 769.314 271.306 772.374 279.309 772.374ZM283.828 689.901C279.968 689.901 275.214 690.795 269.565 692.584C264.01 694.279 259.585 696.067 256.29 697.95L253.748 692.019C254.972 691.266 256.619 690.371 258.691 689.336C260.856 688.3 264.81 686.888 270.553 685.099C276.39 683.31 281.757 682.416 286.652 682.416C298.515 682.416 307.93 686.135 314.897 693.572C321.958 701.01 325.488 710.66 325.488 722.523C325.488 738.998 320.875 752.65 311.648 763.477C302.422 774.304 291.454 779.717 278.744 779.717C272.624 779.717 267.211 778.823 262.504 777.034C257.796 775.245 254.03 772.986 251.206 770.255C248.476 767.431 246.216 764.183 244.427 760.511C242.733 756.745 241.556 753.168 240.897 749.778C240.332 746.295 240.05 742.717 240.05 739.046C240.05 737.068 240.097 735.656 240.191 734.809L240.614 731.137H311.79C311.978 727.56 312.072 725.253 312.072 724.217C312.072 713.861 309.718 705.576 305.011 699.363C300.304 693.055 293.243 689.901 283.828 689.901Z" fill="#FF3E96"/>
<path d="M578.011 571.687C578.011 584.397 565.066 592.353 539.175 595.554C538.705 598.378 538.469 602.05 538.469 606.569C538.469 611.276 539.458 615.277 541.435 618.573C543.412 621.774 546.472 623.374 550.614 623.374C554.098 623.374 557.44 622.621 560.641 621.115C563.842 619.514 566.196 617.914 567.702 616.313C568.643 616.69 569.35 617.255 569.82 618.008C566.337 623.186 561.582 627.14 555.557 629.87C553.015 631.847 550.567 634.625 548.214 638.202C545.954 641.874 544.824 645.075 544.824 647.805C544.824 649.971 545.577 651.712 547.084 653.03C548.59 654.348 550.708 655.008 553.439 655.008C555.227 655.008 557.299 654.678 559.652 654.019L559.794 658.114C556.687 659.432 553.203 660.091 549.343 660.091C545.013 660.091 541.764 659.103 539.599 657.126C537.434 655.149 536.351 652.56 536.351 649.359C536.351 643.992 540.399 638.108 548.496 631.706C546.801 632.271 545.389 632.553 544.259 632.553C537.857 632.553 533.197 630.341 530.279 625.916C527.36 621.397 525.901 615.889 525.901 609.393C525.901 605.91 526.418 601.391 527.454 595.836C520.205 595.836 514.885 594.471 511.496 591.741C508.201 589.01 506.742 585.621 507.118 581.573C507.495 577.43 509.284 572.864 512.485 567.874C515.592 568.345 518.228 569.287 520.393 570.699C517.192 576.348 516.204 581.384 517.427 585.809C518.745 590.14 522.37 592.4 528.301 592.588C531.408 582.514 536.21 574.323 542.706 568.016C549.202 561.614 556.498 558.413 564.595 558.413C569.02 558.413 572.362 559.636 574.622 562.084C576.881 564.532 578.011 567.733 578.011 571.687ZM558.664 565.191C554.521 565.191 550.803 567.592 547.507 572.393C544.212 577.195 541.623 583.785 539.74 592.164C557.158 588.493 565.866 582.043 565.866 572.817C565.866 570.84 565.301 569.098 564.171 567.592C563.136 565.991 561.3 565.191 558.664 565.191Z" fill="#FF3E96"/>
<path d="M258.418 624.456L267.005 581.073C267.984 576.253 267.268 573.843 264.858 573.843C263.879 573.843 262.598 574.37 261.017 575.424C259.435 576.403 258.042 577.608 256.837 579.039L255.255 577.232C257.74 573.918 260.264 571.357 262.824 569.549C265.461 567.666 267.795 566.725 269.829 566.725C274.273 566.725 276.495 569.474 276.495 574.972C276.495 576.027 276.344 577.382 276.043 579.039L271.524 600.053H271.863C277.436 590.186 282.934 582.165 288.357 575.989C293.855 569.738 298.45 566.612 302.14 566.612C305.53 566.612 308.128 567.968 309.936 570.679C309.032 573.014 307.262 575.274 304.626 577.458C302.893 576.177 301.236 575.537 299.655 575.537C294.307 575.537 287.717 581.299 279.884 592.823C295.475 592.973 303.27 599.488 303.27 612.368C303.27 621.104 299.956 629.013 293.328 636.093C286.775 643.173 278.942 648.294 269.829 651.457C269.226 650.704 268.812 649.65 268.586 648.294C275.591 645.507 281.466 641.064 286.211 634.963C291.031 628.862 293.441 621.594 293.441 613.158C293.441 602.313 287.868 597.003 276.721 597.229C273.783 601.522 271.674 605.551 270.394 609.317C269.189 613.083 268.134 618.129 267.23 624.456H258.418Z" fill="#FF3E96"/>
<path d="M660.082 472L666.248 440.005C666.581 437.783 666.609 436.339 666.331 435.672C666.109 435.006 665.554 434.673 664.665 434.673C663.998 434.673 663.082 435.034 661.915 435.756C660.804 436.478 659.805 437.394 658.916 438.505L657.749 437.172C661.582 432.006 665.082 429.423 668.248 429.423C669.97 429.423 671.22 430.007 671.997 431.173C672.83 432.34 673.247 433.784 673.247 435.506C673.247 435.561 672.219 440.922 670.164 451.587C672.941 444.365 675.802 438.839 678.746 435.006C681.746 431.173 685.19 429.257 689.078 429.257C691.466 429.257 693.216 429.979 694.327 431.423C695.438 432.867 695.993 434.645 695.993 436.756C695.993 437.755 694.771 442.866 692.327 452.086C695.271 444.754 698.187 439.116 701.076 435.172C703.964 431.229 707.214 429.257 710.824 429.257C713.046 429.257 714.74 430.062 715.907 431.673C717.129 433.228 717.74 435.089 717.74 437.255C717.74 437.922 717.629 438.811 717.407 439.922L712.158 463.085C711.88 464.251 711.88 465.307 712.158 466.251C712.435 467.14 712.963 467.584 713.741 467.584C715.24 467.584 717.129 466.195 719.406 463.418L720.989 465.084C719.767 466.251 718.823 467.973 718.157 470.25C717.49 472.472 716.99 474.527 716.657 476.416C716.379 478.305 715.407 480.165 713.741 481.998C712.13 483.831 709.769 485.109 706.658 485.831C706.325 485.387 706.047 484.804 705.825 484.081C707.214 483.304 708.325 482.082 709.158 480.415C710.047 478.749 710.963 476.86 711.908 474.75C712.907 472.694 714.129 471.028 715.574 469.75L715.407 469.5C713.352 471.778 711.269 472.917 709.158 472.917C706.492 472.917 705.159 471.083 705.159 467.417C705.159 466.306 705.297 465.112 705.575 463.835L710.741 440.005C711.019 438.839 710.908 437.755 710.408 436.756C709.963 435.7 709.075 435.172 707.742 435.172C705.964 435.172 704.075 436.394 702.076 438.839C700.132 441.227 698.299 444.338 696.577 448.17C694.91 451.948 693.383 455.864 691.994 459.919C690.661 463.973 689.522 468.001 688.578 472H682.329L689.244 440.005C689.578 438.561 689.467 437.394 688.911 436.506C688.411 435.617 687.439 435.172 685.995 435.172C683.94 435.172 681.801 436.394 679.579 438.839C677.413 441.283 675.469 444.393 673.747 448.17C672.08 451.892 670.581 455.864 669.248 460.085C667.97 464.251 666.998 468.223 666.331 472H660.082Z" fill="#FF3E96"/>
<path d="M289.271 336.382L292.943 332.286L316.526 354.599L312.996 358.695L289.271 336.382ZM261.592 344.573L269.359 301.5C269.641 299.9 269.782 298.535 269.782 297.405C269.782 294.957 268.7 293.733 266.534 293.733C263.804 293.733 260.509 295.899 256.649 300.229L254.531 297.97C261.027 289.214 267.052 284.836 272.607 284.836C278.067 284.836 280.798 288.32 280.798 295.287C280.798 297.075 280.656 298.723 280.374 300.229L276.137 320.989C280.656 308.938 285.411 299.853 290.401 293.733C295.485 287.519 301.322 284.413 307.912 284.413C312.808 284.413 316.479 286.39 318.927 290.344C321.469 294.204 322.74 299.194 322.74 305.313C322.74 313.504 321.187 321.648 318.08 329.744C314.973 337.747 310.313 344.573 304.099 350.221C297.979 355.776 291.154 358.553 283.622 358.553C280.703 358.553 276.184 358.224 270.065 357.565C266.675 375.359 264.934 384.491 264.84 384.962L281.362 385.527C281.08 387.315 280.75 389.01 280.374 390.611C268.888 390.516 261.309 390.469 257.637 390.469C256.037 390.469 253.024 390.469 248.599 390.469C244.174 390.563 241.491 390.611 240.55 390.611C240.926 388.351 241.256 386.656 241.538 385.527L252.271 385.103C253.777 381.055 256.884 367.544 261.592 344.573ZM301.698 294.298C298.121 294.298 294.261 297.264 290.118 303.195C285.976 309.126 282.351 316.093 279.244 324.096C276.137 332.098 273.642 340.148 271.759 348.244C275.337 350.786 279.432 352.057 284.046 352.057C289.6 352.057 294.449 349.892 298.591 345.561C302.734 341.23 305.747 336.005 307.63 329.886C309.512 323.672 310.454 317.27 310.454 310.68C310.454 305.972 309.654 302.065 308.053 298.958C306.453 295.851 304.334 294.298 301.698 294.298Z" fill="#FF3E96"/>
<path d="M462.426 689.618L450.281 690.042C449.81 693.243 449.104 698.609 448.163 706.141H458.048C458.048 707.93 457.813 709.813 457.342 711.79H447.598L445.621 730.007C443.361 751.473 441.996 765.548 441.525 772.232L453.388 772.656C453.388 773.692 453.247 775.48 452.964 778.022C443.832 777.928 437.524 777.881 434.041 777.881C432.534 777.881 429.286 777.928 424.297 778.022C419.401 778.022 416.529 778.022 415.682 778.022C415.682 776.704 415.823 774.916 416.106 772.656L428.392 772.232C429.71 764.042 431.263 750.814 433.052 732.549C430.416 732.549 426.744 732.549 422.037 732.549C417.33 732.455 413.846 732.408 411.587 732.408C409.327 732.408 405.844 732.455 401.136 732.549C396.523 732.549 392.993 732.549 390.545 732.549C388.568 751.285 387.297 764.512 386.732 772.232L398.594 772.656C398.594 773.692 398.453 775.48 398.171 778.022C388.944 777.928 382.636 777.881 379.247 777.881C377.741 777.881 374.493 777.928 369.503 778.022C364.607 778.022 361.736 778.022 360.888 778.022C360.888 776.704 361.03 774.916 361.312 772.656L373.598 772.232C374.634 765.36 376.234 751.332 378.4 730.149L380.377 711.79H371.056C371.056 710.001 371.292 708.118 371.762 706.141H380.801L382.354 690.042L370.35 689.618C370.35 689.148 370.539 687.359 370.915 684.252C371.762 684.252 374.681 684.299 379.671 684.393C384.755 684.393 388.05 684.393 389.556 684.393L408.197 684.252C408.197 685.852 408.009 687.641 407.632 689.618L395.488 690.042C395.017 693.055 394.311 698.421 393.369 706.141H435.877L437.289 690.042L425.144 689.618C425.144 689.148 425.332 687.359 425.709 684.252C426.556 684.252 429.522 684.299 434.606 684.393C439.69 684.393 442.985 684.393 444.491 684.393L462.991 684.252C462.991 685.852 462.803 687.641 462.426 689.618ZM391.251 726.477C395.958 726.571 403.019 726.618 412.434 726.618C421.849 726.618 428.957 726.571 433.758 726.477L435.312 711.79H392.804C392.522 713.955 392.192 716.827 391.816 720.404C391.533 723.982 391.345 726.006 391.251 726.477Z" fill="#FF3E96"/>
<path d="M723.43 292.349C723.43 307.917 707.574 317.661 675.861 321.582C675.284 325.042 674.996 329.539 674.996 335.075C674.996 340.841 676.207 345.742 678.629 349.778C681.05 353.699 684.798 355.659 689.872 355.659C694.139 355.659 698.233 354.737 702.154 352.891C706.075 350.931 708.958 348.971 710.803 347.01C711.956 347.471 712.821 348.163 713.398 349.086C709.131 355.428 703.307 360.272 695.927 363.616C692.813 366.038 689.815 369.44 686.932 373.822C684.164 378.319 682.78 382.24 682.78 385.585C682.78 388.237 683.703 390.37 685.548 391.985C687.393 393.599 689.988 394.407 693.332 394.407C695.523 394.407 698.06 394.003 700.943 393.196L701.116 398.212C697.311 399.827 693.044 400.634 688.316 400.634C683.011 400.634 679.032 399.423 676.38 397.001C673.728 394.579 672.401 391.408 672.401 387.487C672.401 380.914 677.36 373.707 687.278 365.865C685.202 366.557 683.472 366.903 682.088 366.903C674.247 366.903 668.538 364.193 664.963 358.773C661.388 353.237 659.601 346.491 659.601 338.534C659.601 334.267 660.235 328.732 661.504 321.928C652.624 321.928 646.109 320.256 641.957 316.912C637.921 313.567 636.133 309.416 636.595 304.457C637.056 299.383 639.247 293.79 643.168 287.678C646.973 288.255 650.202 289.408 652.855 291.138C648.934 298.057 647.723 304.227 649.222 309.647C650.837 314.951 655.276 317.719 662.542 317.95C666.347 305.61 672.228 295.578 680.186 287.851C688.143 280.009 697.08 276.089 706.997 276.089C712.417 276.089 716.511 277.588 719.279 280.586C722.047 283.584 723.43 287.505 723.43 292.349ZM699.732 284.392C694.658 284.392 690.103 287.332 686.067 293.213C682.031 299.095 678.859 307.167 676.553 317.431C697.887 312.933 708.554 305.034 708.554 293.732C708.554 291.311 707.862 289.177 706.478 287.332C705.21 285.372 702.961 284.392 699.732 284.392Z" fill="#FF3E96"/>
<path d="M1428.12 20.0982C1428.28 12.7508 1432.83 5.58405 1439.81 0.100975C1431.92 3.05068 1425.65 12.0211 1427.56 19.9605L1428.12 20.0982Z" fill="#FF3E96"/>
<path d="M1.69345 817.199C0.911744 811.891 2.58891 807.232 5.808 804.079C1.78945 805.289 -0.627641 811.053 1.36571 817.033L1.69345 817.199Z" fill="#FF3E96"/>
</svg>
