<svg width="1450" height="708" viewBox="0 0 1450 708" fill="none" xmlns="http://www.w3.org/2000/svg">
<path d="M1288.9 37.5599C1286.76 34.2548 1285.21 32.4423 1278.84 26.5446C1274.75 22.7789 1272.95 20.1265 1272.36 17.1506C1271.65 13.5633 1274.17 10.0154 1277.76 9.30593C1280.29 8.80605 1282.87 9.65098 1284.82 12.0185C1285.76 9.07854 1287.83 7.31449 1290.4 6.80655C1293.9 6.11318 1297.66 8.4194 1298.37 12.0067C1298.94 14.9011 1298.46 17.8339 1295.97 23.1992C1292.28 31.129 1291.49 33.5314 1290.81 37.181L1288.9 37.5599ZM1289.13 33.8279C1289.74 31.5473 1290.99 28.4613 1292.75 24.6836C1294.5 20.906 1295.53 18.2025 1295.9 16.6467C1296.27 15.091 1296.33 13.6812 1296.09 12.4582C1295.63 10.1346 1293.21 8.62178 1290.85 9.08941C1288.48 9.55703 1286.89 11.9904 1286.62 15.5593L1284.54 15.9705C1282.8 12.5032 1280.45 11.1453 1278.21 11.5888C1275.89 12.0483 1274.19 14.3755 1274.65 16.6991C1274.88 17.8813 1275.46 19.1213 1276.36 20.4271C1277.25 21.733 1279.22 23.7583 1282.22 26.5111C1285.21 29.2232 1287.52 31.6893 1289.13 33.8279Z" fill="white"/>
<path d="M1450 170H1.32127C0.869253 169.765 0.452017 169.53 0 169.295C4.03338 168.982 8.03199 168.395 12.0654 168.388C73.1919 168.336 134.318 168.317 195.445 168.375C244.645 168.421 293.88 168.708 343.081 168.643C433.832 168.532 524.583 168.193 615.334 168.036C663.282 167.951 711.231 168.036 759.179 168.088C807.997 168.147 856.85 168.258 905.668 168.362C958.519 168.473 1011.34 168.728 1064.19 168.695C1113.73 168.662 1163.25 168.225 1212.8 168.167C1232.09 168.14 1251.43 168.852 1270.76 168.878C1319.61 168.949 1368.5 168.826 1417.35 168.786C1428.23 168.78 1439.08 168.786 1449.97 168.786C1449.97 169.191 1449.97 169.595 1449.97 170H1450Z" fill="#FF3E96"/>
<path d="M1450 444H1.32127C0.869253 443.765 0.452017 443.53 0 443.295C4.03338 442.982 8.03199 442.395 12.0654 442.388C73.1919 442.336 134.318 442.317 195.445 442.375C244.645 442.421 293.88 442.708 343.081 442.643C433.832 442.532 524.583 442.193 615.334 442.036C663.282 441.951 711.231 442.036 759.179 442.088C807.997 442.147 856.85 442.258 905.668 442.362C958.519 442.473 1011.34 442.728 1064.19 442.695C1113.73 442.662 1163.25 442.225 1212.8 442.167C1232.09 442.14 1251.43 442.852 1270.76 442.878C1319.61 442.949 1368.5 442.826 1417.35 442.786C1428.23 442.78 1439.08 442.786 1449.97 442.786C1449.97 443.191 1449.97 443.595 1449.97 444H1450Z" fill="#FF3E96"/>
<path d="M648 256L648 383.883C647.883 383.923 647.765 383.96 647.648 384C647.491 383.644 647.197 383.291 647.194 382.935C647.168 377.539 647.158 372.143 647.188 366.747C647.21 362.404 647.354 358.057 647.321 353.714C647.266 345.703 647.096 337.692 647.018 329.681C646.976 325.448 647.018 321.215 647.044 316.983C647.073 312.673 647.129 308.361 647.181 304.051C647.237 299.386 647.364 294.724 647.348 290.058C647.331 285.684 647.113 281.313 647.083 276.939C647.07 275.236 647.426 273.529 647.439 271.823C647.475 267.51 647.413 263.195 647.393 258.882C647.39 257.921 647.393 256.964 647.393 256.003C647.595 256.003 647.798 256.003 648 256.003L648 256Z" fill="#FF3E96"/>
<path d="M390 256L390 383.883C389.883 383.923 389.765 383.96 389.648 384C389.491 383.644 389.197 383.291 389.194 382.935C389.168 377.539 389.158 372.143 389.188 366.747C389.21 362.404 389.354 358.057 389.321 353.714C389.266 345.703 389.096 337.692 389.018 329.681C388.976 325.448 389.018 321.215 389.044 316.983C389.073 312.673 389.129 308.361 389.181 304.051C389.237 299.386 389.364 294.724 389.348 290.058C389.331 285.684 389.113 281.313 389.083 276.939C389.07 275.236 389.426 273.529 389.439 271.823C389.475 267.51 389.413 263.195 389.393 258.882C389.39 257.921 389.393 256.964 389.393 256.003C389.595 256.003 389.798 256.003 390 256.003L390 256Z" fill="#FF3E96"/>
<path fill-rule="evenodd" clip-rule="evenodd" d="M10 687.486C15.1777 684.393 19.5625 679.801 22.4375 673.999C28.7207 661.311 38.0312 651.445 49.293 643.167C52.0254 641.159 54.8203 639.218 57.6172 637.278C63.9531 632.881 70.2891 628.483 75.8828 623.293C90.8398 609.407 88.8789 587.956 72.209 576.179C69.084 573.975 65.6055 572.278 62.1309 570.584C60.9023 569.985 59.6738 569.387 58.4609 568.766C57.3535 568.196 56.1973 567.716 55.043 567.236L55.0195 567.225C53.6953 566.673 52.3691 566.122 51.1113 565.439C45.543 562.407 44.3535 558.406 48.8184 554.043C55.0039 547.989 57.0078 540.305 59.0234 532.573L59.1387 532.135C63.3555 515.921 54.1113 501.949 37.6504 499.44C29.3965 498.176 21.4863 499.649 14.2227 503.698C12.7695 504.507 11.3594 505.361 10 506.268V687.486ZM44.668 603.096C43.6582 607.249 40.127 608.846 34.3848 609.35C34.0508 609.181 33.6738 609.004 33.2656 608.816L32.5234 608.48C30.6328 607.625 28.2617 606.552 26.1973 605.054C23.6562 603.21 22.6289 600.292 24.2363 597.06C25.7695 593.991 28.3203 592.641 31.6152 593.154C34.0898 593.535 36.5566 594.238 38.9082 595.122C42.5156 596.481 45.7324 598.695 44.668 603.096ZM102.109 630.56C113.869 636.52 117.211 653.05 108.67 662.97C106.711 665.25 106.84 666.63 109.119 668.83C109.959 669.643 110.812 670.444 111.666 671.245C114.018 673.452 116.369 675.66 118.43 678.11C120.24 680.27 121.58 682.99 122.539 685.67C124.66 691.59 120.59 697.26 114.42 696.58C110.689 696.17 106.971 694.65 103.529 693.03C100.67 691.68 99.4805 691.66 99.0098 694.94C98.1797 700.66 95.1309 704.4 89.9609 706.64C85.3594 708.63 82.1895 707.35 80.3594 702.75C78.5137 698.11 75.2695 696.47 70.6309 697.83C65.0898 699.45 61.5098 697.56 59.7402 692.08C57.0508 683.73 59.2793 676.53 66.2695 671.02C70.25 667.88 70.3691 667.34 67.0703 663.45C63 658.64 61.2305 653.53 64.1895 647.46C67.2207 641.24 73.2598 639.71 78.8691 643.82C82.2969 646.327 84.6562 645.62 85.9492 641.7C88.1602 635.03 94.9902 630.38 102.221 630.62L102.109 630.56ZM105.17 649.31C105.119 641.5 103.1 639.22 98.7598 640.58C97.0098 641.13 95.1699 642.84 94.3301 644.5C93.0176 647.109 92.1484 649.963 91.2871 652.792L90.8203 654.32C90.4805 655.43 90.1406 656.91 90.6094 657.81C91.4004 659.36 92.6094 660.92 94.0391 661.87C95.7695 663.02 97.8809 662.54 99.1602 660.86C102.24 656.8 105.119 652.59 105.17 649.31ZM69.9395 689.75C70.5137 689.334 71.0117 688.999 71.4473 688.707C72.2266 688.185 72.7949 687.804 73.1992 687.29C74.2773 685.914 75.3516 684.526 76.3809 683.107C77.2812 681.866 78.1465 680.601 78.9492 679.3C79.3555 678.647 79.3457 677.739 79.3359 676.831C79.3301 676.419 79.3262 676.007 79.3594 675.62C78.9238 675.633 78.4609 675.598 77.9961 675.563C77.4004 675.519 76.8027 675.474 76.2656 675.53C75.8887 675.569 75.5391 675.657 75.2402 675.83C71.3398 678.09 69.1191 681.8 68.0996 686.08C68.0273 686.375 68.1133 686.709 68.2891 687.075C68.4727 687.46 68.7559 687.881 69.0586 688.333C69.3574 688.777 69.6758 689.251 69.9395 689.75ZM103.211 675.05L102.52 675.66C103.24 680.37 105.039 684.4 109.961 686.16C110.703 686.429 111.58 686.341 112.453 686.254C112.848 686.215 113.24 686.176 113.619 686.17C113.539 685.784 113.498 685.352 113.459 684.921C113.369 683.976 113.281 683.03 112.76 682.57C110.545 680.61 108.18 678.822 105.812 677.032L105.66 676.915C104.842 676.296 104.021 675.677 103.211 675.05ZM73.1934 656.349L73.2227 656.399C73.5449 656.937 73.9863 657.671 74.6309 658.11C76.0898 659.11 77.7207 659.96 79.4004 660.48C79.834 660.613 80.3105 660.606 80.8047 660.545C81.1035 660.509 81.4082 660.453 81.7129 660.397C82.0742 660.331 82.4375 660.264 82.7891 660.23C82.75 659.828 82.7559 659.376 82.7617 658.925C82.7715 658.233 82.7812 657.543 82.623 657.033C82.5527 656.809 82.4492 656.619 82.3008 656.48C81.2422 655.492 80.0293 654.629 78.752 653.881C77.9883 653.434 77.2012 653.027 76.4102 652.66C74.4004 651.73 72.9707 652.95 72.9199 655.91C72.9941 656.02 73.0879 656.173 73.1934 656.349ZM91.2793 682.53C86.7402 687.44 85.6797 693.08 88.4004 697.06C92.1992 692.81 92.1406 687.89 91.2793 682.53Z" fill="white"/>
</svg>
