<svg width="1440" height="1456" viewBox="0 0 1440 1456" fill="none" xmlns="http://www.w3.org/2000/svg">
<path d="M0 1173H1440V1456H0V1173Z" fill="white"/>
<path d="M1440 1179.5V394L1145.5 177.5C1113.2 177.04 1101.26 175.516 1068.95 174.749C1035.27 173.981 1001.59 172.907 967.902 172.024C931.151 171.065 894.401 169.837 857.651 169.338C804.653 168.609 751.616 167.573 698.618 168.187C648.264 168.801 597.909 171.449 547.555 173.06C519.236 173.981 490.916 174.557 462.558 175.324C447.422 175.747 432.246 176.092 417.109 176.898C409.56 177.32 402.969 180.543 397.834 186.453C381.815 205.026 365.452 223.293 349.817 242.212C329.698 266.58 310.423 291.6 287.43 313.627C326.786 302.921 367.138 300.963 407.223 298.431C406.226 278.015 404.808 258.022 404.348 238.029C403.889 218.343 403.582 198.58 410.518 179.661C402.279 219.686 407.299 259.749 409.982 300.426C406.188 300.695 402.432 301.002 398.715 301.194C365.222 303.112 331.844 305.76 298.926 313.09C286.549 315.853 277.467 321.993 270.071 332.277C256.926 350.774 254.868 371.228 256.209 393.792C256.899 405.266 256.477 416.817 256.937 428.291C258.317 463.673 257.195 444.412 258.268 479.832C259.609 525.076 260.26 570.319 261.372 615.563C262.061 644.728 263.518 673.778 271.105 702.214C277.39 725.699 288.158 747.381 298.275 769.293C326.518 830.539 420.223 1111.75 449.5 1172.5L1440 1179.5Z" fill="url(#paint0_linear_365_81)"/>
<path d="M526.263 939.113C534.648 939.113 543.277 938.869 551.871 939.148C579.365 940.092 606.824 941.211 634.318 942.225C637.672 942.365 703.909 942.12 707.263 942.33C709.918 942.47 710.651 941.351 710.546 938.869C709.883 920.443 709.463 901.982 708.66 883.557C707.437 855.481 705.97 827.441 704.642 799.4C704.363 793.666 704.782 786.546 704.642 780.847C704.573 778.505 705.001 693.19 705.001 690.847C709.501 687.347 708.361 698.547 708.501 702.847C709.794 740.538 712.573 854.188 713.935 891.878C714.389 904.989 714.634 918.135 714.948 931.282C714.983 932.925 714.948 934.603 714.948 936.386C799.561 938.589 836.697 940.792 922.149 943.029C919.808 864.537 917.502 786.848 915.162 708.985C915.476 709.02 920.367 707.097 920.716 710.943C923.092 736.396 924.979 838.594 927.04 898.067C927.843 921.072 927.808 937.505 929.101 940.896C939.791 944.882 934.236 941.875 944.333 939.463C968.054 933.729 991.705 927.75 1016.02 924.708C1031.71 922.751 1044.07 921.422 1054.03 919.044C1073.7 914.394 1093.51 910.234 1113.17 905.549C1123.2 903.171 1119.99 900.409 1129.77 897.157C1142.8 892.857 1140.6 640.527 1141.02 626.961C1141.51 611.892 1141.68 579.306 1141.93 564.202C1142.59 526.757 1143.08 489.276 1143.85 451.83C1144.51 420.538 1145.49 439.031 1146.33 407.739C1147.17 376.167 1148.07 344.595 1148.84 313.023C1149.51 285.647 1150 258.236 1150.52 230.86C1150.76 218.553 1150.94 206.245 1151.04 193.973C1151.08 190.092 1150.76 187.051 1150.03 184.638C1149.47 183.484 1148.84 182.366 1148.07 181.352C1147.55 180.617 1147.03 180.023 1146.5 179.464C1143.85 177.541 1139.8 176.806 1133.89 176.771C1113.91 176.667 1107.13 176.702 1087.15 176.422C1057.7 176.002 1028.21 175.443 998.762 174.744C968.054 174.044 937.346 173.065 906.638 172.261C873.135 171.387 839.632 170.268 806.129 169.814C757.814 169.149 709.464 168.205 661.148 168.765C615.243 169.324 569.339 171.737 523.434 173.205C497.617 174.044 471.8 174.569 445.948 175.268C432.148 175.653 418.314 175.967 404.514 176.702C397.632 177.086 391.623 180.023 386.942 185.407C372.339 202.33 357.422 218.972 343.168 236.209C324.827 258.411 307.255 281.207 286.294 301.276C322.172 291.521 358.959 289.738 395.501 287.43C394.593 268.83 393.3 250.614 392.881 232.398C392.462 214.462 392.182 196.456 398.506 179.219C390.995 215.686 395.571 252.187 398.017 289.248C394.558 289.493 391.134 289.773 387.746 289.948C357.212 291.696 326.784 294.108 296.774 300.786C285.49 303.303 277.211 308.898 270.468 318.268C258.485 335.12 253.874 353.755 255.097 374.314C255.726 384.768 255.341 395.292 255.761 405.746C257.018 437.982 258.73 420.433 259.708 452.704C260.931 493.926 261.525 535.148 262.538 576.37C263.167 602.942 264.494 629.409 271.411 655.317C277.141 676.714 286.958 696.468 296.18 716.432C321.928 772.234 369.09 828.21 395.781 883.557C403.606 899.78 410.698 916.247 418.244 933.065C423.415 926.282 512.639 948.798 512.848 936.107C513.198 916.597 510.718 764.367 509.53 744.857C508.167 722.97 506.805 701.083 505.687 679.161C505.303 671.784 517.32 669.442 517.949 675.875C518.298 679.371 518.333 690.944 518.333 695.559V696.433C520.953 776.954 523.608 857.474 526.263 939.078V939.113Z" fill="white"/>
<path d="M791.751 555.798C790.696 557.511 789.002 558.715 788.921 560.944C787.453 563.736 793.303 559.902 793.911 559.725C795.789 559.181 798.444 558.306 800.431 558.907C801.001 559.079 801.266 559.404 801.75 559.671C802.713 560.201 802.831 561.858 803.242 562.744C803.87 564.1 803.922 565.65 804.159 567.099C804.429 568.747 804.832 574.231 807.142 574.231C809.341 576.391 807.705 572.219 808.022 571.926C808.653 571.342 808.946 570.17 809.226 569.417C809.826 567.807 810.381 566.1 810.698 564.417C810.955 563.054 811.232 562.035 812.897 562.098C814.101 562.144 815.39 564.101 816.552 564.417C817.713 564.732 818.842 565.886 819.312 565.742C819.627 565.645 818.017 561.44 818.002 561.307C817.868 560.128 817.801 559.038 818.04 557.871C818.285 556.679 818.666 555.93 819.312 554.907C820.299 553.341 820.861 551.605 821.615 549.943C821.904 549.306 822.487 548.41 823.097 548.006C824.493 547.082 825.561 545.748 826.883 544.724C828.231 543.679 828.884 541.984 828.632 540.305C828.357 538.474 820.179 542.722 819.608 543.115C818.022 544.206 816.286 545.139 814.599 546.079C812.75 547.108 810.929 548.06 808.748 548.015C807.883 547.997 807.556 546.595 807.142 546.033C806.193 544.746 804.267 541.774 802.343 541.66C800.876 541.573 800.511 542.069 800.039 543.315C799.649 544.345 799.474 545.586 799.284 546.67C798.962 548.506 799.05 550.72 797.305 551.734C795.586 552.733 793.911 554.907 791.751 555.798Z" fill="#FFBCD8" stroke="#FFBCD8" stroke-width="3" stroke-linecap="round"/>
<path d="M821.7 575.733C821.702 575.731 821.703 575.727 821.7 575.725C819.178 573.131 816.648 570.538 813.488 567.293C812.898 566.686 811.871 567.042 811.792 567.886C811.355 572.61 811.17 576.51 810.304 580.26C809.823 582.347 808.53 584.251 807.342 586.179C806.916 586.87 805.849 586.853 805.448 586.147C804.46 584.409 803.409 582.682 802.979 580.817C801.673 575.133 800.829 569.343 799.721 562.937C799.624 562.377 799.079 562.011 798.524 562.134C793.624 563.224 788.816 564.391 783.949 565.259C782.806 565.466 781.584 565.257 780.363 565.048C779.612 564.919 779.194 564.016 779.586 563.363C780.174 562.383 780.77 561.412 781.602 560.727C785.225 557.739 788.947 554.848 792.855 552.24C795.506 550.472 796.351 548.48 796.056 545.335C795.644 540.979 795.742 536.565 795.85 532.18C795.87 531.393 796.305 530.617 796.732 529.843C797.02 529.321 797.701 529.103 798.244 529.35C799.191 529.781 800.177 530.191 800.622 530.92C802.537 534.094 804.069 537.493 805.738 540.803C806.033 541.477 806.337 542.161 806.632 542.835C808.558 547.77 810.812 544.7 812.992 543.132C813.032 543.104 813.08 543.089 813.129 543.089C813.163 543.089 813.197 543.082 813.228 543.067C819.417 540.235 825.029 535.657 833.055 535.194C833.8 535.151 834.273 535.942 833.926 536.603C832.684 538.965 831.819 540.612 830.954 542.259C827.447 547.529 823.949 552.79 820.495 557.972C820.27 558.31 820.27 558.75 820.506 559.08C821.831 560.937 823.3 562.531 823.953 564.4C825.438 568.668 829.492 572.322 827.666 577.458C827.577 577.709 827.379 577.905 827.134 578.01C827.107 578.022 827.079 578.034 827.051 578.046C826.774 578.166 826.457 578.16 826.188 578.023C824.693 577.266 823.197 576.508 821.702 575.742C821.698 575.74 821.697 575.736 821.7 575.733ZM826.663 541.502C826.663 541.499 826.662 541.495 826.659 541.493C826.538 541.355 826.416 541.218 826.294 541.081C825.991 540.739 825.495 540.646 825.09 540.856C821.064 542.936 817.081 545.104 812.985 547.044C807.201 549.779 805.787 549.359 802.547 544.319C801.993 543.455 800.172 544.015 800.055 545.035C799.457 550.27 796.261 554.167 791.97 557.589C791.2 558.202 791.625 559.399 792.598 559.248C794.017 559.029 795.303 558.713 796.596 558.432C799.817 557.719 802.164 557.875 802.674 562.192C803.066 565.529 803.993 568.798 804.864 572.077C805.114 573.015 806.325 573.068 806.538 572.12C806.943 570.321 807.145 568.568 807.604 566.89C808.147 564.924 809.161 563.081 810.076 561.213C810.35 560.653 811.06 560.458 811.572 560.813C813.179 561.929 814.789 563.052 816.412 564.155C816.653 564.32 816.966 563.965 816.828 563.708C814.41 559.19 817.788 555.896 819.858 552.416C822.047 548.735 824.393 545.142 826.661 541.51C826.662 541.508 826.663 541.505 826.663 541.502Z" fill="#FF3E96"/>
<path d="M1011.81 536.204L1011.81 536.204C1011.84 536.183 1011.86 536.164 1011.89 536.148C1012.32 535.916 1012.79 536.398 1012.55 536.821L1011.81 536.204ZM1011.81 536.204C1010.75 537.097 1009.7 537.992 1008.64 538.887M1011.81 536.204L1008.64 538.887M1008.64 538.887C1007.79 539.601 1006.95 540.315 1006.11 541.028M1008.64 538.887L1006.11 541.028M1006.11 541.028C1005.6 541.456 1005.58 542.229 1006.06 542.686M1006.11 541.028L1006.06 542.686M1006.06 542.686C1006.53 543.125 1007.27 543.091 1007.69 542.598M1006.06 542.686L1007.69 542.598M1007.69 542.598C1009.29 540.696 1010.9 538.79 1012.5 536.89L1007.69 542.598ZM1005.44 585.491L1003.82 585.461C1003.77 585.397 1003.72 585.326 1003.66 585.248C1003.64 585.218 1003.61 585.186 1003.59 585.154C1003.52 585.063 1003.45 584.966 1003.38 584.875C1003.2 584.642 1002.94 584.355 1002.59 584.264L1002.58 584.263C1001.37 583.966 1000.45 583.669 999.777 583.329C999.108 582.989 998.72 582.623 998.525 582.2C998.33 581.778 998.3 581.24 998.474 580.5C998.648 579.758 999.017 578.85 999.576 577.713C999.677 577.51 999.777 577.309 999.887 577.089C1000.28 576.302 999.824 575.385 999.005 575.154C997.858 574.832 996.91 574.43 996.288 573.783C995.686 573.156 995.35 572.255 995.527 570.825L995.527 570.824C995.555 570.585 995.456 570.364 995.348 570.196C995.236 570.019 995.08 569.847 994.914 569.689C994.581 569.372 994.163 569.074 993.831 568.871L993.83 568.87C993.572 568.715 993.31 568.569 993.056 568.427L993.021 568.408C992.753 568.258 992.494 568.113 992.246 567.961C991.748 567.656 991.312 567.334 990.976 566.93C990.777 566.692 990.5 566.476 990.148 566.401C990.052 566.381 989.956 566.361 989.861 566.341C989.436 566.252 989.034 566.169 988.663 566.054C988.213 565.914 987.85 565.739 987.591 565.491C987.111 565.03 986.851 564.172 987.492 562.256C987.588 561.973 987.538 561.675 987.447 561.412C987.354 561.144 987.202 560.869 987.033 560.605C986.863 560.339 986.667 560.07 986.478 559.816C986.435 559.757 986.392 559.7 986.35 559.644C986.206 559.451 986.071 559.27 985.952 559.101L985.952 559.1C984.985 557.72 983.972 556.366 982.964 555.017C982.569 554.49 982.176 553.964 981.786 553.438L981.509 553.643L981.786 553.438C981.732 553.364 981.693 553.279 981.673 553.188C981.652 553.092 981.63 552.997 981.609 552.903C981.572 552.74 981.536 552.578 981.501 552.417C981.498 552.404 981.495 552.391 981.49 552.379C979.546 546.599 979.092 541.107 983.032 535.905C986.672 531.102 994.09 530.669 998.004 535.176L998.004 535.176C999.231 536.588 1000.42 538.036 1001.58 539.454C1001.85 539.793 1002.13 540.129 1002.4 540.464C1002.94 541.116 1003.94 541.121 1004.47 540.456C1004.86 539.972 1005.24 539.483 1005.62 538.994C1008.38 535.456 1011.15 531.907 1015.98 530.253L1015.98 530.253C1018.73 529.314 1021.25 528.975 1023.59 529.348C1025.92 529.72 1028.11 530.803 1030.2 532.755C1030.4 532.983 1030.6 533.209 1030.79 533.435C1030.96 533.628 1031.13 533.822 1031.31 534.018C1031.35 534.068 1031.38 534.123 1031.41 534.182C1031.5 534.383 1031.59 534.587 1031.68 534.792C1031.89 535.273 1032.1 535.763 1032.33 536.24C1033.44 538.57 1033.49 540.849 1033.14 543.143C1032.97 544.294 1032.69 545.442 1032.41 546.604C1032.37 546.75 1032.33 546.896 1032.3 547.042C1032.04 548.057 1031.79 549.084 1031.59 550.113C1031.59 550.11 1031.59 550.124 1031.55 550.185C1031.54 550.192 1031.54 550.199 1031.53 550.207C1031.49 550.258 1031.43 550.349 1031.39 550.447L1031.71 550.584L1031.39 550.447C1031.35 550.535 1031.33 550.633 1031.32 550.687C1031.32 550.696 1031.31 550.703 1031.31 550.709C1031.3 550.765 1031.29 550.778 1031.29 550.779C1030.46 552.019 1029.53 553.216 1028.6 554.422C1027.97 555.237 1027.33 556.056 1026.72 556.896C1025.22 558.957 1023.88 561.1 1023.19 563.445L1023.19 563.445C1022.04 567.396 1019.81 570.445 1017.27 573.285C1016.41 574.243 1015.51 575.184 1014.61 576.129C1012.86 577.962 1011.09 579.81 1009.58 581.84C1008.86 582.798 1007.93 583.582 1006.97 584.396C1006.61 584.695 1006.26 584.998 1005.9 585.316C1005.77 585.432 1005.61 585.495 1005.44 585.491ZM1018.62 536.141L1018.62 536.141C1018.61 536.178 1018.6 536.217 1018.6 536.257C1018.6 536.339 1018.63 536.42 1018.68 536.484C1018.68 536.484 1018.68 536.484 1018.68 536.484L1018.83 536.664C1019.18 537.095 1019.8 537.17 1020.24 536.832C1021.36 535.971 1022.48 535.107 1023.59 534.246L1023.96 533.96C1024.36 533.656 1024.49 533.122 1024.28 532.669C1024.13 532.333 1023.82 532.097 1023.45 532.047C1022.84 531.964 1022.24 531.879 1021.65 531.798C1021.53 531.78 1021.4 531.762 1021.27 531.744C1020.63 531.655 1020.02 532.033 1019.81 532.645C1019.35 533.984 1018.98 535.062 1018.62 536.141ZM1025.52 538.172L1025.82 538.359L1025.52 538.172C1025.06 538.904 1025.39 539.877 1026.21 540.165C1026.76 540.359 1027.31 540.554 1027.91 540.765L1028.28 540.893C1029.36 541.272 1030.39 540.221 1029.99 539.148L1029.06 536.634C1028.67 535.589 1027.25 535.438 1026.66 536.381C1026.23 537.051 1025.86 537.633 1025.52 538.172ZM1011.96 536.439C1011.96 536.44 1011.96 536.441 1011.96 536.441L1011.96 536.439L1011.96 536.439Z" fill="#FF3E96" stroke="white" stroke-width="0.7" stroke-linejoin="round"/>
<path d="M389.553 542.358C388.355 540.384 387.002 538.496 385.656 536.619C385.254 536.057 384.852 535.496 384.455 534.934C384.058 534.373 383.3 534.192 382.695 534.531C382.539 534.618 382.384 534.705 382.229 534.792C382.185 534.817 382.14 534.842 382.096 534.867C381.751 535.061 381.504 535.398 381.433 535.792C379.858 544.541 382.82 552.056 388.231 559.211C388.661 559.78 389.477 559.914 390.056 559.471C392.244 557.801 393.421 556.038 393.708 554.126C393.994 552.221 393.384 550.24 392.158 548.153L392.157 548.153C391.647 547.287 391.283 546.333 390.906 545.346L390.89 545.302C390.511 544.31 390.118 543.287 389.553 542.358ZM389.553 542.358L389.253 542.539L389.552 542.357C389.552 542.357 389.553 542.358 389.553 542.358ZM397.817 548.003L397.682 548.326L397.663 548.318C397.42 548.216 397.175 548.113 396.929 548.007L397.817 548.003ZM397.817 548.003L397.682 548.326C398.253 548.566 398.913 548.39 399.293 547.904C399.595 547.517 399.904 547.13 400.215 546.741C401.103 545.63 402.002 544.504 402.78 543.331C403.836 541.739 404.691 540.03 405.03 538.08C405.132 537.488 404.799 536.933 404.279 536.694L403.731 536.442C403.069 536.137 402.285 536.413 401.959 537.065C401.161 538.663 400.365 540.26 399.57 541.857C398.63 543.742 397.691 545.627 396.749 547.513C396.724 547.563 396.711 547.618 396.711 547.675C396.711 547.819 396.797 547.95 396.929 548.007L397.817 548.003ZM379.779 571.75L379.779 571.75C381.344 569.999 382.509 568.678 383.302 567.557C384.097 566.431 384.543 565.474 384.634 564.446C384.725 563.422 384.461 562.375 383.938 561.082C383.522 560.055 382.929 558.841 382.192 557.331C382.004 556.946 381.807 556.541 381.6 556.116L381.6 556.116C379.122 551.007 377.43 545.265 376.792 539.652C376.624 538.162 376.945 536.331 377.608 534.609C378.271 532.886 379.258 531.315 380.381 530.327L380.381 530.327C381.183 529.621 381.983 529.292 382.767 529.217C383.554 529.14 384.353 529.318 385.152 529.671C386.761 530.382 388.3 531.774 389.632 533.058L389.632 533.058C391.15 534.521 392.382 536.266 393.689 538.115C394.041 538.614 394.398 539.12 394.768 539.63C395.298 540.361 396.381 540.357 396.902 539.617C397.117 539.312 397.332 539.002 397.548 538.69C398.736 536.977 399.961 535.209 401.497 533.774C402.019 533.29 402.898 532.865 403.821 532.634C404.752 532.4 405.636 532.387 406.183 532.626C406.736 532.872 407.307 533.52 407.757 534.356C408.202 535.182 408.49 536.122 408.524 536.87L408.524 536.871C408.616 538.776 407.945 541.001 406.897 542.649C403.588 547.834 400.213 552.993 396.34 557.736C394.988 559.391 393.723 561.006 393.158 562.72C392.58 564.472 392.738 566.304 394.153 568.358C394.323 568.605 394.333 568.915 394.187 569.141L394.096 569.282C393.975 569.47 393.767 569.584 393.545 569.584H393.542H393.539H393.536H393.533H393.529H393.526H393.523H393.52H393.517H393.514H393.51H393.507H393.504H393.501H393.498H393.495H393.491H393.488H393.485H393.482H393.479H393.476H393.472H393.469H393.466H393.463H393.46H393.457H393.453H393.45H393.447H393.444H393.441H393.438H393.434H393.431H393.428H393.425H393.422H393.419H393.415H393.412H393.409H393.406H393.403H393.4H393.396H393.393H393.39H393.387H393.384H393.381H393.377H393.374H393.371H393.368H393.365H393.362H393.358H393.355H393.352H393.349H393.346H393.342H393.339H393.336H393.333H393.33H393.327H393.323H393.32H393.317H393.314H393.311H393.308H393.304H393.301H393.298H393.295H393.292H393.289H393.285H393.282H393.279H393.276H393.273H393.27H393.266H393.263H393.26H393.257H393.254H393.251H393.247H393.244H393.241H393.238H393.235H393.232H393.228H393.225H393.222H393.219H393.216H393.213H393.209H393.206H393.203H393.2H393.197H393.194H393.19H393.187H393.184H393.181H393.178H393.175H393.171H393.168H393.165H393.162H393.159H393.155H393.152H393.149H393.146H393.143H393.14H393.136H393.133H393.13H393.127H393.124H393.121H393.117H393.114H393.111H393.108H393.105H393.102H393.098H393.095H393.092H393.089H393.086H393.083H393.079H393.076H393.073H393.07H393.067H393.064H393.06H393.057H393.054H393.051H393.048H393.045H393.041H393.038H393.035H393.032H393.029H393.026H393.022H393.019H393.016H393.013H393.01H393.007H393.003H393H392.997H392.994H392.991H392.987H392.984H392.981H392.978H392.975H392.972H392.968H392.965H392.962H392.959H392.956H392.953H392.949H392.946H392.943H392.94H392.937H392.934H392.93H392.927H392.924H392.921H392.918H392.915H392.911H392.908H392.905H392.902H392.899H392.896H392.892H392.889H392.886H392.883H392.88H392.877H392.873H392.87H392.867H392.864H392.861H392.858H392.854H392.851H392.848H392.845H392.842H392.839H392.835H392.832H392.829H392.826H392.823H392.82H392.816H392.813H392.81H392.807H392.804H392.8H392.797H392.794H392.791H392.788H392.785H392.781H392.778H392.775H392.772H392.769H392.766H392.762H392.759H392.756H392.753H392.75H392.747H392.743H392.74H392.737H392.734H392.731H392.728H392.724H392.721H392.718H392.715H392.712H392.709H392.705H392.702H392.699H392.696H392.693H392.69H392.686H392.683H392.68H392.677H392.674H392.671H392.667H392.664H392.661H392.658H392.655H392.652H392.648H392.645H392.642H392.639H392.636H392.633H392.629H392.626H392.623H392.62H392.617H392.613H392.61H392.607H392.604H392.601H392.598H392.594H392.591H392.588H392.585H392.582H392.579H392.575H392.572H392.569H392.566H392.563H392.56H392.556H392.553H392.55H392.547H392.544H392.541H392.537H392.534H392.531H392.528H392.525H392.522H392.518H392.515H392.512H392.509H392.506H392.503H392.499H392.496H392.493H392.49H392.487H392.484H392.48H392.477H392.474H392.471H392.468H392.465H392.461H392.458H392.455H392.452H392.449H392.445H392.442H392.439H392.436H392.433H392.43H392.426H392.423H392.42H392.417H392.414H392.411H392.407H392.404H392.401H392.398H392.395H392.392H392.388H392.385H392.382H392.379H392.376H392.373H392.369H392.366H392.363H392.36H392.357H392.354H392.35H392.347H392.344H392.341H392.338H392.335H392.331H392.328H392.325H392.322H392.319H392.316H392.312H392.309H392.306H392.303H392.3H392.297H392.293H392.29H392.287H392.284H392.281H392.278H392.274H392.271H392.268H392.265H392.262H392.258H392.255H392.252H392.249H392.246H392.243H392.239H392.236H392.233H392.23H392.227H392.224H392.22H392.217H392.214H392.211H392.208H392.205H392.201H392.198H392.195H392.192H392.189H392.186H392.182H392.179H392.176H392.173H392.17H392.167H392.163H392.16H392.157H392.154H392.151H392.148H392.144H392.141H392.138H392.135H392.132H392.129H392.125H392.122H392.119H392.116H392.113H392.11H392.106H392.103H392.1H392.097H392.094H392.09H392.087H392.084H392.081H392.078H392.075H392.071H392.068H392.065H392.062H392.059H392.056H392.052H392.049H392.046H392.043H392.04H392.037H392.033H392.03H392.027H392.024H392.021H392.018H392.014H392.011H392.008H392.005H392.002H391.999H391.995H391.992H391.989H391.986H391.983H391.98H391.976H391.973H391.97H391.967H391.964H391.961H391.957H391.954H391.951H391.948H391.945H391.942H391.938H391.935H391.932H391.929H391.926H391.923C391.833 569.584 391.749 569.566 391.675 569.532C391.302 569.361 390.895 569.149 390.481 568.933C390.172 568.772 389.859 568.608 389.553 568.458C389.21 568.291 388.88 568.142 388.608 568.057C388.473 568.016 388.333 567.983 388.202 567.978C388.081 567.974 387.892 567.992 387.75 568.138L387.748 568.139C384.634 571.37 381.681 574.757 378.735 578.135C378.097 578.868 377.458 579.6 376.819 580.33C376.358 580.856 376.373 581.65 376.86 582.155L377 582.301C377.375 582.688 377.943 582.811 378.444 582.62C380.04 582.012 381.639 581.404 383.237 580.796C385.039 580.111 386.841 579.425 388.639 578.74C388.643 578.739 388.647 578.737 388.651 578.735C388.656 578.734 388.66 578.732 388.664 578.73C389.024 578.559 389.383 578.386 389.742 578.214L389.743 578.213L389.743 578.213C390.094 578.044 390.445 577.875 390.795 577.709C392.029 577.324 393.26 576.936 394.49 576.549L394.494 576.548L394.494 576.547C395.734 576.157 396.973 575.767 398.215 575.379L398.215 575.379L398.228 575.375C399.994 574.746 401.754 574.11 403.517 573.473C403.965 573.312 404.413 573.15 404.861 572.988L404.742 572.659L404.861 572.988C404.892 572.977 404.925 572.968 404.957 572.961C408.995 572.175 413.035 571.385 417.075 570.596C420.913 569.846 424.751 569.096 428.587 568.348C428.853 568.296 429.124 568.415 429.266 568.647C429.512 569.047 429.759 569.447 430.005 569.846C430.232 570.214 430.043 570.695 429.626 570.81C426.893 571.563 424.158 572.312 421.422 573.062C413.992 575.096 406.557 577.132 399.149 579.256C396.334 580.06 393.542 580.947 390.757 581.832C390.167 582.02 389.577 582.207 388.987 582.394C385.612 583.462 382.238 584.5 378.822 585.364L378.821 585.364C378.017 585.568 377.126 585.52 376.168 585.358C375.557 585.254 374.946 585.11 374.323 584.962C373.958 584.876 373.59 584.789 373.215 584.709C372.804 584.621 372.549 584.204 372.655 583.818C372.707 583.626 372.759 583.434 372.811 583.243C373.179 581.882 373.539 580.551 374.087 579.309L374.087 579.309C374.61 578.121 375.319 577.032 376.048 575.913C376.362 575.432 376.679 574.944 376.987 574.441L376.688 574.259L376.987 574.441C377.007 574.408 377.03 574.378 377.054 574.349L378.432 572.779C378.465 572.741 378.5 572.71 378.536 572.685L378.337 572.397L378.536 572.685C378.632 572.619 378.733 572.554 378.839 572.485L378.842 572.483C378.945 572.416 379.053 572.346 379.159 572.274C379.372 572.127 379.593 571.959 379.779 571.75ZM397.375 547.826L397.375 547.826L397.375 547.826Z" fill="#FF3E96" stroke="white" stroke-width="0.7" stroke-linejoin="round"/>
<path d="M384.934 556.244C386.619 557.629 385.391 560.775 386.989 562.418C386.989 564.205 388.588 564.051 389.835 563.393C392.984 561.731 394.517 558.038 396.528 555.306C399.001 551.945 401.949 548.382 403.924 544.691C404.696 543.249 405.779 541.713 405.944 540.016C406.058 538.842 405.962 537.602 405.962 536.423C405.962 534.512 404.847 534.619 403.116 534.817C401.751 534.973 400.633 536.051 399.708 537.001C398.758 537.977 396.957 539.357 396.493 540.629C396.121 541.648 395.88 542.912 394.578 542.435C392.706 541.747 391.244 538.695 389.905 537.29L389.87 537.253C388.37 535.678 385.675 532.849 383.335 532.849C380.729 532.849 380.285 532.921 379.471 535.882C377.867 541.712 380.701 548.315 382.879 553.573C383.281 554.545 384.12 555.575 384.934 556.244Z" fill="#FFBCD8"/>
<path d="M159.687 37.4951C159.202 33.5896 158.601 31.2856 155.426 23.2005C153.382 18.0296 152.92 14.8602 153.685 11.9248C154.607 8.3862 158.418 6.2877 161.957 7.21019C164.45 7.86012 166.406 9.74439 167.132 12.725C169.261 10.4887 171.889 9.79943 174.422 10.4598C177.88 11.3614 180.262 15.0742 179.339 18.6128C178.595 21.4677 176.888 23.8998 172.304 27.6435C165.536 33.1795 163.774 34.9962 161.577 37.9878L159.687 37.4951ZM161.524 34.2378C163.064 32.4492 165.536 30.2163 168.757 27.5777C171.979 24.9391 174.085 22.9545 175.095 21.7148C176.106 20.4752 176.773 19.2321 177.088 18.0257C177.685 15.7337 176.167 13.3197 173.835 12.7117C171.503 12.1037 169.008 13.6005 167.213 16.697L165.163 16.1623C165.101 12.2813 163.581 10.0386 161.37 9.462C159.078 8.86448 156.534 10.2198 155.937 12.5118C155.633 13.6779 155.619 15.0485 155.855 16.6132C156.092 18.1778 156.982 20.8577 158.486 24.6423C160 28.3868 161.006 31.6121 161.524 34.2378Z" fill="white"/>
<path d="M592.725 550.635C597.077 557.294 601.652 574.635 603.187 581.848C612.812 556.461 621.181 545.224 622.437 538.566C623.441 533.238 620.344 527.467 618.67 525.248L608.627 538.566C604.86 522.334 598.165 517.756 588.959 520.67C579.752 523.583 587.285 542.311 592.725 550.635Z" fill="#FFBCD8"/>
<path d="M614.3 558.875C614.302 558.874 614.304 558.876 614.303 558.878C611.762 565.171 609.186 571.454 606.695 577.773C606.073 579.348 605.858 581.081 605.231 582.654C605.012 583.211 604.645 583.708 604.257 584.195C603.846 584.711 603.028 584.732 602.591 584.237C602.134 583.718 601.689 583.191 601.358 582.602C600.93 581.844 600.818 580.891 600.654 580.011C599.964 576.275 599.268 572.539 598.663 568.789C598.558 568.121 598.698 567.415 598.792 566.719C598.829 566.445 599.05 566.228 599.325 566.209C599.596 566.191 599.84 566.37 599.904 566.634C600.696 569.912 601.495 573.197 602.345 576.692C602.577 577.644 603.898 577.73 604.25 576.815C605.108 574.586 605.911 572.498 606.715 570.409C608.219 566.495 609.695 562.572 611.233 558.672C612.018 556.684 613.069 556.983 614.158 558.3C614.231 558.388 614.23 558.51 614.223 558.624C614.218 558.709 614.242 558.793 614.297 558.874C614.297 558.875 614.299 558.876 614.3 558.875Z" fill="#FF3E96"/>
<path d="M623.359 542.522C623.363 542.523 623.367 542.521 623.368 542.517C623.563 541.583 623.765 540.645 623.957 539.704C623.973 539.626 623.979 539.546 623.976 539.466C623.821 535.482 623.665 531.499 623.514 527.523C623.51 527.434 623.495 527.345 623.468 527.26C623.42 527.108 623.372 526.955 623.324 526.803C623.274 526.642 623.183 526.496 623.06 526.38C621.668 525.059 620.276 523.737 618.883 522.416C618.879 522.411 618.884 522.404 618.89 522.406C618.893 522.408 618.894 522.413 618.891 522.416C616.271 525.15 613.651 527.885 610.958 530.692C610.424 531.249 609.488 531.018 609.273 530.277C609.075 529.595 608.855 528.835 608.633 528.073C608.62 528.026 608.603 527.981 608.583 527.937C608.264 527.236 607.941 526.529 607.615 525.832C607.584 525.765 607.545 525.701 607.5 525.643C604.313 521.537 600.976 517.943 595.051 517.857C586.142 517.733 580.88 522.608 582.091 531.559C583.265 540.272 587.719 547.752 593.402 554.413C593.648 554.701 593.994 554.903 594.477 555.126C595.321 555.515 596.259 554.6 595.899 553.742C595.426 552.612 595.053 551.73 594.652 550.863C592.083 545.321 589.253 539.896 586.982 534.237C585.196 529.791 586.767 524.702 589.797 523.005C593.298 521.036 599.707 522.141 602.046 526.134C604.446 530.238 605.609 535.059 607.308 539.572C607.69 540.581 608.066 541.594 608.442 542.606C608.712 543.334 609.673 543.489 610.158 542.883C610.9 541.958 611.643 541.033 612.382 540.109C612.384 540.108 612.386 540.108 612.386 540.109C612.387 540.111 612.39 540.111 612.391 540.109C614.091 536.194 615.801 532.281 617.508 528.363C617.714 527.891 618.244 527.651 618.734 527.807C618.759 527.814 618.783 527.822 618.808 527.83C619.105 527.925 619.342 528.155 619.439 528.452C621.379 534.385 620.702 540.222 618.14 545.993C618.131 546.014 618.124 546.027 618.101 546.027C618.054 546.028 617.949 546.078 617.927 546.119C617.23 547.449 616.542 548.781 615.848 550.117C615.83 550.154 615.794 550.178 615.754 550.183C615.701 550.189 615.658 550.228 615.647 550.28C615.54 550.792 615.437 551.3 615.33 551.812C615.311 551.902 615.305 551.994 615.311 552.086C615.315 552.141 615.319 552.195 615.322 552.25C615.389 553.225 616.676 553.537 617.182 552.702C619.241 549.308 621.299 545.915 623.352 542.525C623.354 542.522 623.357 542.521 623.359 542.522Z" fill="#FF3E96"/>
<path d="M1296.16 886.203C1296.37 886.348 1296.58 886.607 1296.8 886.623C1302.81 886.994 1309.75 885.735 1312.06 893.672C1314.33 901.463 1308.72 905.932 1303.6 909.529C1295.32 915.336 1286.69 920.885 1277.53 925.047C1273.27 926.983 1267.43 925.37 1262.29 925.37C1262.19 924.547 1262.1 923.724 1262 922.902C1265.2 922.16 1268.37 921.16 1271.61 920.74C1284.65 919.014 1295.32 912.529 1304.66 903.835C1306.8 901.834 1308.76 897.302 1307.91 895.059C1307.06 892.849 1302.53 890.946 1299.59 890.914C1292.8 890.849 1285.97 891.994 1276.65 892.898C1307.19 873.169 1328.9 852.118 1300.99 815C1311.24 820.662 1316.77 828.276 1316.97 837.906C1317.17 846.73 1316.3 856.344 1312.82 864.249C1309.2 872.427 1301.87 878.96 1296.16 886.219V886.203Z" fill="#FF3E96"/>
<path d="M712.153 920.234V944.463C670.371 942.995 565.949 941.526 523.853 940.023C523.643 858.873 517.285 777.758 517.18 696.504C517.564 696.504 517.949 696.504 518.333 696.504C520.953 777.024 523.608 857.544 526.263 939.149C534.648 939.149 543.277 938.904 551.871 939.184C579.365 940.128 606.824 941.247 634.318 942.26C637.671 942.4 703.908 942.156 707.262 942.365C709.917 942.505 710.651 941.386 710.546 938.904C709.882 920.478 709.463 902.018 708.66 883.592C707.437 855.517 705.97 827.476 704.642 799.435C704.363 793.702 704.258 702.203 704.118 696.504C704.048 694.161 704.118 691.818 704.118 689.476C707.786 688.497 709.638 688.742 709.778 693.042C711.07 730.733 712.572 854.223 713.935 891.913C714.389 905.025 714.634 918.171 714.948 931.317C714.983 932.96 714.948 934.638 714.948 936.422C799.561 938.624 836.697 940.827 922.148 943.065C919.808 864.572 917.502 786.884 915.161 709.021C915.441 709.055 920.297 706.993 920.716 710.978C923.127 734.299 924.943 838 927.039 898.102C927.843 920.933 927.808 937.54 929.101 940.932C932.804 943.729 934.236 941.911 944.332 939.498C968.053 933.764 991.704 927.786 1016.02 924.744C1031.71 922.786 1044.07 921.457 1054.03 919.08C1073.7 914.43 1098.36 910.724 1113.17 902.088C1123.2 899.71 1119.99 900.444 1129.77 897.193C1142.8 892.857 1140.6 640.562 1141.02 626.997C1141.51 611.928 1141.65 579.342 1141.93 564.238C1142.55 526.792 1143.08 489.311 1143.85 451.866C1144.51 420.574 1145.49 389.281 1146.33 357.989C1147.17 326.418 1148.63 322.183 1148.84 313.536C1149.51 286.16 1150 258.748 1150.52 231.372C1150.76 219.065 1150.94 206.758 1151.04 194.486C1151.18 181.095 1147.41 177.354 1133.89 177.249C1113.91 177.144 1107.13 177.179 1087.15 176.899C1057.7 176.48 1028.21 175.92 998.761 175.221C968.053 174.522 937.345 173.543 906.637 172.739C873.134 171.865 839.632 170.746 806.129 170.291C757.813 169.627 709.463 168.683 661.148 169.242C615.243 169.802 569.338 172.214 523.433 173.683C497.616 174.522 471.799 175.046 445.947 175.746C432.148 176.13 418.313 176.445 404.514 177.179C397.632 177.564 391.588 180.466 386.942 185.885C372.339 202.807 357.421 219.45 343.168 236.687C324.827 258.888 307.255 281.684 286.293 301.753C322.172 291.998 358.959 290.215 395.501 287.873C394.593 269.272 393.3 251.056 392.881 232.841C392.461 214.904 392.182 196.898 398.505 179.661C390.994 216.128 395.571 252.63 398.016 289.691C394.558 289.936 391.134 290.215 387.745 290.39C357.212 292.138 326.783 294.551 296.774 301.229C285.49 303.746 277.21 309.34 270.468 318.71C258.485 335.598 256.5 353 255.725 355.961C255.341 345.507 256.354 366.415 255.725 355.961C256.983 388.198 258.695 420.434 259.673 452.705C260.896 493.927 261.489 535.148 262.503 576.37C263.131 602.942 264.459 629.409 271.376 655.317C277.001 676.365 286.608 695.804 295.656 715.419C322.975 774.472 372.409 833.315 399.868 892.298C406.121 905.689 411.99 919.255 418.174 933.065C423.344 926.282 512.569 948.799 512.778 936.107C513.128 916.597 510.647 764.367 509.459 744.858C508.097 722.971 506.734 701.084 505.616 679.162C505.232 671.785 517.285 668.638 517.914 676.26C518.228 679.896 517.983 683.567 517.983 687.203C517.634 687.203 517.25 687.273 516.901 687.308C516.726 686.504 516.446 685.7 516.411 684.896C516.307 682.239 516.411 679.581 516.167 676.924C515.748 671.05 506.804 670.876 507.433 684.721C508.481 706.923 510.368 729.055 511.695 751.221C512.883 770.871 514.001 923.24 514.735 942.925C514.944 948.414 425.545 928.03 418.244 938.03C413.981 928.415 410.383 919.849 406.435 911.423C379.5 853.594 330.731 795.834 303.796 738.005C296.669 722.691 290.206 707.063 282.905 691.854C267.603 660.107 261.944 626.332 261.21 591.474C260.511 558.084 260.441 524.659 259.393 491.269C258.31 456.061 256.284 420.923 254.852 385.715C254.258 371.345 252.964 358.254 252.964 358.254C252.929 356.82 253.174 359.687 252.964 358.254C253.628 354.897 254.223 351.506 254.957 348.149C257.751 335.178 264.634 324.339 272.005 313.466C276.162 307.312 282.101 303.536 286.817 298.327C291.778 292.838 297.508 288.013 302.259 282.383C319.552 261.86 336.46 241.022 353.753 220.533C363.675 208.786 374.19 197.563 384.182 185.885C390.994 177.913 399.798 174.802 409.754 174.522C428.584 173.997 447.449 174.032 466.314 173.438C502.333 172.319 538.316 170.886 574.299 169.662C596.762 168.893 619.226 167.984 641.724 167.669C677.358 167.215 712.957 166.76 748.591 167.145C793.273 167.669 837.92 169.033 882.602 170.082C908.838 170.711 935.075 171.445 961.346 172.039C1007.15 173.018 1052.95 173.962 1098.71 174.837C1114.36 175.116 1116.81 175.151 1132.46 175.291C1133.86 175.291 1135.25 175.291 1136.65 175.326C1148.46 175.85 1153.17 180.466 1153 192.318C1152.41 232.421 1151.67 272.524 1150.87 312.627C1150.87 323.239 1149.44 321.033 1148.63 350.402C1147.66 386.869 1146.54 423.336 1145.59 459.767C1145.07 480.99 1144.76 502.248 1144.44 523.505C1144.09 549.938 1143.88 593.817 1143.53 620.249C1143.5 623.885 1143.04 627.486 1142.59 631.087C1140.95 643.534 1142.76 894.92 1130.96 898.556C1115.9 903.172 1113.73 906.773 1098.43 910.514C1083.65 914.115 1068.77 917.192 1053.99 920.793C1045.61 922.856 1031.67 923.275 1022.55 925.163C1012.6 927.226 1002.36 927.925 992.403 930.058C974.516 933.834 956.804 938.31 938.952 942.295C936.751 942.54 935.529 944.253 932.874 943.519C931.371 943.1 929.59 943.589 928.367 943.659C925.887 937.96 921.065 720.453 918.655 714.929C918.166 714.999 917.642 715.104 917.153 715.174C919.458 791.289 921.764 867.439 924.07 944.708C837.535 942.47 799.177 940.268 713.166 938.065C713.166 933.38 713.236 928.555 713.131 923.695C713.131 922.506 712.433 921.352 712.083 920.164C712.363 917.541 712.922 914.919 712.817 912.332C712.293 896.983 711.524 881.634 710.965 866.32C709.882 837.441 708.904 722.796 707.856 693.916C707.821 692.902 707.472 691.888 707.262 690.875C706.878 690.909 706.529 690.979 706.144 691.014C706.075 692.238 705.865 693.427 705.9 694.651C707.262 772.848 708.904 848.209 710.406 882.089C710.965 894.78 711.559 907.472 712.118 920.164L712.153 920.234Z" fill="#FF3E96"/>
<defs>
<linearGradient id="paint0_linear_365_81" x1="1518.5" y1="1331" x2="630" y2="206" gradientUnits="userSpaceOnUse">
<stop stop-color="white" stop-opacity="0"/>
<stop offset="1" stop-color="#FF4C9D"/>
</linearGradient>
</defs>
</svg>
