<svg width="279" height="36" viewBox="0 0 279 36" fill="none" xmlns="http://www.w3.org/2000/svg">
<path d="M7.04039 12.22C8.14706 12.22 9.02039 12.4333 9.66039 12.86C10.3004 13.2867 10.6204 13.92 10.6204 14.76C10.6204 15.8667 9.98706 16.6667 8.72039 17.16C9.36039 17.2667 9.96706 17.5533 10.5404 18.02C11.1271 18.4733 11.4204 19.1267 11.4204 19.98C11.4204 20.9533 10.9937 21.7067 10.1404 22.24C9.30039 22.7733 8.14706 23.04 6.68039 23.04C6.58706 23.04 6.26039 23.0267 5.70039 23C5.15372 22.9867 4.80706 22.98 4.66039 22.98C4.60706 22.98 4.26706 22.9867 3.64039 23C3.01372 23 2.52039 23 2.16039 23C2.14706 22.7467 2.14706 22.5 2.16039 22.26L3.76039 22.22C3.81372 21.4733 3.84039 19.9 3.84039 17.5C3.84039 15.0733 3.82706 13.5733 3.80039 13L2.20039 12.96C2.18706 12.72 2.18706 12.4733 2.20039 12.22C2.58706 12.22 3.10039 12.2267 3.74039 12.24C4.38039 12.24 4.72039 12.24 4.76039 12.24C5.01372 12.24 5.38706 12.24 5.88039 12.24C6.38706 12.2267 6.77372 12.22 7.04039 12.22ZM5.62039 22.18L6.40039 22.22C7.40039 22.22 8.16706 22.0467 8.70039 21.7C9.23372 21.3533 9.50039 20.8533 9.50039 20.2C9.50039 19.4667 9.29372 18.8867 8.88039 18.46C8.46706 18.02 7.73372 17.8 6.68039 17.8C6.18706 17.8 5.82039 17.8133 5.58039 17.84C5.58039 20.0533 5.59372 21.5 5.62039 22.18ZM6.54039 13H5.64039C5.60039 13.72 5.58039 15.0467 5.58039 16.98C5.80706 16.9933 6.15372 17 6.62039 17C8.04706 17 8.76039 16.36 8.76039 15.08C8.76039 13.6933 8.02039 13 6.54039 13ZM18.5816 12C20.1816 12 21.5083 12.48 22.5616 13.44C23.6283 14.4 24.1616 15.7133 24.1616 17.38C24.1616 19.18 23.6483 20.6 22.6216 21.64C21.595 22.6667 20.2016 23.18 18.4416 23.18C16.895 23.18 15.575 22.6933 14.4816 21.72C13.3883 20.7333 12.8416 19.38 12.8416 17.66C12.8416 16.0333 13.375 14.6867 14.4416 13.62C15.5083 12.54 16.8883 12 18.5816 12ZM18.6616 22.32C19.7816 22.32 20.6616 21.9067 21.3016 21.08C21.955 20.2533 22.2816 19.1 22.2816 17.62C22.2816 16.18 21.915 15.0333 21.1816 14.18C20.4616 13.3267 19.5416 12.9 18.4216 12.9C17.3816 12.9 16.5016 13.3 15.7816 14.1C15.075 14.8867 14.7216 16.0067 14.7216 17.46C14.7216 18.9267 15.0883 20.1067 15.8216 21C16.555 21.88 17.5016 22.32 18.6616 22.32ZM32.8784 23C31.2517 22.9867 30.1984 22.98 29.7184 22.98C29.665 22.98 29.245 22.9867 28.4584 23C27.6717 23 27.1184 23 26.7984 23C26.785 22.7467 26.785 22.5 26.7984 22.26L28.8384 22.18C28.8784 21.4333 28.8984 19.8733 28.8984 17.5C28.8984 15.1133 28.8917 13.62 28.8784 13.02L26.6384 13.06C26.3584 13.06 26.205 13.2333 26.1784 13.58L26.0784 15.34C26.025 15.34 25.945 15.3467 25.8384 15.36C25.7317 15.36 25.645 15.36 25.5784 15.36C25.525 15.36 25.4384 15.36 25.3184 15.36C25.2117 15.3467 25.125 15.34 25.0584 15.34C25.0584 14.7533 25.0584 14.22 25.0584 13.74C25.0584 13.2467 25.0584 12.8733 25.0584 12.62C25.0717 12.3533 25.0784 12.2 25.0784 12.16L26.5984 12.24H29.9384H33.2784L34.5984 12.16C34.5984 12.2 34.5984 12.3533 34.5984 12.62C34.6117 12.8733 34.6184 13.2467 34.6184 13.74C34.6184 14.22 34.6184 14.7533 34.6184 15.34C34.565 15.34 34.4784 15.3467 34.3584 15.36C34.2384 15.36 34.145 15.36 34.0784 15.36C34.0117 15.36 33.9184 15.36 33.7984 15.36C33.6917 15.3467 33.6184 15.34 33.5784 15.34L33.4584 13.52C33.445 13.2133 33.2517 13.06 32.8784 13.06L30.7384 13.02C30.6984 13.86 30.6784 15.34 30.6784 17.46C30.6784 19.86 30.6917 21.4333 30.7184 22.18L32.8784 22.26C32.8917 22.4867 32.8917 22.7333 32.8784 23ZM54.4813 13L52.8213 13.06C52.808 14.0733 52.8013 15.6533 52.8013 17.8V22.22L54.4413 22.26C54.4547 22.5 54.4547 22.7467 54.4413 23C53.2813 22.9867 52.4747 22.98 52.0213 22.98C51.9813 22.98 51.6747 22.9867 51.1013 23C50.5413 23 50.0347 23 49.5813 23C49.568 22.7467 49.568 22.5 49.5813 22.26L51.0613 22.22L51.2213 13.44L47.2213 23.16H46.3613L42.0813 14.26C42.068 15.0733 42.0613 16.4867 42.0613 18.5V22.06L44.2613 22.26C44.288 22.5133 44.288 22.76 44.2613 23C43.328 22.9867 42.6347 22.98 42.1813 22.98C42.1147 22.98 41.728 22.9867 41.0213 23C40.328 23 39.8413 23 39.5613 23C39.548 22.7467 39.548 22.5 39.5613 22.26L41.0413 22.06L41.2613 13.2L39.4613 12.98C39.448 12.7267 39.448 12.4733 39.4613 12.22H41.2813L43.0813 12.24L47.2613 20.94L50.8813 12.24L52.6813 12.22H54.4813C54.4947 12.4733 54.4947 12.7333 54.4813 13ZM61.648 12C63.248 12 64.5747 12.48 65.628 13.44C66.6947 14.4 67.228 15.7133 67.228 17.38C67.228 19.18 66.7147 20.6 65.688 21.64C64.6614 22.6667 63.268 23.18 61.508 23.18C59.9614 23.18 58.6414 22.6933 57.548 21.72C56.4547 20.7333 55.908 19.38 55.908 17.66C55.908 16.0333 56.4414 14.6867 57.508 13.62C58.5747 12.54 59.9547 12 61.648 12ZM61.728 22.32C62.848 22.32 63.728 21.9067 64.368 21.08C65.0214 20.2533 65.348 19.1 65.348 17.62C65.348 16.18 64.9814 15.0333 64.248 14.18C63.528 13.3267 62.608 12.9 61.488 12.9C60.448 12.9 59.568 13.3 58.848 14.1C58.1414 14.8867 57.788 16.0067 57.788 17.46C57.788 18.9267 58.1547 20.1067 58.888 21C59.6214 21.88 60.568 22.32 61.728 22.32ZM81.1448 12.96L79.5248 13C79.4848 13.84 79.4648 15.3333 79.4648 17.48C79.4648 19.88 79.4781 21.46 79.5048 22.22L81.0848 22.26C81.1114 22.5 81.1114 22.7467 81.0848 23C79.8314 22.9867 78.9714 22.98 78.5048 22.98C78.3181 22.98 77.9248 22.9867 77.3248 23C76.7381 23 76.2981 23 76.0048 23C75.9914 22.76 75.9914 22.5133 76.0048 22.26L77.6448 22.22C77.6848 21.3667 77.7048 20.0667 77.7048 18.32V15.08L72.0848 21.04C72.0848 21.44 72.0914 21.8333 72.1048 22.22L73.7248 22.26C73.7381 22.5 73.7381 22.7467 73.7248 23C72.4714 22.9867 71.6114 22.98 71.1448 22.98C70.9181 22.98 70.5314 22.9867 69.9848 23C69.4381 23 68.9914 23 68.6448 23C68.6314 22.7467 68.6314 22.5 68.6448 22.26L70.2448 22.22C70.2981 21.4733 70.3248 19.9 70.3248 17.5C70.3248 15.0733 70.3114 13.5733 70.2848 13L68.6848 12.96C68.6714 12.72 68.6714 12.4733 68.6848 12.22C68.9248 12.22 69.3914 12.2267 70.0848 12.24C70.7914 12.24 71.1781 12.24 71.2448 12.24L73.7648 12.22C73.7781 12.4733 73.7781 12.72 73.7648 12.96L72.1448 13C72.1048 13.64 72.0848 14.82 72.0848 16.54V19.92L77.7048 13.96C77.7048 13.68 77.6981 13.36 77.6848 13L76.0448 12.96C76.0314 12.72 76.0314 12.4733 76.0448 12.22C76.3648 12.22 76.8514 12.2267 77.5048 12.24C78.1714 12.24 78.5314 12.24 78.5848 12.24L81.1448 12.22C81.1581 12.46 81.1581 12.7067 81.1448 12.96ZM73.6048 8.54C73.4714 9.7 73.8914 10.28 74.8648 10.28C75.8381 10.28 76.2581 9.7 76.1248 8.54H77.7048C77.7581 9.32667 77.5314 9.95333 77.0248 10.42C76.5314 10.8867 75.8114 11.12 74.8648 11.12C73.9181 11.12 73.1914 10.8867 72.6848 10.42C72.1914 9.95333 71.9714 9.32667 72.0248 8.54H73.6048ZM99.0921 12.96L97.4721 13C97.4321 13.84 97.4121 15.3333 97.4121 17.48C97.4121 19.88 97.4254 21.46 97.4521 22.22L99.0321 22.26C99.0588 22.5 99.0588 22.7467 99.0321 23C97.7788 22.9867 96.9188 22.98 96.4521 22.98C96.3988 22.98 96.2721 22.9867 96.0721 23C95.8721 23 95.5854 23 95.2121 23C94.8521 23 94.4321 23 93.9521 23V22.26L95.5921 22.22C95.6321 21.2467 95.6521 19.7933 95.6521 17.86C95.3454 17.86 94.8854 17.86 94.2721 17.86C93.6588 17.8467 93.1921 17.84 92.8721 17.84C92.5654 17.84 92.1054 17.8467 91.4921 17.86C90.8788 17.86 90.4188 17.86 90.1121 17.86C90.1121 20.1 90.1254 21.5533 90.1521 22.22L91.7521 22.26C91.7654 22.5 91.7654 22.7467 91.7521 23C90.4988 22.9867 89.6388 22.98 89.1721 22.98L88.3921 23C87.8721 23 87.2988 23 86.6721 23C86.6588 22.7467 86.6588 22.5 86.6721 22.26L88.2721 22.22C88.3254 21.4733 88.3521 19.9 88.3521 17.5C88.3521 15.0733 88.3388 13.5733 88.3121 13L86.7121 12.96C86.6988 12.72 86.6988 12.4733 86.7121 12.22C86.9521 12.22 87.4188 12.2267 88.1121 12.24C88.8188 12.24 89.2054 12.24 89.2721 12.24L91.7921 12.22C91.8054 12.4733 91.8054 12.72 91.7921 12.96L90.1721 13C90.1321 13.72 90.1121 15.0533 90.1121 17C90.7254 17.0133 91.6454 17.02 92.8721 17.02C94.0988 17.02 95.0254 17.0133 95.6521 17C95.6521 15.32 95.6388 13.9867 95.6121 13L93.9921 12.96C93.9788 12.72 93.9788 12.4733 93.9921 12.22C94.3788 12.22 94.8854 12.2267 95.5121 12.24C96.1521 12.24 96.4921 12.24 96.5321 12.24L99.0921 12.22C99.1188 12.4733 99.1188 12.72 99.0921 12.96ZM106.238 12C107.838 12 109.165 12.48 110.218 13.44C111.285 14.4 111.818 15.7133 111.818 17.38C111.818 19.18 111.305 20.6 110.278 21.64C109.251 22.6667 107.858 23.18 106.098 23.18C104.551 23.18 103.231 22.6933 102.138 21.72C101.045 20.7333 100.498 19.38 100.498 17.66C100.498 16.0333 101.031 14.6867 102.098 13.62C103.165 12.54 104.545 12 106.238 12ZM106.318 22.32C107.438 22.32 108.318 21.9067 108.958 21.08C109.611 20.2533 109.938 19.1 109.938 17.62C109.938 16.18 109.571 15.0333 108.838 14.18C108.118 13.3267 107.198 12.9 106.078 12.9C105.038 12.9 104.158 13.3 103.438 14.1C102.731 14.8867 102.378 16.0067 102.378 17.46C102.378 18.9267 102.745 20.1067 103.478 21C104.211 21.88 105.158 22.32 106.318 22.32ZM128.095 13L126.435 13.06C126.421 14.0733 126.415 15.6533 126.415 17.8V22.22L128.055 22.26C128.068 22.5 128.068 22.7467 128.055 23C126.895 22.9867 126.088 22.98 125.635 22.98C125.595 22.98 125.288 22.9867 124.715 23C124.155 23 123.648 23 123.195 23C123.181 22.7467 123.181 22.5 123.195 22.26L124.675 22.22L124.835 13.44L120.835 23.16H119.975L115.695 14.26C115.681 15.0733 115.675 16.4867 115.675 18.5V22.06L117.875 22.26C117.901 22.5133 117.901 22.76 117.875 23C116.941 22.9867 116.248 22.98 115.795 22.98C115.728 22.98 115.341 22.9867 114.635 23C113.941 23 113.455 23 113.175 23C113.161 22.7467 113.161 22.5 113.175 22.26L114.655 22.06L114.875 13.2L113.075 12.98C113.061 12.7267 113.061 12.4733 113.075 12.22H114.895L116.695 12.24L120.875 20.94L124.495 12.24L126.295 12.22H128.095C128.108 12.4733 128.108 12.7333 128.095 13ZM138.961 23.08L137.641 23C136.361 23 135.121 23 133.921 23C132.735 22.9867 132.135 22.98 132.121 22.98C132.055 22.98 131.701 22.9867 131.061 23C130.421 23 129.941 23 129.621 23C129.608 22.7467 129.608 22.5 129.621 22.26L131.221 22.22C131.275 21.4733 131.301 19.9 131.301 17.5C131.301 15.0733 131.288 13.5733 131.261 13L129.661 12.96C129.648 12.72 129.648 12.4733 129.661 12.22C129.928 12.22 130.348 12.2267 130.921 12.24C131.495 12.24 131.868 12.24 132.041 12.24H137.301L138.621 12.16C138.621 12.2 138.621 12.3333 138.621 12.56C138.621 12.7867 138.621 13.1067 138.621 13.52C138.635 13.92 138.641 14.3667 138.641 14.86C138.588 14.86 138.488 14.8667 138.341 14.88C138.208 14.88 138.101 14.88 138.021 14.88C137.955 14.88 137.855 14.88 137.721 14.88C137.601 14.8667 137.515 14.86 137.461 14.86L137.341 13.44C137.328 13.1867 137.175 13.06 136.881 13.06L133.101 13.02C133.061 13.74 133.041 15.0733 133.041 17.02C133.321 17.0333 133.748 17.04 134.321 17.04C134.895 17.04 135.328 17.0333 135.621 17.02L135.761 15.58C136.081 15.5667 136.388 15.5667 136.681 15.58C136.668 15.98 136.661 16.6533 136.661 17.6C136.661 18.5467 136.668 19.2133 136.681 19.6C136.388 19.6133 136.081 19.6133 135.761 19.6L135.621 17.84C135.328 17.8267 134.895 17.82 134.321 17.82C133.748 17.82 133.321 17.8267 133.041 17.84C133.041 20.0533 133.055 21.5 133.081 22.18H137.181C137.381 22.18 137.515 22.1533 137.581 22.1C137.648 22.0333 137.688 21.9133 137.701 21.74L137.821 20.04C137.928 20.0267 138.115 20.02 138.381 20.02C138.661 20.02 138.861 20.0267 138.981 20.04C138.981 20.5867 138.981 21.0933 138.981 21.56C138.981 22.0133 138.975 22.3667 138.961 22.62C138.961 22.8733 138.961 23.0267 138.961 23.08ZM145.258 12.22C147.831 12.22 149.158 13.3 149.238 15.46C149.225 16.0333 149.078 16.5333 148.798 16.96C148.531 17.3867 148.231 17.7067 147.898 17.92C147.565 18.12 147.165 18.28 146.698 18.4C146.231 18.52 145.865 18.5933 145.598 18.62C145.345 18.6333 145.091 18.64 144.838 18.64C144.505 18.64 144.231 18.6333 144.018 18.62V20.4C144.018 21.0533 144.031 21.6467 144.058 22.18L146.518 22.26C146.531 22.5 146.531 22.7467 146.518 23C144.705 22.9867 143.565 22.98 143.098 22.98C143.031 22.98 142.671 22.9867 142.018 23C141.365 23 140.891 23 140.598 23C140.585 22.7467 140.585 22.5 140.598 22.26L142.198 22.22C142.251 21.4733 142.278 19.9 142.278 17.5C142.278 15.0733 142.265 13.5733 142.238 13L140.638 12.96C140.625 12.72 140.625 12.4733 140.638 12.22C141.118 12.22 141.545 12.2267 141.918 12.24C142.291 12.24 142.585 12.24 142.798 12.24C143.011 12.24 143.145 12.24 143.198 12.24C143.265 12.24 143.498 12.24 143.898 12.24C144.311 12.2267 144.765 12.22 145.258 12.22ZM144.018 16.06V17.8C144.205 17.84 144.465 17.86 144.798 17.86C145.718 17.86 146.378 17.6467 146.778 17.22C147.178 16.78 147.378 16.2533 147.378 15.64C147.378 14.8533 147.165 14.2267 146.738 13.76C146.325 13.2933 145.705 13.06 144.878 13.06H144.078C144.038 13.78 144.018 14.78 144.018 16.06ZM150.997 21.92C150.997 21.4933 151.13 21.1733 151.397 20.96C151.664 20.7333 151.99 20.62 152.377 20.62C152.75 20.62 153.044 20.74 153.257 20.98C153.47 21.22 153.577 21.5333 153.577 21.92C153.577 22.3467 153.444 22.6667 153.177 22.88C152.924 23.0933 152.597 23.2 152.197 23.2C151.824 23.2 151.53 23.0933 151.317 22.88C151.104 22.6533 150.997 22.3333 150.997 21.92ZM150.997 15.08C150.997 14.6533 151.13 14.3333 151.397 14.12C151.664 13.8933 151.99 13.78 152.377 13.78C152.75 13.78 153.044 13.9 153.257 14.14C153.47 14.38 153.577 14.6933 153.577 15.08C153.577 15.5067 153.444 15.8267 153.177 16.04C152.924 16.2533 152.597 16.36 152.197 16.36C151.824 16.36 151.53 16.2533 151.317 16.04C151.104 15.8133 150.997 15.4933 150.997 15.08ZM163.283 21.66V17.94H159.623V16.88H163.283V13.22H164.423V16.88H168.063V17.94H164.423V21.66H163.283ZM169.581 12.16H176.921C175.761 15.5067 174.054 19.2 171.801 23.24C171.508 23.24 171.188 23.1133 170.841 22.86L171.141 22.38C173.074 19.3533 174.568 16.3867 175.621 13.48C174.914 13.48 173.841 13.4933 172.401 13.52C170.974 13.5467 169.908 13.5667 169.201 13.58C169.281 12.9667 169.408 12.4933 169.581 12.16ZM184.101 15.28C184.101 16.0667 184.301 16.6867 184.701 17.14C185.101 17.58 185.628 17.8 186.281 17.8C186.615 17.8 186.941 17.7333 187.261 17.6C187.581 17.4667 187.821 17.34 187.981 17.22C188.141 17.0867 188.221 17.0067 188.221 16.98C188.221 14.1133 187.401 12.68 185.761 12.68C184.655 12.68 184.101 13.5467 184.101 15.28ZM183.261 17.74C182.741 17.1267 182.481 16.36 182.481 15.44C182.481 14.52 182.781 13.72 183.381 13.04C183.995 12.3467 184.881 12 186.041 12C187.348 12 188.321 12.48 188.961 13.44C189.615 14.4 189.941 15.5933 189.941 17.02C189.941 17.6067 189.855 18.1867 189.681 18.76C189.521 19.32 189.261 19.86 188.901 20.38C188.541 20.9 188.095 21.3533 187.561 21.74C187.041 22.1267 186.401 22.44 185.641 22.68C184.881 22.9067 184.048 23.02 183.141 23.02C183.115 22.7533 183.115 22.5 183.141 22.26C184.608 22.26 185.815 21.8333 186.761 20.98C187.721 20.1267 188.208 19.0267 188.221 17.68C187.488 18.32 186.601 18.64 185.561 18.64C184.548 18.64 183.781 18.34 183.261 17.74ZM196.011 23.24C195.064 23.24 194.211 22.9867 193.451 22.48C192.691 21.96 192.311 21.3267 192.311 20.58C192.311 19.74 192.811 18.98 193.811 18.3C193.984 18.1933 194.351 17.9733 194.911 17.64C194.644 17.48 194.424 17.34 194.251 17.22C194.077 17.1 193.857 16.92 193.591 16.68C193.337 16.44 193.144 16.1733 193.011 15.88C192.877 15.5733 192.811 15.2467 192.811 14.9C192.811 14.1133 193.131 13.44 193.771 12.88C194.424 12.32 195.231 12.04 196.191 12.04C197.204 12.04 197.984 12.2733 198.531 12.74C199.077 13.2067 199.351 13.8133 199.351 14.56C199.351 14.8667 199.291 15.1467 199.171 15.4C199.051 15.64 198.844 15.8667 198.551 16.08C198.271 16.28 198.024 16.44 197.811 16.56C197.597 16.6667 197.284 16.8133 196.871 17C197.897 17.64 198.657 18.2067 199.151 18.7C199.657 19.18 199.911 19.7133 199.911 20.3C199.911 21.1 199.511 21.7933 198.711 22.38C197.924 22.9533 197.024 23.24 196.011 23.24ZM196.151 22.54C196.791 22.54 197.311 22.3733 197.711 22.04C198.111 21.7067 198.311 21.28 198.311 20.76C198.311 20.0267 197.331 19.1067 195.371 18C194.851 18.4 194.471 18.7733 194.231 19.12C194.004 19.4667 193.891 19.8867 193.891 20.38C193.891 20.9133 194.111 21.4067 194.551 21.86C194.991 22.3133 195.524 22.54 196.151 22.54ZM196.391 16.7C196.884 16.3133 197.237 15.9733 197.451 15.68C197.677 15.3733 197.791 15.0267 197.791 14.64C197.791 14.08 197.617 13.6267 197.271 13.28C196.937 12.92 196.531 12.74 196.051 12.74C195.477 12.74 195.044 12.9 194.751 13.22C194.457 13.5267 194.311 13.9333 194.311 14.44C194.311 14.6933 194.411 14.9533 194.611 15.22C194.811 15.4867 195.024 15.7133 195.251 15.9C195.491 16.0733 195.871 16.34 196.391 16.7ZM201.983 12.16H209.323C208.163 15.5067 206.457 19.2 204.203 23.24C203.91 23.24 203.59 23.1133 203.243 22.86L203.543 22.38C205.477 19.3533 206.97 16.3867 208.023 13.48C207.317 13.48 206.243 13.4933 204.803 13.52C203.377 13.5467 202.31 13.5667 201.603 13.58C201.683 12.9667 201.81 12.4933 201.983 12.16ZM215.7 15.22C215.7 14.5267 215.506 13.9867 215.12 13.6C214.746 13.2 214.293 13 213.76 13C212.893 13 212.146 13.3667 211.52 14.1L211 13.68C211.853 12.5333 212.926 11.96 214.22 11.96C215.086 11.96 215.826 12.2067 216.44 12.7C217.066 13.1933 217.38 13.8933 217.38 14.8C217.38 15.44 217.2 16.1267 216.84 16.86C216.48 17.58 216.013 18.2533 215.44 18.88C214.88 19.5067 214.286 20.08 213.66 20.6C213.046 21.12 212.44 21.5667 211.84 21.94L218.2 21.6C218.2 21.88 218.14 22.1867 218.02 22.52C217.913 22.84 217.813 23 217.72 23H210.46V22.5C212.206 20.94 213.513 19.6 214.38 18.48C215.26 17.3467 215.7 16.26 215.7 15.22ZM221.679 15.28C221.679 16.0667 221.879 16.6867 222.279 17.14C222.679 17.58 223.206 17.8 223.859 17.8C224.193 17.8 224.519 17.7333 224.839 17.6C225.159 17.4667 225.399 17.34 225.559 17.22C225.719 17.0867 225.799 17.0067 225.799 16.98C225.799 14.1133 224.979 12.68 223.339 12.68C222.233 12.68 221.679 13.5467 221.679 15.28ZM220.839 17.74C220.319 17.1267 220.059 16.36 220.059 15.44C220.059 14.52 220.359 13.72 220.959 13.04C221.573 12.3467 222.459 12 223.619 12C224.926 12 225.899 12.48 226.539 13.44C227.193 14.4 227.519 15.5933 227.519 17.02C227.519 17.6067 227.433 18.1867 227.259 18.76C227.099 19.32 226.839 19.86 226.479 20.38C226.119 20.9 225.673 21.3533 225.139 21.74C224.619 22.1267 223.979 22.44 223.219 22.68C222.459 22.9067 221.626 23.02 220.719 23.02C220.693 22.7533 220.693 22.5 220.719 22.26C222.186 22.26 223.393 21.8333 224.339 20.98C225.299 20.1267 225.786 19.0267 225.799 17.68C225.066 18.32 224.179 18.64 223.139 18.64C222.126 18.64 221.359 18.34 220.839 17.74ZM229.549 23C229.535 22.76 229.535 22.54 229.549 22.34L231.389 22.3C231.442 21.5533 231.469 19.9667 231.469 17.54C231.469 15.26 231.455 13.8333 231.429 13.26L229.429 13.72C229.415 13.5067 229.415 13.2733 229.429 13.02L233.009 12.04V22.3C233.235 22.3 233.575 22.3067 234.029 22.32C234.482 22.3333 234.809 22.34 235.009 22.34C235.022 22.54 235.022 22.76 235.009 23C233.569 22.9867 232.635 22.98 232.209 22.98L229.549 23ZM241.95 15.22C241.95 14.5267 241.756 13.9867 241.37 13.6C240.996 13.2 240.543 13 240.01 13C239.143 13 238.396 13.3667 237.77 14.1L237.25 13.68C238.103 12.5333 239.176 11.96 240.47 11.96C241.336 11.96 242.076 12.2067 242.69 12.7C243.316 13.1933 243.63 13.8933 243.63 14.8C243.63 15.44 243.45 16.1267 243.09 16.86C242.73 17.58 242.263 18.2533 241.69 18.88C241.13 19.5067 240.536 20.08 239.91 20.6C239.296 21.12 238.69 21.5667 238.09 21.94L244.45 21.6C244.45 21.88 244.39 22.1867 244.27 22.52C244.163 22.84 244.063 23 243.97 23H236.71V22.5C238.456 20.94 239.763 19.6 240.63 18.48C241.51 17.3467 241.95 16.26 241.95 15.22ZM251.969 18.46L254.589 18.34C254.589 18.62 254.523 18.92 254.389 19.24C254.269 19.5467 254.156 19.7 254.049 19.7H251.969V23.04C251.809 23.0533 251.583 23.06 251.289 23.06C250.929 23.06 250.669 23.0533 250.509 23.04V19.7H245.869C245.749 19.4067 245.689 19.1467 245.689 18.92L250.489 12.1C250.689 11.9 251.183 11.78 251.969 11.74V18.46ZM246.709 18.68L250.509 18.48V13.16L246.709 18.68ZM262.106 18.46L264.726 18.34C264.726 18.62 264.66 18.92 264.526 19.24C264.406 19.5467 264.293 19.7 264.186 19.7H262.106V23.04C261.946 23.0533 261.72 23.06 261.426 23.06C261.066 23.06 260.806 23.0533 260.646 23.04V19.7H256.006C255.886 19.4067 255.826 19.1467 255.826 18.92L260.626 12.1C260.826 11.9 261.32 11.78 262.106 11.74V18.46ZM256.846 18.68L260.646 18.48V13.16L256.846 18.68ZM272.243 18.46L274.863 18.34C274.863 18.62 274.796 18.92 274.663 19.24C274.543 19.5467 274.43 19.7 274.323 19.7H272.243V23.04C272.083 23.0533 271.856 23.06 271.563 23.06C271.203 23.06 270.943 23.0533 270.783 23.04V19.7H266.143C266.023 19.4067 265.963 19.1467 265.963 18.92L270.763 12.1C270.963 11.9 271.456 11.78 272.243 11.74V18.46ZM266.983 18.68L270.783 18.48V13.16L266.983 18.68Z" fill="#FF3E96"/>
<path d="M279 33.2493V35.939C203.301 36.0775 110.649 35.9368 34.9504 35.9368C23.6267 35.9368 12.3237 35.9368 1 35.9368C1 35.0502 1 34.1775 1 33.2909C89.8477 33.1939 178.695 33.097 267.543 33C268.933 33.0831 279 33.2493 279 33.2493Z" fill="#FF3E96"/>
<path d="M0.109375 0H275.109C275.109 0.33 275.109 0.67 275.109 1H0.109375C0.109375 0.67 0.109375 0.33 0.109375 0Z" fill="#FFBCD8"/>
<path d="M279 36C278.33 35.9353 277.67 35.8707 277 35.806C277 24.5553 277 13.3046 277 2.05388C277.67 2.03233 278.34 2.02155 279 2V35.9892V36Z" fill="#FF3E96"/>
</svg>
